<?xml version="1.0" encoding="utf-8" standalone="no"?>
<!DOCTYPE svg PUBLIC "-//W3C//DTD SVG 1.1//EN"
  "http://www.w3.org/Graphics/SVG/1.1/DTD/svg11.dtd">
<svg xmlns:xlink="http://www.w3.org/1999/xlink" width="468pt" height="482.4pt" viewBox="0 0 468 482.4" xmlns="http://www.w3.org/2000/svg" version="1.1">
 <metadata>
  <rdf:RDF xmlns:dc="http://purl.org/dc/elements/1.1/" xmlns:cc="http://creativecommons.org/ns#" xmlns:rdf="http://www.w3.org/1999/02/22-rdf-syntax-ns#">
   <cc:Work>
    <dc:type rdf:resource="http://purl.org/dc/dcmitype/StillImage"/>
    <dc:date>2026-10-04T23:14:08.497584</dc:date>
    <dc:format>image/svg+xml</dc:format>
    <dc:creator>
     <cc:Agent>
      <dc:title>Matplotlib v3.8.2, https://matplotlib.org/</dc:title>
     </cc:Agent>
    </dc:creator>
   </cc:Work>
  </rdf:RDF>
 </metadata>
 <defs>
  <style type="text/css">*{stroke-linejoin: round; stroke-linecap: butt}</style>
 </defs>
 <g id="figure_1">
  <g id="patch_1">
   <path d="M 0 482.4 
L 468 482.4 
L 468 0 
L 0 0 
z
" style="fill: #ffffff"/>
  </g>
  <g id="axes_1">
   <g id="patch_2">
    <path d="M 32.7521 323.275 
L 336.7579 323.275 
Q 339.056 323.275 339.056 320.9769 
L 339.056 213.9511 
Q 339.056 211.653 336.7579 211.653 
L 32.7521 211.653 
Q 30.454 211.653 30.454 213.9511 
L 30.454 320.9769 
Q 30.454 323.275 32.7521 323.275 
L 32.7521 323.275 
z
" clip-path="url(#pd8fbb9a721)" style="fill: none; stroke: #0b0b0b; stroke-width: 0.9; stroke-linejoin: miter"/>
   </g>
   <g id="patch_3">
    <path d="M 89.548 301.9355 
Q 89.548 304.39775 89.548 306.86 
" clip-path="url(#pd8fbb9a721)" style="fill: none; stroke: #0b0b0b; stroke-width: 1.3; stroke-linecap: round"/>
   </g>
   <g id="patch_4">
    <path d="M 89.548 306.86 
Q 176.5475 306.86 263.547 306.86 
" clip-path="url(#pd8fbb9a721)" style="fill: none; stroke: #0b0b0b; stroke-width: 1.3; stroke-linecap: round"/>
   </g>
   <g id="patch_5">
    <path d="M 184.755 301.9355 
Q 184.755 304.39775 184.755 306.86 
" clip-path="url(#pd8fbb9a721)" style="fill: none; stroke: #0b0b0b; stroke-width: 1.3; stroke-linecap: round"/>
   </g>
   <g id="patch_6">
    <path d="M 263.547 306.86 
Q 263.547 304.39775 263.547 303.3444 
" clip-path="url(#pd8fbb9a721)" style="fill: none; stroke: #0b0b0b; stroke-width: 1.3; stroke-linecap: round"/>
    <path d="M 260.947 308.3444 
L 263.547 303.3444 
L 266.147 308.3444 
z
" clip-path="url(#pd8fbb9a721)" style="fill: #0b0b0b; stroke: #0b0b0b; stroke-width: 1.3; stroke-linecap: round"/>
   </g>
   <g id="patch_7">
    <path d="M 168.34 62.2765 
Q 168.34 72.1255 168.34 80.5656 
" clip-path="url(#pd8fbb9a721)" style="fill: none; stroke: #0b0b0b; stroke-width: 1.3; stroke-linecap: round"/>
    <path d="M 170.94 75.5656 
L 168.34 80.5656 
L 165.74 75.5656 
z
" clip-path="url(#pd8fbb9a721)" style="fill: #0b0b0b; stroke: #0b0b0b; stroke-width: 1.3; stroke-linecap: round"/>
   </g>
   <g id="patch_8">
    <path d="M 201.17 81.9745 
Q 201.17 72.1255 201.17 63.6854 
" clip-path="url(#pd8fbb9a721)" style="fill: none; stroke: #52514e; stroke-width: 1.3; stroke-linecap: round"/>
    <path d="M 198.57 68.6854 
L 201.17 63.6854 
L 203.77 68.6854 
z
" clip-path="url(#pd8fbb9a721)" style="fill: #52514e; stroke: #52514e; stroke-width: 1.3; stroke-linecap: round"/>
   </g>
   <g id="patch_9">
    <path d="M 184.755 124.6535 
Q 184.755 133.68175 184.755 141.3011 
" clip-path="url(#pd8fbb9a721)" style="fill: none; stroke: #0b0b0b; stroke-width: 1.3; stroke-linecap: round"/>
    <path d="M 187.355 136.3011 
L 184.755 141.3011 
L 182.155 136.3011 
z
" clip-path="url(#pd8fbb9a721)" style="fill: #0b0b0b; stroke: #0b0b0b; stroke-width: 1.3; stroke-linecap: round"/>
   </g>
   <g id="patch_10">
    <path d="M 184.755 195.238 
Q 184.755 203.4455 184.755 210.2441 
" clip-path="url(#pd8fbb9a721)" style="fill: none; stroke: #0b0b0b; stroke-width: 1.3; stroke-linecap: round"/>
    <path d="M 187.355 205.2441 
L 184.755 210.2441 
L 182.155 205.2441 
z
" clip-path="url(#pd8fbb9a721)" style="fill: #0b0b0b; stroke: #0b0b0b; stroke-width: 1.3; stroke-linecap: round"/>
   </g>
   <g id="patch_11">
    <path d="M 316.075 301.9355 
Q 316.075 319.992 316.075 336.6396 
" clip-path="url(#pd8fbb9a721)" style="fill: none; stroke: #0b0b0b; stroke-width: 1.3; stroke-linecap: round"/>
    <path d="M 318.675 331.6396 
L 316.075 336.6396 
L 313.475 331.6396 
z
" clip-path="url(#pd8fbb9a721)" style="fill: #0b0b0b; stroke: #0b0b0b; stroke-width: 1.3; stroke-linecap: round"/>
   </g>
   <g id="patch_12">
    <path d="M 184.755 377.4445 
Q 184.755 386.47275 184.755 394.0921 
" clip-path="url(#pd8fbb9a721)" style="fill: none; stroke: #0b0b0b; stroke-width: 1.3; stroke-linecap: round"/>
    <path d="M 187.355 389.0921 
L 184.755 394.0921 
L 182.155 389.0921 
z
" clip-path="url(#pd8fbb9a721)" style="fill: #0b0b0b; stroke: #0b0b0b; stroke-width: 1.3; stroke-linecap: round"/>
   </g>
   <g id="patch_13">
    <path d="M 339.056 416.8405 
Q 347.2635 416.8405 355.471 416.8405 
" clip-path="url(#pd8fbb9a721)" style="fill: none; stroke-dasharray: 4.81,2.08; stroke-dashoffset: 0; stroke: #52514e; stroke-width: 1.3; stroke-linecap: round"/>
   </g>
   <g id="patch_14">
    <path d="M 355.471 416.8405 
Q 355.471 292.90725 355.471 168.974 
" clip-path="url(#pd8fbb9a721)" style="fill: none; stroke-dasharray: 4.81,2.08; stroke-dashoffset: 0; stroke: #52514e; stroke-width: 1.3; stroke-linecap: round"/>
   </g>
   <g id="patch_15">
    <path d="M 355.471 168.974 
Q 347.2635 168.974 340.4649 168.974 
" clip-path="url(#pd8fbb9a721)" style="fill: none; stroke-dasharray: 4.81,2.08; stroke-dashoffset: 0; stroke: #52514e; stroke-width: 1.3; stroke-linecap: round"/>
    <path d="M 345.4649 171.574 
L 340.4649 168.974 
L 345.4649 166.374 
z
" clip-path="url(#pd8fbb9a721)" style="fill: #52514e; stroke-dasharray: 4.81,2.08; stroke-dashoffset: 0; stroke: #52514e; stroke-width: 1.3; stroke-linecap: round"/>
   </g>
   <g id="patch_16">
    <path d="M 32.7521 62.2765 
L 336.7579 62.2765 
Q 339.056 62.2765 339.056 59.9784 
L 339.056 21.8956 
Q 339.056 19.5975 336.7579 19.5975 
L 32.7521 19.5975 
Q 30.454 19.5975 30.454 21.8956 
L 30.454 59.9784 
Q 30.454 62.2765 32.7521 62.2765 
z
" clip-path="url(#pd8fbb9a721)" style="fill: #ffffff; stroke: #0b0b0b; stroke-width: 1.2; stroke-linejoin: miter"/>
   </g>
   <g id="patch_17">
    <path d="M 32.7521 124.6535 
L 336.7579 124.6535 
Q 339.056 124.6535 339.056 122.3554 
L 339.056 84.2726 
Q 339.056 81.9745 336.7579 81.9745 
L 32.7521 81.9745 
Q 30.454 81.9745 30.454 84.2726 
L 30.454 122.3554 
Q 30.454 124.6535 32.7521 124.6535 
z
" clip-path="url(#pd8fbb9a721)" style="fill: #ffffff; stroke: #0b0b0b; stroke-width: 1.2; stroke-linejoin: miter"/>
   </g>
   <g id="patch_18">
    <path d="M 32.7521 195.238 
L 336.7579 195.238 
Q 339.056 195.238 339.056 192.9399 
L 339.056 145.0081 
Q 339.056 142.71 336.7579 142.71 
L 32.7521 142.71 
Q 30.454 142.71 30.454 145.0081 
L 30.454 192.9399 
Q 30.454 195.238 32.7521 195.238 
z
" clip-path="url(#pd8fbb9a721)" style="fill: #ffffff; stroke: #0b0b0b; stroke-width: 1.2; stroke-linejoin: miter"/>
   </g>
   <g id="patch_19">
    <path d="M 47.5256 301.9355 
L 131.5704 301.9355 
Q 133.8685 301.9355 133.8685 299.6374 
L 133.8685 258.2716 
Q 133.8685 255.9735 131.5704 255.9735 
L 47.5256 255.9735 
Q 45.2275 255.9735 45.2275 258.2716 
L 45.2275 299.6374 
Q 45.2275 301.9355 47.5256 301.9355 
z
" clip-path="url(#pd8fbb9a721)" style="fill: #ffffff; stroke: #0b0b0b; stroke-width: 1.2; stroke-linejoin: miter"/>
   </g>
   <g id="patch_20">
    <path d="M 142.7326 301.9355 
L 226.7774 301.9355 
Q 229.0755 301.9355 229.0755 299.6374 
L 229.0755 258.2716 
Q 229.0755 255.9735 226.7774 255.9735 
L 142.7326 255.9735 
Q 140.4345 255.9735 140.4345 258.2716 
L 140.4345 299.6374 
Q 140.4345 301.9355 142.7326 301.9355 
z
" clip-path="url(#pd8fbb9a721)" style="fill: #ffffff; stroke: #0b0b0b; stroke-width: 1.2; stroke-linejoin: miter"/>
   </g>
   <g id="patch_21">
    <path d="M 247.7886 301.9355 
L 331.8334 301.9355 
Q 334.1315 301.9355 334.1315 299.6374 
L 334.1315 258.2716 
Q 334.1315 255.9735 331.8334 255.9735 
L 247.7886 255.9735 
Q 245.4905 255.9735 245.4905 258.2716 
L 245.4905 299.6374 
Q 245.4905 301.9355 247.7886 301.9355 
z
" clip-path="url(#pd8fbb9a721)" style="fill: #cde2fb; stroke: #184f95; stroke-width: 1.2; stroke-linejoin: miter"/>
   </g>
   <g id="patch_22">
    <path d="M 32.7521 377.4445 
L 336.7579 377.4445 
Q 339.056 377.4445 339.056 375.1464 
L 339.056 340.3466 
Q 339.056 338.0485 336.7579 338.0485 
L 32.7521 338.0485 
Q 30.454 338.0485 30.454 340.3466 
L 30.454 375.1464 
Q 30.454 377.4445 32.7521 377.4445 
z
" clip-path="url(#pd8fbb9a721)" style="fill: #f0efec; stroke-dasharray: 3.6,2.4; stroke-dashoffset: 0; stroke: #0b0b0b; stroke-width: 1.2; stroke-linejoin: miter"/>
   </g>
   <g id="patch_23">
    <path d="M 32.7521 438.18 
L 336.7579 438.18 
Q 339.056 438.18 339.056 435.8819 
L 339.056 397.7991 
Q 339.056 395.501 336.7579 395.501 
L 32.7521 395.501 
Q 30.454 395.501 30.454 397.7991 
L 30.454 435.8819 
Q 30.454 438.18 32.7521 438.18 
z
" clip-path="url(#pd8fbb9a721)" style="fill: #cde2fb; stroke: #184f95; stroke-width: 1.2; stroke-linejoin: miter"/>
   </g>
   <g id="patch_24">
    <path d="M 377.4671 408.633 
L 441.8139 408.633 
Q 444.112 408.633 444.112 406.3349 
L 444.112 95.7631 
Q 444.112 93.465 441.8139 93.465 
L 377.4671 93.465 
Q 375.169 93.465 375.169 95.7631 
L 375.169 406.3349 
Q 375.169 408.633 377.4671 408.633 
z
" clip-path="url(#pd8fbb9a721)" style="fill: #ffffff; stroke: #9a9993; stroke-width: 1.2; stroke-linejoin: miter"/>
   </g>
   <g id="patch_25">
    <path d="M 34.3936 468.7119 
L 49.4954 468.7119 
Q 51.7935 468.7119 51.7935 466.4138 
L 51.7935 459.1912 
Q 51.7935 456.8931 49.4954 456.8931 
L 34.3936 456.8931 
Q 32.0955 456.8931 32.0955 459.1912 
L 32.0955 466.4138 
Q 32.0955 468.7119 34.3936 468.7119 
z
" clip-path="url(#pd8fbb9a721)" style="fill: #ffffff; stroke: #0b0b0b; stroke-linejoin: miter"/>
   </g>
   <g id="patch_26">
    <path d="M 137.8081 468.7119 
L 152.9099 468.7119 
Q 155.208 468.7119 155.208 466.4138 
L 155.208 459.1912 
Q 155.208 456.8931 152.9099 456.8931 
L 137.8081 456.8931 
Q 135.51 456.8931 135.51 459.1912 
L 135.51 466.4138 
Q 135.51 468.7119 137.8081 468.7119 
z
" clip-path="url(#pd8fbb9a721)" style="fill: #f0efec; stroke-dasharray: 3,2; stroke-dashoffset: 0; stroke: #0b0b0b; stroke-linejoin: miter"/>
   </g>
   <g id="patch_27">
    <path d="M 241.2226 468.7119 
L 256.3244 468.7119 
Q 258.6225 468.7119 258.6225 466.4138 
L 258.6225 459.1912 
Q 258.6225 456.8931 256.3244 456.8931 
L 241.2226 456.8931 
Q 238.9245 456.8931 238.9245 459.1912 
L 238.9245 466.4138 
Q 238.9245 468.7119 241.2226 468.7119 
z
" clip-path="url(#pd8fbb9a721)" style="fill: #cde2fb; stroke: #184f95; stroke-linejoin: miter"/>
   </g>
   <g id="patch_28">
    <path d="M 344.6371 468.7119 
L 359.7389 468.7119 
Q 362.037 468.7119 362.037 466.4138 
L 362.037 459.1912 
Q 362.037 456.8931 359.7389 456.8931 
L 344.6371 456.8931 
Q 342.339 456.8931 342.339 459.1912 
L 342.339 466.4138 
Q 342.339 468.7119 344.6371 468.7119 
z
" clip-path="url(#pd8fbb9a721)" style="fill: #ffffff; stroke: #9a9993; stroke-linejoin: miter"/>
   </g>
   <g id="text_1">
    <!-- Shtresa e prezantimit -->
    <g style="fill: #0b0b0b" transform="translate(139.372766 37.069537) scale(0.074 -0.074)">
     <defs>
      <path id="DejaVuSans-Bold-53" d="M 3834 4519 
L 3834 3531 
Q 3450 3703 3084 3790 
Q 2719 3878 2394 3878 
Q 1963 3878 1756 3759 
Q 1550 3641 1550 3391 
Q 1550 3203 1689 3098 
Q 1828 2994 2194 2919 
L 2706 2816 
Q 3484 2659 3812 2340 
Q 4141 2022 4141 1434 
Q 4141 663 3683 286 
Q 3225 -91 2284 -91 
Q 1841 -91 1394 -6 
Q 947 78 500 244 
L 500 1259 
Q 947 1022 1364 901 
Q 1781 781 2169 781 
Q 2563 781 2772 912 
Q 2981 1044 2981 1288 
Q 2981 1506 2839 1625 
Q 2697 1744 2272 1838 
L 1806 1941 
Q 1106 2091 782 2419 
Q 459 2747 459 3303 
Q 459 4000 909 4375 
Q 1359 4750 2203 4750 
Q 2588 4750 2994 4692 
Q 3400 4634 3834 4519 
z
" transform="scale(0.015625)"/>
      <path id="DejaVuSans-Bold-68" d="M 4056 2131 
L 4056 0 
L 2931 0 
L 2931 347 
L 2931 1625 
Q 2931 2084 2911 2256 
Q 2891 2428 2841 2509 
Q 2775 2619 2662 2680 
Q 2550 2741 2406 2741 
Q 2056 2741 1856 2470 
Q 1656 2200 1656 1722 
L 1656 0 
L 538 0 
L 538 4863 
L 1656 4863 
L 1656 2988 
Q 1909 3294 2193 3439 
Q 2478 3584 2822 3584 
Q 3428 3584 3742 3212 
Q 4056 2841 4056 2131 
z
" transform="scale(0.015625)"/>
      <path id="DejaVuSans-Bold-74" d="M 1759 4494 
L 1759 3500 
L 2913 3500 
L 2913 2700 
L 1759 2700 
L 1759 1216 
Q 1759 972 1856 886 
Q 1953 800 2241 800 
L 2816 800 
L 2816 0 
L 1856 0 
Q 1194 0 917 276 
Q 641 553 641 1216 
L 641 2700 
L 84 2700 
L 84 3500 
L 641 3500 
L 641 4494 
L 1759 4494 
z
" transform="scale(0.015625)"/>
      <path id="DejaVuSans-Bold-72" d="M 3138 2547 
Q 2991 2616 2845 2648 
Q 2700 2681 2553 2681 
Q 2122 2681 1889 2404 
Q 1656 2128 1656 1613 
L 1656 0 
L 538 0 
L 538 3500 
L 1656 3500 
L 1656 2925 
Q 1872 3269 2151 3426 
Q 2431 3584 2822 3584 
Q 2878 3584 2943 3579 
Q 3009 3575 3134 3559 
L 3138 2547 
z
" transform="scale(0.015625)"/>
      <path id="DejaVuSans-Bold-65" d="M 4031 1759 
L 4031 1441 
L 1416 1441 
Q 1456 1047 1700 850 
Q 1944 653 2381 653 
Q 2734 653 3104 758 
Q 3475 863 3866 1075 
L 3866 213 
Q 3469 63 3072 -14 
Q 2675 -91 2278 -91 
Q 1328 -91 801 392 
Q 275 875 275 1747 
Q 275 2603 792 3093 
Q 1309 3584 2216 3584 
Q 3041 3584 3536 3087 
Q 4031 2591 4031 1759 
z
M 2881 2131 
Q 2881 2450 2695 2645 
Q 2509 2841 2209 2841 
Q 1884 2841 1681 2658 
Q 1478 2475 1428 2131 
L 2881 2131 
z
" transform="scale(0.015625)"/>
      <path id="DejaVuSans-Bold-73" d="M 3272 3391 
L 3272 2541 
Q 2913 2691 2578 2766 
Q 2244 2841 1947 2841 
Q 1628 2841 1473 2761 
Q 1319 2681 1319 2516 
Q 1319 2381 1436 2309 
Q 1553 2238 1856 2203 
L 2053 2175 
Q 2913 2066 3209 1816 
Q 3506 1566 3506 1031 
Q 3506 472 3093 190 
Q 2681 -91 1863 -91 
Q 1516 -91 1145 -36 
Q 775 19 384 128 
L 384 978 
Q 719 816 1070 734 
Q 1422 653 1784 653 
Q 2113 653 2278 743 
Q 2444 834 2444 1013 
Q 2444 1163 2330 1236 
Q 2216 1309 1875 1350 
L 1678 1375 
Q 931 1469 631 1722 
Q 331 1975 331 2491 
Q 331 3047 712 3315 
Q 1094 3584 1881 3584 
Q 2191 3584 2531 3537 
Q 2872 3491 3272 3391 
z
" transform="scale(0.015625)"/>
      <path id="DejaVuSans-Bold-61" d="M 2106 1575 
Q 1756 1575 1579 1456 
Q 1403 1338 1403 1106 
Q 1403 894 1545 773 
Q 1688 653 1941 653 
Q 2256 653 2472 879 
Q 2688 1106 2688 1447 
L 2688 1575 
L 2106 1575 
z
M 3816 1997 
L 3816 0 
L 2688 0 
L 2688 519 
Q 2463 200 2181 54 
Q 1900 -91 1497 -91 
Q 953 -91 614 226 
Q 275 544 275 1050 
Q 275 1666 698 1953 
Q 1122 2241 2028 2241 
L 2688 2241 
L 2688 2328 
Q 2688 2594 2478 2717 
Q 2269 2841 1825 2841 
Q 1466 2841 1156 2769 
Q 847 2697 581 2553 
L 581 3406 
Q 941 3494 1303 3539 
Q 1666 3584 2028 3584 
Q 2975 3584 3395 3211 
Q 3816 2838 3816 1997 
z
" transform="scale(0.015625)"/>
      <path id="DejaVuSans-Bold-20" transform="scale(0.015625)"/>
      <path id="DejaVuSans-Bold-70" d="M 1656 506 
L 1656 -1331 
L 538 -1331 
L 538 3500 
L 1656 3500 
L 1656 2988 
Q 1888 3294 2169 3439 
Q 2450 3584 2816 3584 
Q 3463 3584 3878 3070 
Q 4294 2556 4294 1747 
Q 4294 938 3878 423 
Q 3463 -91 2816 -91 
Q 2450 -91 2169 54 
Q 1888 200 1656 506 
z
M 2400 2772 
Q 2041 2772 1848 2508 
Q 1656 2244 1656 1747 
Q 1656 1250 1848 986 
Q 2041 722 2400 722 
Q 2759 722 2948 984 
Q 3138 1247 3138 1747 
Q 3138 2247 2948 2509 
Q 2759 2772 2400 2772 
z
" transform="scale(0.015625)"/>
      <path id="DejaVuSans-Bold-7a" d="M 366 3500 
L 3419 3500 
L 3419 2719 
L 1575 800 
L 3419 800 
L 3419 0 
L 288 0 
L 288 781 
L 2131 2700 
L 366 2700 
L 366 3500 
z
" transform="scale(0.015625)"/>
      <path id="DejaVuSans-Bold-6e" d="M 4056 2131 
L 4056 0 
L 2931 0 
L 2931 347 
L 2931 1631 
Q 2931 2084 2911 2256 
Q 2891 2428 2841 2509 
Q 2775 2619 2662 2680 
Q 2550 2741 2406 2741 
Q 2056 2741 1856 2470 
Q 1656 2200 1656 1722 
L 1656 0 
L 538 0 
L 538 3500 
L 1656 3500 
L 1656 2988 
Q 1909 3294 2193 3439 
Q 2478 3584 2822 3584 
Q 3428 3584 3742 3212 
Q 4056 2841 4056 2131 
z
" transform="scale(0.015625)"/>
      <path id="DejaVuSans-Bold-69" d="M 538 3500 
L 1656 3500 
L 1656 0 
L 538 0 
L 538 3500 
z
M 538 4863 
L 1656 4863 
L 1656 3950 
L 538 3950 
L 538 4863 
z
" transform="scale(0.015625)"/>
      <path id="DejaVuSans-Bold-6d" d="M 3781 2919 
Q 3994 3244 4286 3414 
Q 4578 3584 4928 3584 
Q 5531 3584 5847 3212 
Q 6163 2841 6163 2131 
L 6163 0 
L 5038 0 
L 5038 1825 
Q 5041 1866 5042 1909 
Q 5044 1953 5044 2034 
Q 5044 2406 4934 2573 
Q 4825 2741 4581 2741 
Q 4263 2741 4089 2478 
Q 3916 2216 3909 1719 
L 3909 0 
L 2784 0 
L 2784 1825 
Q 2784 2406 2684 2573 
Q 2584 2741 2328 2741 
Q 2006 2741 1831 2477 
Q 1656 2213 1656 1722 
L 1656 0 
L 531 0 
L 531 3500 
L 1656 3500 
L 1656 2988 
Q 1863 3284 2130 3434 
Q 2397 3584 2719 3584 
Q 3081 3584 3359 3409 
Q 3638 3234 3781 2919 
z
" transform="scale(0.015625)"/>
     </defs>
     <use xlink:href="#DejaVuSans-Bold-53"/>
     <use xlink:href="#DejaVuSans-Bold-68" x="72.021484"/>
     <use xlink:href="#DejaVuSans-Bold-74" x="143.212891"/>
     <use xlink:href="#DejaVuSans-Bold-72" x="191.015625"/>
     <use xlink:href="#DejaVuSans-Bold-65" x="240.332031"/>
     <use xlink:href="#DejaVuSans-Bold-73" x="308.154297"/>
     <use xlink:href="#DejaVuSans-Bold-61" x="367.675781"/>
     <use xlink:href="#DejaVuSans-Bold-20" x="435.15625"/>
     <use xlink:href="#DejaVuSans-Bold-65" x="469.970703"/>
     <use xlink:href="#DejaVuSans-Bold-20" x="537.792969"/>
     <use xlink:href="#DejaVuSans-Bold-70" x="572.607422"/>
     <use xlink:href="#DejaVuSans-Bold-72" x="644.189453"/>
     <use xlink:href="#DejaVuSans-Bold-65" x="693.505859"/>
     <use xlink:href="#DejaVuSans-Bold-7a" x="761.328125"/>
     <use xlink:href="#DejaVuSans-Bold-61" x="819.53125"/>
     <use xlink:href="#DejaVuSans-Bold-6e" x="887.011719"/>
     <use xlink:href="#DejaVuSans-Bold-74" x="958.203125"/>
     <use xlink:href="#DejaVuSans-Bold-69" x="1006.005859"/>
     <use xlink:href="#DejaVuSans-Bold-6d" x="1040.283203"/>
     <use xlink:href="#DejaVuSans-Bold-69" x="1144.482422"/>
     <use xlink:href="#DejaVuSans-Bold-74" x="1178.759766"/>
    </g>
   </g>
   <g id="text_2">
    <!-- Next.js, React; ndërfaqe në shqip -->
    <g style="fill: #52514e" transform="translate(132.296672 49.241406) scale(0.063 -0.063)">
     <defs>
      <path id="DejaVuSans-4e" d="M 628 4666 
L 1478 4666 
L 3547 763 
L 3547 4666 
L 4159 4666 
L 4159 0 
L 3309 0 
L 1241 3903 
L 1241 0 
L 628 0 
L 628 4666 
z
" transform="scale(0.015625)"/>
      <path id="DejaVuSans-65" d="M 3597 1894 
L 3597 1613 
L 953 1613 
Q 991 1019 1311 708 
Q 1631 397 2203 397 
Q 2534 397 2845 478 
Q 3156 559 3463 722 
L 3463 178 
Q 3153 47 2828 -22 
Q 2503 -91 2169 -91 
Q 1331 -91 842 396 
Q 353 884 353 1716 
Q 353 2575 817 3079 
Q 1281 3584 2069 3584 
Q 2775 3584 3186 3129 
Q 3597 2675 3597 1894 
z
M 3022 2063 
Q 3016 2534 2758 2815 
Q 2500 3097 2075 3097 
Q 1594 3097 1305 2825 
Q 1016 2553 972 2059 
L 3022 2063 
z
" transform="scale(0.015625)"/>
      <path id="DejaVuSans-78" d="M 3513 3500 
L 2247 1797 
L 3578 0 
L 2900 0 
L 1881 1375 
L 863 0 
L 184 0 
L 1544 1831 
L 300 3500 
L 978 3500 
L 1906 2253 
L 2834 3500 
L 3513 3500 
z
" transform="scale(0.015625)"/>
      <path id="DejaVuSans-74" d="M 1172 4494 
L 1172 3500 
L 2356 3500 
L 2356 3053 
L 1172 3053 
L 1172 1153 
Q 1172 725 1289 603 
Q 1406 481 1766 481 
L 2356 481 
L 2356 0 
L 1766 0 
Q 1100 0 847 248 
Q 594 497 594 1153 
L 594 3053 
L 172 3053 
L 172 3500 
L 594 3500 
L 594 4494 
L 1172 4494 
z
" transform="scale(0.015625)"/>
      <path id="DejaVuSans-2e" d="M 684 794 
L 1344 794 
L 1344 0 
L 684 0 
L 684 794 
z
" transform="scale(0.015625)"/>
      <path id="DejaVuSans-6a" d="M 603 3500 
L 1178 3500 
L 1178 -63 
Q 1178 -731 923 -1031 
Q 669 -1331 103 -1331 
L -116 -1331 
L -116 -844 
L 38 -844 
Q 366 -844 484 -692 
Q 603 -541 603 -63 
L 603 3500 
z
M 603 4863 
L 1178 4863 
L 1178 4134 
L 603 4134 
L 603 4863 
z
" transform="scale(0.015625)"/>
      <path id="DejaVuSans-73" d="M 2834 3397 
L 2834 2853 
Q 2591 2978 2328 3040 
Q 2066 3103 1784 3103 
Q 1356 3103 1142 2972 
Q 928 2841 928 2578 
Q 928 2378 1081 2264 
Q 1234 2150 1697 2047 
L 1894 2003 
Q 2506 1872 2764 1633 
Q 3022 1394 3022 966 
Q 3022 478 2636 193 
Q 2250 -91 1575 -91 
Q 1294 -91 989 -36 
Q 684 19 347 128 
L 347 722 
Q 666 556 975 473 
Q 1284 391 1588 391 
Q 1994 391 2212 530 
Q 2431 669 2431 922 
Q 2431 1156 2273 1281 
Q 2116 1406 1581 1522 
L 1381 1569 
Q 847 1681 609 1914 
Q 372 2147 372 2553 
Q 372 3047 722 3315 
Q 1072 3584 1716 3584 
Q 2034 3584 2315 3537 
Q 2597 3491 2834 3397 
z
" transform="scale(0.015625)"/>
      <path id="DejaVuSans-2c" d="M 750 794 
L 1409 794 
L 1409 256 
L 897 -744 
L 494 -744 
L 750 256 
L 750 794 
z
" transform="scale(0.015625)"/>
      <path id="DejaVuSans-20" transform="scale(0.015625)"/>
      <path id="DejaVuSans-52" d="M 2841 2188 
Q 3044 2119 3236 1894 
Q 3428 1669 3622 1275 
L 4263 0 
L 3584 0 
L 2988 1197 
Q 2756 1666 2539 1819 
Q 2322 1972 1947 1972 
L 1259 1972 
L 1259 0 
L 628 0 
L 628 4666 
L 2053 4666 
Q 2853 4666 3247 4331 
Q 3641 3997 3641 3322 
Q 3641 2881 3436 2590 
Q 3231 2300 2841 2188 
z
M 1259 4147 
L 1259 2491 
L 2053 2491 
Q 2509 2491 2742 2702 
Q 2975 2913 2975 3322 
Q 2975 3731 2742 3939 
Q 2509 4147 2053 4147 
L 1259 4147 
z
" transform="scale(0.015625)"/>
      <path id="DejaVuSans-61" d="M 2194 1759 
Q 1497 1759 1228 1600 
Q 959 1441 959 1056 
Q 959 750 1161 570 
Q 1363 391 1709 391 
Q 2188 391 2477 730 
Q 2766 1069 2766 1631 
L 2766 1759 
L 2194 1759 
z
M 3341 1997 
L 3341 0 
L 2766 0 
L 2766 531 
Q 2569 213 2275 61 
Q 1981 -91 1556 -91 
Q 1019 -91 701 211 
Q 384 513 384 1019 
Q 384 1609 779 1909 
Q 1175 2209 1959 2209 
L 2766 2209 
L 2766 2266 
Q 2766 2663 2505 2880 
Q 2244 3097 1772 3097 
Q 1472 3097 1187 3025 
Q 903 2953 641 2809 
L 641 3341 
Q 956 3463 1253 3523 
Q 1550 3584 1831 3584 
Q 2591 3584 2966 3190 
Q 3341 2797 3341 1997 
z
" transform="scale(0.015625)"/>
      <path id="DejaVuSans-63" d="M 3122 3366 
L 3122 2828 
Q 2878 2963 2633 3030 
Q 2388 3097 2138 3097 
Q 1578 3097 1268 2742 
Q 959 2388 959 1747 
Q 959 1106 1268 751 
Q 1578 397 2138 397 
Q 2388 397 2633 464 
Q 2878 531 3122 666 
L 3122 134 
Q 2881 22 2623 -34 
Q 2366 -91 2075 -91 
Q 1284 -91 818 406 
Q 353 903 353 1747 
Q 353 2603 823 3093 
Q 1294 3584 2113 3584 
Q 2378 3584 2631 3529 
Q 2884 3475 3122 3366 
z
" transform="scale(0.015625)"/>
      <path id="DejaVuSans-3b" d="M 750 3309 
L 1409 3309 
L 1409 2516 
L 750 2516 
L 750 3309 
z
M 750 794 
L 1409 794 
L 1409 256 
L 897 -744 
L 494 -744 
L 750 256 
L 750 794 
z
" transform="scale(0.015625)"/>
      <path id="DejaVuSans-6e" d="M 3513 2113 
L 3513 0 
L 2938 0 
L 2938 2094 
Q 2938 2591 2744 2837 
Q 2550 3084 2163 3084 
Q 1697 3084 1428 2787 
Q 1159 2491 1159 1978 
L 1159 0 
L 581 0 
L 581 3500 
L 1159 3500 
L 1159 2956 
Q 1366 3272 1645 3428 
Q 1925 3584 2291 3584 
Q 2894 3584 3203 3211 
Q 3513 2838 3513 2113 
z
" transform="scale(0.015625)"/>
      <path id="DejaVuSans-64" d="M 2906 2969 
L 2906 4863 
L 3481 4863 
L 3481 0 
L 2906 0 
L 2906 525 
Q 2725 213 2448 61 
Q 2172 -91 1784 -91 
Q 1150 -91 751 415 
Q 353 922 353 1747 
Q 353 2572 751 3078 
Q 1150 3584 1784 3584 
Q 2172 3584 2448 3432 
Q 2725 3281 2906 2969 
z
M 947 1747 
Q 947 1113 1208 752 
Q 1469 391 1925 391 
Q 2381 391 2643 752 
Q 2906 1113 2906 1747 
Q 2906 2381 2643 2742 
Q 2381 3103 1925 3103 
Q 1469 3103 1208 2742 
Q 947 2381 947 1747 
z
" transform="scale(0.015625)"/>
      <path id="DejaVuSans-eb" d="M 3597 1894 
L 3597 1613 
L 953 1613 
Q 991 1019 1311 708 
Q 1631 397 2203 397 
Q 2534 397 2845 478 
Q 3156 559 3463 722 
L 3463 178 
Q 3153 47 2828 -22 
Q 2503 -91 2169 -91 
Q 1331 -91 842 396 
Q 353 884 353 1716 
Q 353 2575 817 3079 
Q 1281 3584 2069 3584 
Q 2775 3584 3186 3129 
Q 3597 2675 3597 1894 
z
M 3022 2063 
Q 3016 2534 2758 2815 
Q 2500 3097 2075 3097 
Q 1594 3097 1305 2825 
Q 1016 2553 972 2059 
L 3022 2063 
z
M 2326 4850 
L 2960 4850 
L 2960 4219 
L 2326 4219 
L 2326 4850 
z
M 1104 4850 
L 1738 4850 
L 1738 4219 
L 1104 4219 
L 1104 4850 
z
" transform="scale(0.015625)"/>
      <path id="DejaVuSans-72" d="M 2631 2963 
Q 2534 3019 2420 3045 
Q 2306 3072 2169 3072 
Q 1681 3072 1420 2755 
Q 1159 2438 1159 1844 
L 1159 0 
L 581 0 
L 581 3500 
L 1159 3500 
L 1159 2956 
Q 1341 3275 1631 3429 
Q 1922 3584 2338 3584 
Q 2397 3584 2469 3576 
Q 2541 3569 2628 3553 
L 2631 2963 
z
" transform="scale(0.015625)"/>
      <path id="DejaVuSans-66" d="M 2375 4863 
L 2375 4384 
L 1825 4384 
Q 1516 4384 1395 4259 
Q 1275 4134 1275 3809 
L 1275 3500 
L 2222 3500 
L 2222 3053 
L 1275 3053 
L 1275 0 
L 697 0 
L 697 3053 
L 147 3053 
L 147 3500 
L 697 3500 
L 697 3744 
Q 697 4328 969 4595 
Q 1241 4863 1831 4863 
L 2375 4863 
z
" transform="scale(0.015625)"/>
      <path id="DejaVuSans-71" d="M 947 1747 
Q 947 1113 1208 752 
Q 1469 391 1925 391 
Q 2381 391 2643 752 
Q 2906 1113 2906 1747 
Q 2906 2381 2643 2742 
Q 2381 3103 1925 3103 
Q 1469 3103 1208 2742 
Q 947 2381 947 1747 
z
M 2906 525 
Q 2725 213 2448 61 
Q 2172 -91 1784 -91 
Q 1150 -91 751 415 
Q 353 922 353 1747 
Q 353 2572 751 3078 
Q 1150 3584 1784 3584 
Q 2172 3584 2448 3432 
Q 2725 3281 2906 2969 
L 2906 3500 
L 3481 3500 
L 3481 -1331 
L 2906 -1331 
L 2906 525 
z
" transform="scale(0.015625)"/>
      <path id="DejaVuSans-68" d="M 3513 2113 
L 3513 0 
L 2938 0 
L 2938 2094 
Q 2938 2591 2744 2837 
Q 2550 3084 2163 3084 
Q 1697 3084 1428 2787 
Q 1159 2491 1159 1978 
L 1159 0 
L 581 0 
L 581 4863 
L 1159 4863 
L 1159 2956 
Q 1366 3272 1645 3428 
Q 1925 3584 2291 3584 
Q 2894 3584 3203 3211 
Q 3513 2838 3513 2113 
z
" transform="scale(0.015625)"/>
      <path id="DejaVuSans-69" d="M 603 3500 
L 1178 3500 
L 1178 0 
L 603 0 
L 603 3500 
z
M 603 4863 
L 1178 4863 
L 1178 4134 
L 603 4134 
L 603 4863 
z
" transform="scale(0.015625)"/>
      <path id="DejaVuSans-70" d="M 1159 525 
L 1159 -1331 
L 581 -1331 
L 581 3500 
L 1159 3500 
L 1159 2969 
Q 1341 3281 1617 3432 
Q 1894 3584 2278 3584 
Q 2916 3584 3314 3078 
Q 3713 2572 3713 1747 
Q 3713 922 3314 415 
Q 2916 -91 2278 -91 
Q 1894 -91 1617 61 
Q 1341 213 1159 525 
z
M 3116 1747 
Q 3116 2381 2855 2742 
Q 2594 3103 2138 3103 
Q 1681 3103 1420 2742 
Q 1159 2381 1159 1747 
Q 1159 1113 1420 752 
Q 1681 391 2138 391 
Q 2594 391 2855 752 
Q 3116 1113 3116 1747 
z
" transform="scale(0.015625)"/>
     </defs>
     <use xlink:href="#DejaVuSans-4e"/>
     <use xlink:href="#DejaVuSans-65" x="74.804688"/>
     <use xlink:href="#DejaVuSans-78" x="134.578125"/>
     <use xlink:href="#DejaVuSans-74" x="193.757812"/>
     <use xlink:href="#DejaVuSans-2e" x="232.966797"/>
     <use xlink:href="#DejaVuSans-6a" x="264.753906"/>
     <use xlink:href="#DejaVuSans-73" x="292.537109"/>
     <use xlink:href="#DejaVuSans-2c" x="344.636719"/>
     <use xlink:href="#DejaVuSans-20" x="376.423828"/>
     <use xlink:href="#DejaVuSans-52" x="408.210938"/>
     <use xlink:href="#DejaVuSans-65" x="473.193359"/>
     <use xlink:href="#DejaVuSans-61" x="534.716797"/>
     <use xlink:href="#DejaVuSans-63" x="595.996094"/>
     <use xlink:href="#DejaVuSans-74" x="650.976562"/>
     <use xlink:href="#DejaVuSans-3b" x="690.185547"/>
     <use xlink:href="#DejaVuSans-20" x="723.876953"/>
     <use xlink:href="#DejaVuSans-6e" x="755.664062"/>
     <use xlink:href="#DejaVuSans-64" x="819.042969"/>
     <use xlink:href="#DejaVuSans-eb" x="882.519531"/>
     <use xlink:href="#DejaVuSans-72" x="944.042969"/>
     <use xlink:href="#DejaVuSans-66" x="985.15625"/>
     <use xlink:href="#DejaVuSans-61" x="1020.361328"/>
     <use xlink:href="#DejaVuSans-71" x="1081.640625"/>
     <use xlink:href="#DejaVuSans-65" x="1145.117188"/>
     <use xlink:href="#DejaVuSans-20" x="1206.640625"/>
     <use xlink:href="#DejaVuSans-6e" x="1238.427734"/>
     <use xlink:href="#DejaVuSans-eb" x="1301.806641"/>
     <use xlink:href="#DejaVuSans-20" x="1363.330078"/>
     <use xlink:href="#DejaVuSans-73" x="1395.117188"/>
     <use xlink:href="#DejaVuSans-68" x="1447.216797"/>
     <use xlink:href="#DejaVuSans-71" x="1510.595703"/>
     <use xlink:href="#DejaVuSans-69" x="1574.072266"/>
     <use xlink:href="#DejaVuSans-70" x="1601.855469"/>
    </g>
   </g>
   <g id="text_3">
    <!-- Shtresa e API-së -->
    <g style="fill: #0b0b0b" transform="translate(150.369859 99.446537) scale(0.074 -0.074)">
     <defs>
      <path id="DejaVuSans-Bold-41" d="M 3419 850 
L 1538 850 
L 1241 0 
L 31 0 
L 1759 4666 
L 3194 4666 
L 4922 0 
L 3713 0 
L 3419 850 
z
M 1838 1716 
L 3116 1716 
L 2478 3572 
L 1838 1716 
z
" transform="scale(0.015625)"/>
      <path id="DejaVuSans-Bold-50" d="M 588 4666 
L 2584 4666 
Q 3475 4666 3951 4270 
Q 4428 3875 4428 3144 
Q 4428 2409 3951 2014 
Q 3475 1619 2584 1619 
L 1791 1619 
L 1791 0 
L 588 0 
L 588 4666 
z
M 1791 3794 
L 1791 2491 
L 2456 2491 
Q 2806 2491 2997 2661 
Q 3188 2831 3188 3144 
Q 3188 3456 2997 3625 
Q 2806 3794 2456 3794 
L 1791 3794 
z
" transform="scale(0.015625)"/>
      <path id="DejaVuSans-Bold-49" d="M 588 4666 
L 1791 4666 
L 1791 0 
L 588 0 
L 588 4666 
z
" transform="scale(0.015625)"/>
      <path id="DejaVuSans-Bold-2d" d="M 347 2297 
L 2309 2297 
L 2309 1388 
L 347 1388 
L 347 2297 
z
" transform="scale(0.015625)"/>
      <path id="DejaVuSans-Bold-eb" d="M 4031 1759 
L 4031 1441 
L 1416 1441 
Q 1456 1047 1700 850 
Q 1944 653 2381 653 
Q 2734 653 3104 758 
Q 3475 863 3866 1075 
L 3866 213 
Q 3469 63 3072 -14 
Q 2675 -91 2278 -91 
Q 1328 -91 801 392 
Q 275 875 275 1747 
Q 275 2603 792 3093 
Q 1309 3584 2216 3584 
Q 3041 3584 3536 3087 
Q 4031 2591 4031 1759 
z
M 2881 2131 
Q 2881 2450 2695 2645 
Q 2509 2841 2209 2841 
Q 1884 2841 1681 2658 
Q 1478 2475 1428 2131 
L 2881 2131 
z
M 1296 4953 
L 2030 4953 
L 2030 4184 
L 1296 4184 
L 1296 4953 
z
M 2530 4953 
L 3264 4953 
L 3264 4184 
L 2530 4184 
L 2530 4953 
z
" transform="scale(0.015625)"/>
     </defs>
     <use xlink:href="#DejaVuSans-Bold-53"/>
     <use xlink:href="#DejaVuSans-Bold-68" x="72.021484"/>
     <use xlink:href="#DejaVuSans-Bold-74" x="143.212891"/>
     <use xlink:href="#DejaVuSans-Bold-72" x="191.015625"/>
     <use xlink:href="#DejaVuSans-Bold-65" x="240.332031"/>
     <use xlink:href="#DejaVuSans-Bold-73" x="308.154297"/>
     <use xlink:href="#DejaVuSans-Bold-61" x="367.675781"/>
     <use xlink:href="#DejaVuSans-Bold-20" x="435.15625"/>
     <use xlink:href="#DejaVuSans-Bold-65" x="469.970703"/>
     <use xlink:href="#DejaVuSans-Bold-20" x="537.792969"/>
     <use xlink:href="#DejaVuSans-Bold-41" x="572.607422"/>
     <use xlink:href="#DejaVuSans-Bold-50" x="650"/>
     <use xlink:href="#DejaVuSans-Bold-49" x="723.291016"/>
     <use xlink:href="#DejaVuSans-Bold-2d" x="760.498047"/>
     <use xlink:href="#DejaVuSans-Bold-73" x="802.001953"/>
     <use xlink:href="#DejaVuSans-Bold-eb" x="861.523438"/>
    </g>
   </g>
   <g id="text_4">
    <!-- FastAPI, REST; hyrje me JWT dhe seanca të revokueshme -->
    <g style="fill: #52514e" transform="translate(94.790016 111.618406) scale(0.063 -0.063)">
     <defs>
      <path id="DejaVuSans-46" d="M 628 4666 
L 3309 4666 
L 3309 4134 
L 1259 4134 
L 1259 2759 
L 3109 2759 
L 3109 2228 
L 1259 2228 
L 1259 0 
L 628 0 
L 628 4666 
z
" transform="scale(0.015625)"/>
      <path id="DejaVuSans-41" d="M 2188 4044 
L 1331 1722 
L 3047 1722 
L 2188 4044 
z
M 1831 4666 
L 2547 4666 
L 4325 0 
L 3669 0 
L 3244 1197 
L 1141 1197 
L 716 0 
L 50 0 
L 1831 4666 
z
" transform="scale(0.015625)"/>
      <path id="DejaVuSans-50" d="M 1259 4147 
L 1259 2394 
L 2053 2394 
Q 2494 2394 2734 2622 
Q 2975 2850 2975 3272 
Q 2975 3691 2734 3919 
Q 2494 4147 2053 4147 
L 1259 4147 
z
M 628 4666 
L 2053 4666 
Q 2838 4666 3239 4311 
Q 3641 3956 3641 3272 
Q 3641 2581 3239 2228 
Q 2838 1875 2053 1875 
L 1259 1875 
L 1259 0 
L 628 0 
L 628 4666 
z
" transform="scale(0.015625)"/>
      <path id="DejaVuSans-49" d="M 628 4666 
L 1259 4666 
L 1259 0 
L 628 0 
L 628 4666 
z
" transform="scale(0.015625)"/>
      <path id="DejaVuSans-45" d="M 628 4666 
L 3578 4666 
L 3578 4134 
L 1259 4134 
L 1259 2753 
L 3481 2753 
L 3481 2222 
L 1259 2222 
L 1259 531 
L 3634 531 
L 3634 0 
L 628 0 
L 628 4666 
z
" transform="scale(0.015625)"/>
      <path id="DejaVuSans-53" d="M 3425 4513 
L 3425 3897 
Q 3066 4069 2747 4153 
Q 2428 4238 2131 4238 
Q 1616 4238 1336 4038 
Q 1056 3838 1056 3469 
Q 1056 3159 1242 3001 
Q 1428 2844 1947 2747 
L 2328 2669 
Q 3034 2534 3370 2195 
Q 3706 1856 3706 1288 
Q 3706 609 3251 259 
Q 2797 -91 1919 -91 
Q 1588 -91 1214 -16 
Q 841 59 441 206 
L 441 856 
Q 825 641 1194 531 
Q 1563 422 1919 422 
Q 2459 422 2753 634 
Q 3047 847 3047 1241 
Q 3047 1584 2836 1778 
Q 2625 1972 2144 2069 
L 1759 2144 
Q 1053 2284 737 2584 
Q 422 2884 422 3419 
Q 422 4038 858 4394 
Q 1294 4750 2059 4750 
Q 2388 4750 2728 4690 
Q 3069 4631 3425 4513 
z
" transform="scale(0.015625)"/>
      <path id="DejaVuSans-54" d="M -19 4666 
L 3928 4666 
L 3928 4134 
L 2272 4134 
L 2272 0 
L 1638 0 
L 1638 4134 
L -19 4134 
L -19 4666 
z
" transform="scale(0.015625)"/>
      <path id="DejaVuSans-79" d="M 2059 -325 
Q 1816 -950 1584 -1140 
Q 1353 -1331 966 -1331 
L 506 -1331 
L 506 -850 
L 844 -850 
Q 1081 -850 1212 -737 
Q 1344 -625 1503 -206 
L 1606 56 
L 191 3500 
L 800 3500 
L 1894 763 
L 2988 3500 
L 3597 3500 
L 2059 -325 
z
" transform="scale(0.015625)"/>
      <path id="DejaVuSans-6d" d="M 3328 2828 
Q 3544 3216 3844 3400 
Q 4144 3584 4550 3584 
Q 5097 3584 5394 3201 
Q 5691 2819 5691 2113 
L 5691 0 
L 5113 0 
L 5113 2094 
Q 5113 2597 4934 2840 
Q 4756 3084 4391 3084 
Q 3944 3084 3684 2787 
Q 3425 2491 3425 1978 
L 3425 0 
L 2847 0 
L 2847 2094 
Q 2847 2600 2669 2842 
Q 2491 3084 2119 3084 
Q 1678 3084 1418 2786 
Q 1159 2488 1159 1978 
L 1159 0 
L 581 0 
L 581 3500 
L 1159 3500 
L 1159 2956 
Q 1356 3278 1631 3431 
Q 1906 3584 2284 3584 
Q 2666 3584 2933 3390 
Q 3200 3197 3328 2828 
z
" transform="scale(0.015625)"/>
      <path id="DejaVuSans-4a" d="M 628 4666 
L 1259 4666 
L 1259 325 
Q 1259 -519 939 -900 
Q 619 -1281 -91 -1281 
L -331 -1281 
L -331 -750 
L -134 -750 
Q 284 -750 456 -515 
Q 628 -281 628 325 
L 628 4666 
z
" transform="scale(0.015625)"/>
      <path id="DejaVuSans-57" d="M 213 4666 
L 850 4666 
L 1831 722 
L 2809 4666 
L 3519 4666 
L 4500 722 
L 5478 4666 
L 6119 4666 
L 4947 0 
L 4153 0 
L 3169 4050 
L 2175 0 
L 1381 0 
L 213 4666 
z
" transform="scale(0.015625)"/>
      <path id="DejaVuSans-76" d="M 191 3500 
L 800 3500 
L 1894 563 
L 2988 3500 
L 3597 3500 
L 2284 0 
L 1503 0 
L 191 3500 
z
" transform="scale(0.015625)"/>
      <path id="DejaVuSans-6f" d="M 1959 3097 
Q 1497 3097 1228 2736 
Q 959 2375 959 1747 
Q 959 1119 1226 758 
Q 1494 397 1959 397 
Q 2419 397 2687 759 
Q 2956 1122 2956 1747 
Q 2956 2369 2687 2733 
Q 2419 3097 1959 3097 
z
M 1959 3584 
Q 2709 3584 3137 3096 
Q 3566 2609 3566 1747 
Q 3566 888 3137 398 
Q 2709 -91 1959 -91 
Q 1206 -91 779 398 
Q 353 888 353 1747 
Q 353 2609 779 3096 
Q 1206 3584 1959 3584 
z
" transform="scale(0.015625)"/>
      <path id="DejaVuSans-6b" d="M 581 4863 
L 1159 4863 
L 1159 1991 
L 2875 3500 
L 3609 3500 
L 1753 1863 
L 3688 0 
L 2938 0 
L 1159 1709 
L 1159 0 
L 581 0 
L 581 4863 
z
" transform="scale(0.015625)"/>
      <path id="DejaVuSans-75" d="M 544 1381 
L 544 3500 
L 1119 3500 
L 1119 1403 
Q 1119 906 1312 657 
Q 1506 409 1894 409 
Q 2359 409 2629 706 
Q 2900 1003 2900 1516 
L 2900 3500 
L 3475 3500 
L 3475 0 
L 2900 0 
L 2900 538 
Q 2691 219 2414 64 
Q 2138 -91 1772 -91 
Q 1169 -91 856 284 
Q 544 659 544 1381 
z
M 1991 3584 
L 1991 3584 
z
" transform="scale(0.015625)"/>
     </defs>
     <use xlink:href="#DejaVuSans-46"/>
     <use xlink:href="#DejaVuSans-61" x="48.394531"/>
     <use xlink:href="#DejaVuSans-73" x="109.673828"/>
     <use xlink:href="#DejaVuSans-74" x="161.773438"/>
     <use xlink:href="#DejaVuSans-41" x="200.982422"/>
     <use xlink:href="#DejaVuSans-50" x="269.390625"/>
     <use xlink:href="#DejaVuSans-49" x="329.693359"/>
     <use xlink:href="#DejaVuSans-2c" x="359.185547"/>
     <use xlink:href="#DejaVuSans-20" x="390.972656"/>
     <use xlink:href="#DejaVuSans-52" x="422.759766"/>
     <use xlink:href="#DejaVuSans-45" x="492.242188"/>
     <use xlink:href="#DejaVuSans-53" x="555.425781"/>
     <use xlink:href="#DejaVuSans-54" x="618.902344"/>
     <use xlink:href="#DejaVuSans-3b" x="679.986328"/>
     <use xlink:href="#DejaVuSans-20" x="713.677734"/>
     <use xlink:href="#DejaVuSans-68" x="745.464844"/>
     <use xlink:href="#DejaVuSans-79" x="808.84375"/>
     <use xlink:href="#DejaVuSans-72" x="868.023438"/>
     <use xlink:href="#DejaVuSans-6a" x="909.136719"/>
     <use xlink:href="#DejaVuSans-65" x="936.919922"/>
     <use xlink:href="#DejaVuSans-20" x="998.443359"/>
     <use xlink:href="#DejaVuSans-6d" x="1030.230469"/>
     <use xlink:href="#DejaVuSans-65" x="1127.642578"/>
     <use xlink:href="#DejaVuSans-20" x="1189.166016"/>
     <use xlink:href="#DejaVuSans-4a" x="1220.953125"/>
     <use xlink:href="#DejaVuSans-57" x="1250.445312"/>
     <use xlink:href="#DejaVuSans-54" x="1349.322266"/>
     <use xlink:href="#DejaVuSans-20" x="1410.40625"/>
     <use xlink:href="#DejaVuSans-64" x="1442.193359"/>
     <use xlink:href="#DejaVuSans-68" x="1505.669922"/>
     <use xlink:href="#DejaVuSans-65" x="1569.048828"/>
     <use xlink:href="#DejaVuSans-20" x="1630.572266"/>
     <use xlink:href="#DejaVuSans-73" x="1662.359375"/>
     <use xlink:href="#DejaVuSans-65" x="1714.458984"/>
     <use xlink:href="#DejaVuSans-61" x="1775.982422"/>
     <use xlink:href="#DejaVuSans-6e" x="1837.261719"/>
     <use xlink:href="#DejaVuSans-63" x="1900.640625"/>
     <use xlink:href="#DejaVuSans-61" x="1955.621094"/>
     <use xlink:href="#DejaVuSans-20" x="2016.900391"/>
     <use xlink:href="#DejaVuSans-74" x="2048.6875"/>
     <use xlink:href="#DejaVuSans-eb" x="2087.896484"/>
     <use xlink:href="#DejaVuSans-20" x="2149.419922"/>
     <use xlink:href="#DejaVuSans-72" x="2181.207031"/>
     <use xlink:href="#DejaVuSans-65" x="2220.070312"/>
     <use xlink:href="#DejaVuSans-76" x="2281.59375"/>
     <use xlink:href="#DejaVuSans-6f" x="2340.773438"/>
     <use xlink:href="#DejaVuSans-6b" x="2401.955078"/>
     <use xlink:href="#DejaVuSans-75" x="2456.740234"/>
     <use xlink:href="#DejaVuSans-65" x="2520.119141"/>
     <use xlink:href="#DejaVuSans-73" x="2581.642578"/>
     <use xlink:href="#DejaVuSans-68" x="2633.742188"/>
     <use xlink:href="#DejaVuSans-6d" x="2697.121094"/>
     <use xlink:href="#DejaVuSans-65" x="2794.533203"/>
    </g>
   </g>
   <g id="text_5">
    <!-- Shtresa e orkestrimit -->
    <g style="fill: #0b0b0b" transform="translate(140.3735 161.331087) scale(0.074 -0.074)">
     <defs>
      <path id="DejaVuSans-Bold-6f" d="M 2203 2784 
Q 1831 2784 1636 2517 
Q 1441 2250 1441 1747 
Q 1441 1244 1636 976 
Q 1831 709 2203 709 
Q 2569 709 2762 976 
Q 2956 1244 2956 1747 
Q 2956 2250 2762 2517 
Q 2569 2784 2203 2784 
z
M 2203 3584 
Q 3106 3584 3614 3096 
Q 4122 2609 4122 1747 
Q 4122 884 3614 396 
Q 3106 -91 2203 -91 
Q 1297 -91 786 396 
Q 275 884 275 1747 
Q 275 2609 786 3096 
Q 1297 3584 2203 3584 
z
" transform="scale(0.015625)"/>
      <path id="DejaVuSans-Bold-6b" d="M 538 4863 
L 1656 4863 
L 1656 2216 
L 2944 3500 
L 4244 3500 
L 2534 1894 
L 4378 0 
L 3022 0 
L 1656 1459 
L 1656 0 
L 538 0 
L 538 4863 
z
" transform="scale(0.015625)"/>
     </defs>
     <use xlink:href="#DejaVuSans-Bold-53"/>
     <use xlink:href="#DejaVuSans-Bold-68" x="72.021484"/>
     <use xlink:href="#DejaVuSans-Bold-74" x="143.212891"/>
     <use xlink:href="#DejaVuSans-Bold-72" x="191.015625"/>
     <use xlink:href="#DejaVuSans-Bold-65" x="240.332031"/>
     <use xlink:href="#DejaVuSans-Bold-73" x="308.154297"/>
     <use xlink:href="#DejaVuSans-Bold-61" x="367.675781"/>
     <use xlink:href="#DejaVuSans-Bold-20" x="435.15625"/>
     <use xlink:href="#DejaVuSans-Bold-65" x="469.970703"/>
     <use xlink:href="#DejaVuSans-Bold-20" x="537.792969"/>
     <use xlink:href="#DejaVuSans-Bold-6f" x="572.607422"/>
     <use xlink:href="#DejaVuSans-Bold-72" x="641.308594"/>
     <use xlink:href="#DejaVuSans-Bold-6b" x="690.625"/>
     <use xlink:href="#DejaVuSans-Bold-65" x="754.503906"/>
     <use xlink:href="#DejaVuSans-Bold-73" x="822.326172"/>
     <use xlink:href="#DejaVuSans-Bold-74" x="881.847656"/>
     <use xlink:href="#DejaVuSans-Bold-72" x="929.650391"/>
     <use xlink:href="#DejaVuSans-Bold-69" x="978.966797"/>
     <use xlink:href="#DejaVuSans-Bold-6d" x="1013.244141"/>
     <use xlink:href="#DejaVuSans-Bold-69" x="1117.443359"/>
     <use xlink:href="#DejaVuSans-Bold-74" x="1151.720703"/>
    </g>
   </g>
   <g id="text_6">
    <!-- arq mbi Redis; makina e gjendjeve (Figura 6), -->
    <g style="fill: #52514e" transform="translate(112.940906 173.751095) scale(0.063 -0.063)">
     <defs>
      <path id="DejaVuSans-62" d="M 3116 1747 
Q 3116 2381 2855 2742 
Q 2594 3103 2138 3103 
Q 1681 3103 1420 2742 
Q 1159 2381 1159 1747 
Q 1159 1113 1420 752 
Q 1681 391 2138 391 
Q 2594 391 2855 752 
Q 3116 1113 3116 1747 
z
M 1159 2969 
Q 1341 3281 1617 3432 
Q 1894 3584 2278 3584 
Q 2916 3584 3314 3078 
Q 3713 2572 3713 1747 
Q 3713 922 3314 415 
Q 2916 -91 2278 -91 
Q 1894 -91 1617 61 
Q 1341 213 1159 525 
L 1159 0 
L 581 0 
L 581 4863 
L 1159 4863 
L 1159 2969 
z
" transform="scale(0.015625)"/>
      <path id="DejaVuSans-67" d="M 2906 1791 
Q 2906 2416 2648 2759 
Q 2391 3103 1925 3103 
Q 1463 3103 1205 2759 
Q 947 2416 947 1791 
Q 947 1169 1205 825 
Q 1463 481 1925 481 
Q 2391 481 2648 825 
Q 2906 1169 2906 1791 
z
M 3481 434 
Q 3481 -459 3084 -895 
Q 2688 -1331 1869 -1331 
Q 1566 -1331 1297 -1286 
Q 1028 -1241 775 -1147 
L 775 -588 
Q 1028 -725 1275 -790 
Q 1522 -856 1778 -856 
Q 2344 -856 2625 -561 
Q 2906 -266 2906 331 
L 2906 616 
Q 2728 306 2450 153 
Q 2172 0 1784 0 
Q 1141 0 747 490 
Q 353 981 353 1791 
Q 353 2603 747 3093 
Q 1141 3584 1784 3584 
Q 2172 3584 2450 3431 
Q 2728 3278 2906 2969 
L 2906 3500 
L 3481 3500 
L 3481 434 
z
" transform="scale(0.015625)"/>
      <path id="DejaVuSans-28" d="M 1984 4856 
Q 1566 4138 1362 3434 
Q 1159 2731 1159 2009 
Q 1159 1288 1364 580 
Q 1569 -128 1984 -844 
L 1484 -844 
Q 1016 -109 783 600 
Q 550 1309 550 2009 
Q 550 2706 781 3412 
Q 1013 4119 1484 4856 
L 1984 4856 
z
" transform="scale(0.015625)"/>
      <path id="DejaVuSans-36" d="M 2113 2584 
Q 1688 2584 1439 2293 
Q 1191 2003 1191 1497 
Q 1191 994 1439 701 
Q 1688 409 2113 409 
Q 2538 409 2786 701 
Q 3034 994 3034 1497 
Q 3034 2003 2786 2293 
Q 2538 2584 2113 2584 
z
M 3366 4563 
L 3366 3988 
Q 3128 4100 2886 4159 
Q 2644 4219 2406 4219 
Q 1781 4219 1451 3797 
Q 1122 3375 1075 2522 
Q 1259 2794 1537 2939 
Q 1816 3084 2150 3084 
Q 2853 3084 3261 2657 
Q 3669 2231 3669 1497 
Q 3669 778 3244 343 
Q 2819 -91 2113 -91 
Q 1303 -91 875 529 
Q 447 1150 447 2328 
Q 447 3434 972 4092 
Q 1497 4750 2381 4750 
Q 2619 4750 2861 4703 
Q 3103 4656 3366 4563 
z
" transform="scale(0.015625)"/>
      <path id="DejaVuSans-29" d="M 513 4856 
L 1013 4856 
Q 1481 4119 1714 3412 
Q 1947 2706 1947 2009 
Q 1947 1309 1714 600 
Q 1481 -109 1013 -844 
L 513 -844 
Q 928 -128 1133 580 
Q 1338 1288 1338 2009 
Q 1338 2731 1133 3434 
Q 928 4138 513 4856 
z
" transform="scale(0.015625)"/>
     </defs>
     <use xlink:href="#DejaVuSans-61"/>
     <use xlink:href="#DejaVuSans-72" x="61.279297"/>
     <use xlink:href="#DejaVuSans-71" x="100.642578"/>
     <use xlink:href="#DejaVuSans-20" x="164.119141"/>
     <use xlink:href="#DejaVuSans-6d" x="195.90625"/>
     <use xlink:href="#DejaVuSans-62" x="293.318359"/>
     <use xlink:href="#DejaVuSans-69" x="356.794922"/>
     <use xlink:href="#DejaVuSans-20" x="384.578125"/>
     <use xlink:href="#DejaVuSans-52" x="416.365234"/>
     <use xlink:href="#DejaVuSans-65" x="481.347656"/>
     <use xlink:href="#DejaVuSans-64" x="542.871094"/>
     <use xlink:href="#DejaVuSans-69" x="606.347656"/>
     <use xlink:href="#DejaVuSans-73" x="634.130859"/>
     <use xlink:href="#DejaVuSans-3b" x="686.230469"/>
     <use xlink:href="#DejaVuSans-20" x="719.921875"/>
     <use xlink:href="#DejaVuSans-6d" x="751.708984"/>
     <use xlink:href="#DejaVuSans-61" x="849.121094"/>
     <use xlink:href="#DejaVuSans-6b" x="910.400391"/>
     <use xlink:href="#DejaVuSans-69" x="968.310547"/>
     <use xlink:href="#DejaVuSans-6e" x="996.09375"/>
     <use xlink:href="#DejaVuSans-61" x="1059.472656"/>
     <use xlink:href="#DejaVuSans-20" x="1120.751953"/>
     <use xlink:href="#DejaVuSans-65" x="1152.539062"/>
     <use xlink:href="#DejaVuSans-20" x="1214.0625"/>
     <use xlink:href="#DejaVuSans-67" x="1245.849609"/>
     <use xlink:href="#DejaVuSans-6a" x="1309.326172"/>
     <use xlink:href="#DejaVuSans-65" x="1337.109375"/>
     <use xlink:href="#DejaVuSans-6e" x="1398.632812"/>
     <use xlink:href="#DejaVuSans-64" x="1462.011719"/>
     <use xlink:href="#DejaVuSans-6a" x="1525.488281"/>
     <use xlink:href="#DejaVuSans-65" x="1553.271484"/>
     <use xlink:href="#DejaVuSans-76" x="1614.794922"/>
     <use xlink:href="#DejaVuSans-65" x="1673.974609"/>
     <use xlink:href="#DejaVuSans-20" x="1735.498047"/>
     <use xlink:href="#DejaVuSans-28" x="1767.285156"/>
     <use xlink:href="#DejaVuSans-46" x="1806.298828"/>
     <use xlink:href="#DejaVuSans-69" x="1856.568359"/>
     <use xlink:href="#DejaVuSans-67" x="1884.351562"/>
     <use xlink:href="#DejaVuSans-75" x="1947.828125"/>
     <use xlink:href="#DejaVuSans-72" x="2011.207031"/>
     <use xlink:href="#DejaVuSans-61" x="2052.320312"/>
     <use xlink:href="#DejaVuSans-20" x="2113.599609"/>
     <use xlink:href="#DejaVuSans-36" x="2145.386719"/>
     <use xlink:href="#DejaVuSans-29" x="2209.009766"/>
     <use xlink:href="#DejaVuSans-2c" x="2248.023438"/>
    </g>
    <!-- rigjenerimi dhe shablloni rezervë -->
    <g style="fill: #52514e" transform="translate(132.818391 180.805717) scale(0.063 -0.063)">
     <defs>
      <path id="DejaVuSans-6c" d="M 603 4863 
L 1178 4863 
L 1178 0 
L 603 0 
L 603 4863 
z
" transform="scale(0.015625)"/>
      <path id="DejaVuSans-7a" d="M 353 3500 
L 3084 3500 
L 3084 2975 
L 922 459 
L 3084 459 
L 3084 0 
L 275 0 
L 275 525 
L 2438 3041 
L 353 3041 
L 353 3500 
z
" transform="scale(0.015625)"/>
     </defs>
     <use xlink:href="#DejaVuSans-72"/>
     <use xlink:href="#DejaVuSans-69" x="41.113281"/>
     <use xlink:href="#DejaVuSans-67" x="68.896484"/>
     <use xlink:href="#DejaVuSans-6a" x="132.373047"/>
     <use xlink:href="#DejaVuSans-65" x="160.15625"/>
     <use xlink:href="#DejaVuSans-6e" x="221.679688"/>
     <use xlink:href="#DejaVuSans-65" x="285.058594"/>
     <use xlink:href="#DejaVuSans-72" x="346.582031"/>
     <use xlink:href="#DejaVuSans-69" x="387.695312"/>
     <use xlink:href="#DejaVuSans-6d" x="415.478516"/>
     <use xlink:href="#DejaVuSans-69" x="512.890625"/>
     <use xlink:href="#DejaVuSans-20" x="540.673828"/>
     <use xlink:href="#DejaVuSans-64" x="572.460938"/>
     <use xlink:href="#DejaVuSans-68" x="635.9375"/>
     <use xlink:href="#DejaVuSans-65" x="699.316406"/>
     <use xlink:href="#DejaVuSans-20" x="760.839844"/>
     <use xlink:href="#DejaVuSans-73" x="792.626953"/>
     <use xlink:href="#DejaVuSans-68" x="844.726562"/>
     <use xlink:href="#DejaVuSans-61" x="908.105469"/>
     <use xlink:href="#DejaVuSans-62" x="969.384766"/>
     <use xlink:href="#DejaVuSans-6c" x="1032.861328"/>
     <use xlink:href="#DejaVuSans-6c" x="1060.644531"/>
     <use xlink:href="#DejaVuSans-6f" x="1088.427734"/>
     <use xlink:href="#DejaVuSans-6e" x="1149.609375"/>
     <use xlink:href="#DejaVuSans-69" x="1212.988281"/>
     <use xlink:href="#DejaVuSans-20" x="1240.771484"/>
     <use xlink:href="#DejaVuSans-72" x="1272.558594"/>
     <use xlink:href="#DejaVuSans-65" x="1311.421875"/>
     <use xlink:href="#DejaVuSans-7a" x="1372.945312"/>
     <use xlink:href="#DejaVuSans-65" x="1425.435547"/>
     <use xlink:href="#DejaVuSans-72" x="1486.958984"/>
     <use xlink:href="#DejaVuSans-76" x="1528.072266"/>
     <use xlink:href="#DejaVuSans-eb" x="1587.251953"/>
    </g>
   </g>
   <g id="text_7">
    <!-- Shtresa e bazimit (determinist) -->
    <g style="fill: #0b0b0b" transform="translate(119.18175 225.185438) scale(0.074 -0.074)">
     <defs>
      <path id="DejaVuSans-Bold-62" d="M 2400 722 
Q 2759 722 2948 984 
Q 3138 1247 3138 1747 
Q 3138 2247 2948 2509 
Q 2759 2772 2400 2772 
Q 2041 2772 1848 2508 
Q 1656 2244 1656 1747 
Q 1656 1250 1848 986 
Q 2041 722 2400 722 
z
M 1656 2988 
Q 1888 3294 2169 3439 
Q 2450 3584 2816 3584 
Q 3463 3584 3878 3070 
Q 4294 2556 4294 1747 
Q 4294 938 3878 423 
Q 3463 -91 2816 -91 
Q 2450 -91 2169 54 
Q 1888 200 1656 506 
L 1656 0 
L 538 0 
L 538 4863 
L 1656 4863 
L 1656 2988 
z
" transform="scale(0.015625)"/>
      <path id="DejaVuSans-Bold-28" d="M 2413 -844 
L 1484 -844 
Q 1006 -72 778 623 
Q 550 1319 550 2003 
Q 550 2688 779 3389 
Q 1009 4091 1484 4856 
L 2413 4856 
Q 2013 4116 1813 3408 
Q 1613 2700 1613 2009 
Q 1613 1319 1811 609 
Q 2009 -100 2413 -844 
z
" transform="scale(0.015625)"/>
      <path id="DejaVuSans-Bold-64" d="M 2919 2988 
L 2919 4863 
L 4044 4863 
L 4044 0 
L 2919 0 
L 2919 506 
Q 2688 197 2409 53 
Q 2131 -91 1766 -91 
Q 1119 -91 703 423 
Q 288 938 288 1747 
Q 288 2556 703 3070 
Q 1119 3584 1766 3584 
Q 2128 3584 2408 3439 
Q 2688 3294 2919 2988 
z
M 2181 722 
Q 2541 722 2730 984 
Q 2919 1247 2919 1747 
Q 2919 2247 2730 2509 
Q 2541 2772 2181 2772 
Q 1825 2772 1636 2509 
Q 1447 2247 1447 1747 
Q 1447 1247 1636 984 
Q 1825 722 2181 722 
z
" transform="scale(0.015625)"/>
      <path id="DejaVuSans-Bold-29" d="M 513 -844 
Q 913 -100 1113 609 
Q 1313 1319 1313 2009 
Q 1313 2700 1113 3408 
Q 913 4116 513 4856 
L 1441 4856 
Q 1916 4091 2145 3389 
Q 2375 2688 2375 2003 
Q 2375 1319 2147 623 
Q 1919 -72 1441 -844 
L 513 -844 
z
" transform="scale(0.015625)"/>
     </defs>
     <use xlink:href="#DejaVuSans-Bold-53"/>
     <use xlink:href="#DejaVuSans-Bold-68" x="72.021484"/>
     <use xlink:href="#DejaVuSans-Bold-74" x="143.212891"/>
     <use xlink:href="#DejaVuSans-Bold-72" x="191.015625"/>
     <use xlink:href="#DejaVuSans-Bold-65" x="240.332031"/>
     <use xlink:href="#DejaVuSans-Bold-73" x="308.154297"/>
     <use xlink:href="#DejaVuSans-Bold-61" x="367.675781"/>
     <use xlink:href="#DejaVuSans-Bold-20" x="435.15625"/>
     <use xlink:href="#DejaVuSans-Bold-65" x="469.970703"/>
     <use xlink:href="#DejaVuSans-Bold-20" x="537.792969"/>
     <use xlink:href="#DejaVuSans-Bold-62" x="572.607422"/>
     <use xlink:href="#DejaVuSans-Bold-61" x="644.189453"/>
     <use xlink:href="#DejaVuSans-Bold-7a" x="711.669922"/>
     <use xlink:href="#DejaVuSans-Bold-69" x="769.873047"/>
     <use xlink:href="#DejaVuSans-Bold-6d" x="804.150391"/>
     <use xlink:href="#DejaVuSans-Bold-69" x="908.349609"/>
     <use xlink:href="#DejaVuSans-Bold-74" x="942.626953"/>
     <use xlink:href="#DejaVuSans-Bold-20" x="990.429688"/>
     <use xlink:href="#DejaVuSans-Bold-28" x="1025.244141"/>
     <use xlink:href="#DejaVuSans-Bold-64" x="1070.947266"/>
     <use xlink:href="#DejaVuSans-Bold-65" x="1142.529297"/>
     <use xlink:href="#DejaVuSans-Bold-74" x="1210.351562"/>
     <use xlink:href="#DejaVuSans-Bold-65" x="1258.154297"/>
     <use xlink:href="#DejaVuSans-Bold-72" x="1325.976562"/>
     <use xlink:href="#DejaVuSans-Bold-6d" x="1375.292969"/>
     <use xlink:href="#DejaVuSans-Bold-69" x="1479.492188"/>
     <use xlink:href="#DejaVuSans-Bold-6e" x="1513.769531"/>
     <use xlink:href="#DejaVuSans-Bold-69" x="1584.960938"/>
     <use xlink:href="#DejaVuSans-Bold-73" x="1619.238281"/>
     <use xlink:href="#DejaVuSans-Bold-74" x="1678.759766"/>
     <use xlink:href="#DejaVuSans-Bold-29" x="1726.5625"/>
    </g>
   </g>
   <g id="text_8">
    <!-- Dega A -->
    <g style="fill: #0b0b0b" transform="translate(74.669953 271.253775) scale(0.074 -0.074)">
     <defs>
      <path id="DejaVuSans-Bold-44" d="M 1791 3756 
L 1791 909 
L 2222 909 
Q 2959 909 3348 1275 
Q 3738 1641 3738 2338 
Q 3738 3031 3350 3393 
Q 2963 3756 2222 3756 
L 1791 3756 
z
M 588 4666 
L 1856 4666 
Q 2919 4666 3439 4514 
Q 3959 4363 4331 4000 
Q 4659 3684 4818 3271 
Q 4978 2859 4978 2338 
Q 4978 1809 4818 1395 
Q 4659 981 4331 666 
Q 3956 303 3431 151 
Q 2906 0 1856 0 
L 588 0 
L 588 4666 
z
" transform="scale(0.015625)"/>
      <path id="DejaVuSans-Bold-67" d="M 2919 594 
Q 2688 288 2409 144 
Q 2131 0 1766 0 
Q 1125 0 706 504 
Q 288 1009 288 1791 
Q 288 2575 706 3076 
Q 1125 3578 1766 3578 
Q 2131 3578 2409 3434 
Q 2688 3291 2919 2981 
L 2919 3500 
L 4044 3500 
L 4044 353 
Q 4044 -491 3511 -936 
Q 2978 -1381 1966 -1381 
Q 1638 -1381 1331 -1331 
Q 1025 -1281 716 -1178 
L 716 -306 
Q 1009 -475 1290 -558 
Q 1572 -641 1856 -641 
Q 2406 -641 2662 -400 
Q 2919 -159 2919 353 
L 2919 594 
z
M 2181 2772 
Q 1834 2772 1640 2515 
Q 1447 2259 1447 1791 
Q 1447 1309 1634 1061 
Q 1822 813 2181 813 
Q 2531 813 2725 1069 
Q 2919 1325 2919 1791 
Q 2919 2259 2725 2515 
Q 2531 2772 2181 2772 
z
" transform="scale(0.015625)"/>
     </defs>
     <use xlink:href="#DejaVuSans-Bold-44"/>
     <use xlink:href="#DejaVuSans-Bold-65" x="83.007812"/>
     <use xlink:href="#DejaVuSans-Bold-67" x="150.830078"/>
     <use xlink:href="#DejaVuSans-Bold-61" x="222.412109"/>
     <use xlink:href="#DejaVuSans-Bold-20" x="289.892578"/>
     <use xlink:href="#DejaVuSans-Bold-41" x="324.707031"/>
    </g>
   </g>
   <g id="text_9">
    <!-- rezultate -->
    <g style="fill: #52514e" transform="translate(75.522625 283.731595) scale(0.063 -0.063)">
     <use xlink:href="#DejaVuSans-72"/>
     <use xlink:href="#DejaVuSans-65" x="38.863281"/>
     <use xlink:href="#DejaVuSans-7a" x="100.386719"/>
     <use xlink:href="#DejaVuSans-75" x="152.876953"/>
     <use xlink:href="#DejaVuSans-6c" x="216.255859"/>
     <use xlink:href="#DejaVuSans-74" x="244.039062"/>
     <use xlink:href="#DejaVuSans-61" x="283.248047"/>
     <use xlink:href="#DejaVuSans-74" x="344.527344"/>
     <use xlink:href="#DejaVuSans-65" x="383.736328"/>
    </g>
    <!-- laboratorike -->
    <g style="fill: #52514e" transform="translate(70.609609 290.786217) scale(0.063 -0.063)">
     <use xlink:href="#DejaVuSans-6c"/>
     <use xlink:href="#DejaVuSans-61" x="27.783203"/>
     <use xlink:href="#DejaVuSans-62" x="89.0625"/>
     <use xlink:href="#DejaVuSans-6f" x="152.539062"/>
     <use xlink:href="#DejaVuSans-72" x="213.720703"/>
     <use xlink:href="#DejaVuSans-61" x="254.833984"/>
     <use xlink:href="#DejaVuSans-74" x="316.113281"/>
     <use xlink:href="#DejaVuSans-6f" x="355.322266"/>
     <use xlink:href="#DejaVuSans-72" x="416.503906"/>
     <use xlink:href="#DejaVuSans-69" x="457.617188"/>
     <use xlink:href="#DejaVuSans-6b" x="485.400391"/>
     <use xlink:href="#DejaVuSans-65" x="539.685547"/>
    </g>
   </g>
   <g id="text_10">
    <!-- Dega B -->
    <g style="fill: #0b0b0b" transform="translate(169.920312 271.253775) scale(0.074 -0.074)">
     <defs>
      <path id="DejaVuSans-Bold-42" d="M 2456 2859 
Q 2741 2859 2887 2984 
Q 3034 3109 3034 3353 
Q 3034 3594 2887 3720 
Q 2741 3847 2456 3847 
L 1791 3847 
L 1791 2859 
L 2456 2859 
z
M 2497 819 
Q 2859 819 3042 972 
Q 3225 1125 3225 1434 
Q 3225 1738 3044 1889 
Q 2863 2041 2497 2041 
L 1791 2041 
L 1791 819 
L 2497 819 
z
M 3616 2497 
Q 4003 2384 4215 2081 
Q 4428 1778 4428 1338 
Q 4428 663 3972 331 
Q 3516 0 2584 0 
L 588 0 
L 588 4666 
L 2394 4666 
Q 3366 4666 3802 4372 
Q 4238 4078 4238 3431 
Q 4238 3091 4078 2852 
Q 3919 2613 3616 2497 
z
" transform="scale(0.015625)"/>
     </defs>
     <use xlink:href="#DejaVuSans-Bold-44"/>
     <use xlink:href="#DejaVuSans-Bold-65" x="83.007812"/>
     <use xlink:href="#DejaVuSans-Bold-67" x="150.830078"/>
     <use xlink:href="#DejaVuSans-Bold-61" x="222.412109"/>
     <use xlink:href="#DejaVuSans-Bold-20" x="289.892578"/>
     <use xlink:href="#DejaVuSans-Bold-42" x="324.707031"/>
    </g>
   </g>
   <g id="text_11">
    <!-- raporti -->
    <g style="fill: #52514e" transform="translate(174.197578 283.731595) scale(0.063 -0.063)">
     <use xlink:href="#DejaVuSans-72"/>
     <use xlink:href="#DejaVuSans-61" x="41.113281"/>
     <use xlink:href="#DejaVuSans-70" x="102.392578"/>
     <use xlink:href="#DejaVuSans-6f" x="165.869141"/>
     <use xlink:href="#DejaVuSans-72" x="227.050781"/>
     <use xlink:href="#DejaVuSans-74" x="268.164062"/>
     <use xlink:href="#DejaVuSans-69" x="307.373047"/>
    </g>
    <!-- mjekësor -->
    <g style="fill: #52514e" transform="translate(170.361961 290.786217) scale(0.063 -0.063)">
     <use xlink:href="#DejaVuSans-6d"/>
     <use xlink:href="#DejaVuSans-6a" x="97.412109"/>
     <use xlink:href="#DejaVuSans-65" x="125.195312"/>
     <use xlink:href="#DejaVuSans-6b" x="186.71875"/>
     <use xlink:href="#DejaVuSans-eb" x="241.003906"/>
     <use xlink:href="#DejaVuSans-73" x="302.527344"/>
     <use xlink:href="#DejaVuSans-6f" x="354.626953"/>
     <use xlink:href="#DejaVuSans-72" x="415.808594"/>
    </g>
   </g>
   <g id="text_12">
    <!-- GroundingContext -->
    <g style="fill: #0b0b0b" transform="translate(254.196758 271.146666) scale(0.069 -0.069)">
     <defs>
      <path id="DejaVuSans-Bold-47" d="M 4781 347 
Q 4331 128 3847 18 
Q 3363 -91 2847 -91 
Q 1681 -91 1000 561 
Q 319 1213 319 2328 
Q 319 3456 1012 4103 
Q 1706 4750 2913 4750 
Q 3378 4750 3804 4662 
Q 4231 4575 4609 4403 
L 4609 3438 
Q 4219 3659 3833 3768 
Q 3447 3878 3059 3878 
Q 2341 3878 1952 3476 
Q 1563 3075 1563 2328 
Q 1563 1588 1938 1184 
Q 2313 781 3003 781 
Q 3191 781 3352 804 
Q 3513 828 3641 878 
L 3641 1784 
L 2906 1784 
L 2906 2591 
L 4781 2591 
L 4781 347 
z
" transform="scale(0.015625)"/>
      <path id="DejaVuSans-Bold-75" d="M 500 1363 
L 500 3500 
L 1625 3500 
L 1625 3150 
Q 1625 2866 1622 2436 
Q 1619 2006 1619 1863 
Q 1619 1441 1641 1255 
Q 1663 1069 1716 984 
Q 1784 875 1895 815 
Q 2006 756 2150 756 
Q 2500 756 2700 1025 
Q 2900 1294 2900 1772 
L 2900 3500 
L 4019 3500 
L 4019 0 
L 2900 0 
L 2900 506 
Q 2647 200 2364 54 
Q 2081 -91 1741 -91 
Q 1134 -91 817 281 
Q 500 653 500 1363 
z
" transform="scale(0.015625)"/>
      <path id="DejaVuSans-Bold-43" d="M 4288 256 
Q 3956 84 3597 -3 
Q 3238 -91 2847 -91 
Q 1681 -91 1000 561 
Q 319 1213 319 2328 
Q 319 3447 1000 4098 
Q 1681 4750 2847 4750 
Q 3238 4750 3597 4662 
Q 3956 4575 4288 4403 
L 4288 3438 
Q 3953 3666 3628 3772 
Q 3303 3878 2944 3878 
Q 2300 3878 1931 3465 
Q 1563 3053 1563 2328 
Q 1563 1606 1931 1193 
Q 2300 781 2944 781 
Q 3303 781 3628 887 
Q 3953 994 4288 1222 
L 4288 256 
z
" transform="scale(0.015625)"/>
      <path id="DejaVuSans-Bold-78" d="M 1422 1791 
L 159 3500 
L 1344 3500 
L 2059 2463 
L 2784 3500 
L 3969 3500 
L 2706 1797 
L 4031 0 
L 2847 0 
L 2059 1106 
L 1281 0 
L 97 0 
L 1422 1791 
z
" transform="scale(0.015625)"/>
     </defs>
     <use xlink:href="#DejaVuSans-Bold-47"/>
     <use xlink:href="#DejaVuSans-Bold-72" x="82.080078"/>
     <use xlink:href="#DejaVuSans-Bold-6f" x="131.396484"/>
     <use xlink:href="#DejaVuSans-Bold-75" x="200.097656"/>
     <use xlink:href="#DejaVuSans-Bold-6e" x="271.289062"/>
     <use xlink:href="#DejaVuSans-Bold-64" x="342.480469"/>
     <use xlink:href="#DejaVuSans-Bold-69" x="414.0625"/>
     <use xlink:href="#DejaVuSans-Bold-6e" x="448.339844"/>
     <use xlink:href="#DejaVuSans-Bold-67" x="519.53125"/>
     <use xlink:href="#DejaVuSans-Bold-43" x="591.113281"/>
     <use xlink:href="#DejaVuSans-Bold-6f" x="664.501953"/>
     <use xlink:href="#DejaVuSans-Bold-6e" x="733.203125"/>
     <use xlink:href="#DejaVuSans-Bold-74" x="804.394531"/>
     <use xlink:href="#DejaVuSans-Bold-65" x="852.197266"/>
     <use xlink:href="#DejaVuSans-Bold-78" x="920.019531"/>
     <use xlink:href="#DejaVuSans-Bold-74" x="984.521484"/>
    </g>
   </g>
   <g id="text_13">
    <!-- objekti i vetëm -->
    <g style="fill: #52514e" transform="translate(266.215039 283.731595) scale(0.063 -0.063)">
     <use xlink:href="#DejaVuSans-6f"/>
     <use xlink:href="#DejaVuSans-62" x="61.181641"/>
     <use xlink:href="#DejaVuSans-6a" x="124.658203"/>
     <use xlink:href="#DejaVuSans-65" x="152.441406"/>
     <use xlink:href="#DejaVuSans-6b" x="213.964844"/>
     <use xlink:href="#DejaVuSans-74" x="271.875"/>
     <use xlink:href="#DejaVuSans-69" x="311.083984"/>
     <use xlink:href="#DejaVuSans-20" x="338.867188"/>
     <use xlink:href="#DejaVuSans-69" x="370.654297"/>
     <use xlink:href="#DejaVuSans-20" x="398.4375"/>
     <use xlink:href="#DejaVuSans-76" x="430.224609"/>
     <use xlink:href="#DejaVuSans-65" x="489.404297"/>
     <use xlink:href="#DejaVuSans-74" x="550.927734"/>
     <use xlink:href="#DejaVuSans-eb" x="590.136719"/>
     <use xlink:href="#DejaVuSans-6d" x="651.660156"/>
    </g>
    <!-- i kalimit -->
    <g style="fill: #52514e" transform="translate(277.306977 290.786217) scale(0.063 -0.063)">
     <use xlink:href="#DejaVuSans-69"/>
     <use xlink:href="#DejaVuSans-20" x="27.783203"/>
     <use xlink:href="#DejaVuSans-6b" x="59.570312"/>
     <use xlink:href="#DejaVuSans-61" x="115.730469"/>
     <use xlink:href="#DejaVuSans-6c" x="177.009766"/>
     <use xlink:href="#DejaVuSans-69" x="204.792969"/>
     <use xlink:href="#DejaVuSans-6d" x="232.576172"/>
     <use xlink:href="#DejaVuSans-69" x="329.988281"/>
     <use xlink:href="#DejaVuSans-74" x="357.771484"/>
    </g>
   </g>
   <g id="text_14">
    <!-- Gjenerimi -->
    <g style="fill: #0b0b0b" transform="translate(164.579594 350.074681) scale(0.074 -0.074)">
     <defs>
      <path id="DejaVuSans-Bold-6a" d="M 538 3500 
L 1656 3500 
L 1656 63 
Q 1656 -641 1318 -1011 
Q 981 -1381 341 -1381 
L -213 -1381 
L -213 -647 
L -19 -647 
Q 300 -647 419 -503 
Q 538 -359 538 63 
L 538 3500 
z
M 538 4863 
L 1656 4863 
L 1656 3950 
L 538 3950 
L 538 4863 
z
" transform="scale(0.015625)"/>
     </defs>
     <use xlink:href="#DejaVuSans-Bold-47"/>
     <use xlink:href="#DejaVuSans-Bold-6a" x="82.080078"/>
     <use xlink:href="#DejaVuSans-Bold-65" x="116.357422"/>
     <use xlink:href="#DejaVuSans-Bold-6e" x="184.179688"/>
     <use xlink:href="#DejaVuSans-Bold-65" x="255.371094"/>
     <use xlink:href="#DejaVuSans-Bold-72" x="323.193359"/>
     <use xlink:href="#DejaVuSans-Bold-69" x="372.509766"/>
     <use xlink:href="#DejaVuSans-Bold-6d" x="406.787109"/>
     <use xlink:href="#DejaVuSans-Bold-69" x="510.986328"/>
    </g>
   </g>
   <g id="text_15">
    <!-- model gjuhësor (merr vetëm GroundingContext) -->
    <g style="fill: #52514e" transform="translate(108.432961 362.523595) scale(0.063 -0.063)">
     <defs>
      <path id="DejaVuSans-47" d="M 3809 666 
L 3809 1919 
L 2778 1919 
L 2778 2438 
L 4434 2438 
L 4434 434 
Q 4069 175 3628 42 
Q 3188 -91 2688 -91 
Q 1594 -91 976 548 
Q 359 1188 359 2328 
Q 359 3472 976 4111 
Q 1594 4750 2688 4750 
Q 3144 4750 3555 4637 
Q 3966 4525 4313 4306 
L 4313 3634 
Q 3963 3931 3569 4081 
Q 3175 4231 2741 4231 
Q 1884 4231 1454 3753 
Q 1025 3275 1025 2328 
Q 1025 1384 1454 906 
Q 1884 428 2741 428 
Q 3075 428 3337 486 
Q 3600 544 3809 666 
z
" transform="scale(0.015625)"/>
      <path id="DejaVuSans-43" d="M 4122 4306 
L 4122 3641 
Q 3803 3938 3442 4084 
Q 3081 4231 2675 4231 
Q 1875 4231 1450 3742 
Q 1025 3253 1025 2328 
Q 1025 1406 1450 917 
Q 1875 428 2675 428 
Q 3081 428 3442 575 
Q 3803 722 4122 1019 
L 4122 359 
Q 3791 134 3420 21 
Q 3050 -91 2638 -91 
Q 1578 -91 968 557 
Q 359 1206 359 2328 
Q 359 3453 968 4101 
Q 1578 4750 2638 4750 
Q 3056 4750 3426 4639 
Q 3797 4528 4122 4306 
z
" transform="scale(0.015625)"/>
     </defs>
     <use xlink:href="#DejaVuSans-6d"/>
     <use xlink:href="#DejaVuSans-6f" x="97.412109"/>
     <use xlink:href="#DejaVuSans-64" x="158.59375"/>
     <use xlink:href="#DejaVuSans-65" x="222.070312"/>
     <use xlink:href="#DejaVuSans-6c" x="283.59375"/>
     <use xlink:href="#DejaVuSans-20" x="311.376953"/>
     <use xlink:href="#DejaVuSans-67" x="343.164062"/>
     <use xlink:href="#DejaVuSans-6a" x="406.640625"/>
     <use xlink:href="#DejaVuSans-75" x="434.423828"/>
     <use xlink:href="#DejaVuSans-68" x="497.802734"/>
     <use xlink:href="#DejaVuSans-eb" x="561.181641"/>
     <use xlink:href="#DejaVuSans-73" x="622.705078"/>
     <use xlink:href="#DejaVuSans-6f" x="674.804688"/>
     <use xlink:href="#DejaVuSans-72" x="735.986328"/>
     <use xlink:href="#DejaVuSans-20" x="777.099609"/>
     <use xlink:href="#DejaVuSans-28" x="808.886719"/>
     <use xlink:href="#DejaVuSans-6d" x="847.900391"/>
     <use xlink:href="#DejaVuSans-65" x="945.3125"/>
     <use xlink:href="#DejaVuSans-72" x="1006.835938"/>
     <use xlink:href="#DejaVuSans-72" x="1046.199219"/>
     <use xlink:href="#DejaVuSans-20" x="1087.3125"/>
     <use xlink:href="#DejaVuSans-76" x="1119.099609"/>
     <use xlink:href="#DejaVuSans-65" x="1178.279297"/>
     <use xlink:href="#DejaVuSans-74" x="1239.802734"/>
     <use xlink:href="#DejaVuSans-eb" x="1279.011719"/>
     <use xlink:href="#DejaVuSans-6d" x="1340.535156"/>
     <use xlink:href="#DejaVuSans-20" x="1437.947266"/>
     <use xlink:href="#DejaVuSans-47" x="1469.734375"/>
     <use xlink:href="#DejaVuSans-72" x="1547.224609"/>
     <use xlink:href="#DejaVuSans-6f" x="1586.087891"/>
     <use xlink:href="#DejaVuSans-75" x="1647.269531"/>
     <use xlink:href="#DejaVuSans-6e" x="1710.648438"/>
     <use xlink:href="#DejaVuSans-64" x="1774.027344"/>
     <use xlink:href="#DejaVuSans-69" x="1837.503906"/>
     <use xlink:href="#DejaVuSans-6e" x="1865.287109"/>
     <use xlink:href="#DejaVuSans-67" x="1928.666016"/>
     <use xlink:href="#DejaVuSans-43" x="1992.142578"/>
     <use xlink:href="#DejaVuSans-6f" x="2061.966797"/>
     <use xlink:href="#DejaVuSans-6e" x="2123.148438"/>
     <use xlink:href="#DejaVuSans-74" x="2186.527344"/>
     <use xlink:href="#DejaVuSans-65" x="2225.736328"/>
     <use xlink:href="#DejaVuSans-78" x="2285.509766"/>
     <use xlink:href="#DejaVuSans-74" x="2344.689453"/>
     <use xlink:href="#DejaVuSans-29" x="2383.898438"/>
    </g>
    <!-- ose shablloni determinist -->
    <g style="fill: #52514e" transform="translate(145.088133 369.578217) scale(0.063 -0.063)">
     <use xlink:href="#DejaVuSans-6f"/>
     <use xlink:href="#DejaVuSans-73" x="61.181641"/>
     <use xlink:href="#DejaVuSans-65" x="113.28125"/>
     <use xlink:href="#DejaVuSans-20" x="174.804688"/>
     <use xlink:href="#DejaVuSans-73" x="206.591797"/>
     <use xlink:href="#DejaVuSans-68" x="258.691406"/>
     <use xlink:href="#DejaVuSans-61" x="322.070312"/>
     <use xlink:href="#DejaVuSans-62" x="383.349609"/>
     <use xlink:href="#DejaVuSans-6c" x="446.826172"/>
     <use xlink:href="#DejaVuSans-6c" x="474.609375"/>
     <use xlink:href="#DejaVuSans-6f" x="502.392578"/>
     <use xlink:href="#DejaVuSans-6e" x="563.574219"/>
     <use xlink:href="#DejaVuSans-69" x="626.953125"/>
     <use xlink:href="#DejaVuSans-20" x="654.736328"/>
     <use xlink:href="#DejaVuSans-64" x="686.523438"/>
     <use xlink:href="#DejaVuSans-65" x="750"/>
     <use xlink:href="#DejaVuSans-74" x="811.523438"/>
     <use xlink:href="#DejaVuSans-65" x="850.732422"/>
     <use xlink:href="#DejaVuSans-72" x="912.255859"/>
     <use xlink:href="#DejaVuSans-6d" x="951.619141"/>
     <use xlink:href="#DejaVuSans-69" x="1049.03125"/>
     <use xlink:href="#DejaVuSans-6e" x="1076.814453"/>
     <use xlink:href="#DejaVuSans-69" x="1140.193359"/>
     <use xlink:href="#DejaVuSans-73" x="1167.976562"/>
     <use xlink:href="#DejaVuSans-74" x="1220.076172"/>
    </g>
   </g>
   <g id="text_16">
    <!-- Shtresa e verifikimit -->
    <g style="fill: #0b0b0b" transform="translate(142.055266 412.973038) scale(0.074 -0.074)">
     <defs>
      <path id="DejaVuSans-Bold-76" d="M 97 3500 
L 1216 3500 
L 2088 1081 
L 2956 3500 
L 4078 3500 
L 2700 0 
L 1472 0 
L 97 3500 
z
" transform="scale(0.015625)"/>
      <path id="DejaVuSans-Bold-66" d="M 2841 4863 
L 2841 4128 
L 2222 4128 
Q 1984 4128 1890 4042 
Q 1797 3956 1797 3744 
L 1797 3500 
L 2753 3500 
L 2753 2700 
L 1797 2700 
L 1797 0 
L 678 0 
L 678 2700 
L 122 2700 
L 122 3500 
L 678 3500 
L 678 3744 
Q 678 4316 997 4589 
Q 1316 4863 1984 4863 
L 2841 4863 
z
" transform="scale(0.015625)"/>
     </defs>
     <use xlink:href="#DejaVuSans-Bold-53"/>
     <use xlink:href="#DejaVuSans-Bold-68" x="72.021484"/>
     <use xlink:href="#DejaVuSans-Bold-74" x="143.212891"/>
     <use xlink:href="#DejaVuSans-Bold-72" x="191.015625"/>
     <use xlink:href="#DejaVuSans-Bold-65" x="240.332031"/>
     <use xlink:href="#DejaVuSans-Bold-73" x="308.154297"/>
     <use xlink:href="#DejaVuSans-Bold-61" x="367.675781"/>
     <use xlink:href="#DejaVuSans-Bold-20" x="435.15625"/>
     <use xlink:href="#DejaVuSans-Bold-65" x="469.970703"/>
     <use xlink:href="#DejaVuSans-Bold-20" x="537.792969"/>
     <use xlink:href="#DejaVuSans-Bold-76" x="572.607422"/>
     <use xlink:href="#DejaVuSans-Bold-65" x="637.792969"/>
     <use xlink:href="#DejaVuSans-Bold-72" x="705.615234"/>
     <use xlink:href="#DejaVuSans-Bold-69" x="754.931641"/>
     <use xlink:href="#DejaVuSans-Bold-66" x="789.208984"/>
     <use xlink:href="#DejaVuSans-Bold-69" x="832.714844"/>
     <use xlink:href="#DejaVuSans-Bold-6b" x="866.992188"/>
     <use xlink:href="#DejaVuSans-Bold-69" x="933.496094"/>
     <use xlink:href="#DejaVuSans-Bold-6d" x="967.773438"/>
     <use xlink:href="#DejaVuSans-Bold-69" x="1071.972656"/>
     <use xlink:href="#DejaVuSans-Bold-74" x="1106.25"/>
    </g>
   </g>
   <g id="text_17">
    <!-- R1–R9 + SP1–SP3, pastaj klasifikuesi; deri në 2 përpjekje -->
    <g style="fill: #52514e" transform="translate(95.05432 425.144906) scale(0.063 -0.063)">
     <defs>
      <path id="DejaVuSans-31" d="M 794 531 
L 1825 531 
L 1825 4091 
L 703 3866 
L 703 4441 
L 1819 4666 
L 2450 4666 
L 2450 531 
L 3481 531 
L 3481 0 
L 794 0 
L 794 531 
z
" transform="scale(0.015625)"/>
      <path id="DejaVuSans-2013" d="M 313 1978 
L 2888 1978 
L 2888 1528 
L 313 1528 
L 313 1978 
z
" transform="scale(0.015625)"/>
      <path id="DejaVuSans-39" d="M 703 97 
L 703 672 
Q 941 559 1184 500 
Q 1428 441 1663 441 
Q 2288 441 2617 861 
Q 2947 1281 2994 2138 
Q 2813 1869 2534 1725 
Q 2256 1581 1919 1581 
Q 1219 1581 811 2004 
Q 403 2428 403 3163 
Q 403 3881 828 4315 
Q 1253 4750 1959 4750 
Q 2769 4750 3195 4129 
Q 3622 3509 3622 2328 
Q 3622 1225 3098 567 
Q 2575 -91 1691 -91 
Q 1453 -91 1209 -44 
Q 966 3 703 97 
z
M 1959 2075 
Q 2384 2075 2632 2365 
Q 2881 2656 2881 3163 
Q 2881 3666 2632 3958 
Q 2384 4250 1959 4250 
Q 1534 4250 1286 3958 
Q 1038 3666 1038 3163 
Q 1038 2656 1286 2365 
Q 1534 2075 1959 2075 
z
" transform="scale(0.015625)"/>
      <path id="DejaVuSans-2b" d="M 2944 4013 
L 2944 2272 
L 4684 2272 
L 4684 1741 
L 2944 1741 
L 2944 0 
L 2419 0 
L 2419 1741 
L 678 1741 
L 678 2272 
L 2419 2272 
L 2419 4013 
L 2944 4013 
z
" transform="scale(0.015625)"/>
      <path id="DejaVuSans-33" d="M 2597 2516 
Q 3050 2419 3304 2112 
Q 3559 1806 3559 1356 
Q 3559 666 3084 287 
Q 2609 -91 1734 -91 
Q 1441 -91 1130 -33 
Q 819 25 488 141 
L 488 750 
Q 750 597 1062 519 
Q 1375 441 1716 441 
Q 2309 441 2620 675 
Q 2931 909 2931 1356 
Q 2931 1769 2642 2001 
Q 2353 2234 1838 2234 
L 1294 2234 
L 1294 2753 
L 1863 2753 
Q 2328 2753 2575 2939 
Q 2822 3125 2822 3475 
Q 2822 3834 2567 4026 
Q 2313 4219 1838 4219 
Q 1578 4219 1281 4162 
Q 984 4106 628 3988 
L 628 4550 
Q 988 4650 1302 4700 
Q 1616 4750 1894 4750 
Q 2613 4750 3031 4423 
Q 3450 4097 3450 3541 
Q 3450 3153 3228 2886 
Q 3006 2619 2597 2516 
z
" transform="scale(0.015625)"/>
      <path id="DejaVuSans-32" d="M 1228 531 
L 3431 531 
L 3431 0 
L 469 0 
L 469 531 
Q 828 903 1448 1529 
Q 2069 2156 2228 2338 
Q 2531 2678 2651 2914 
Q 2772 3150 2772 3378 
Q 2772 3750 2511 3984 
Q 2250 4219 1831 4219 
Q 1534 4219 1204 4116 
Q 875 4013 500 3803 
L 500 4441 
Q 881 4594 1212 4672 
Q 1544 4750 1819 4750 
Q 2544 4750 2975 4387 
Q 3406 4025 3406 3419 
Q 3406 3131 3298 2873 
Q 3191 2616 2906 2266 
Q 2828 2175 2409 1742 
Q 1991 1309 1228 531 
z
" transform="scale(0.015625)"/>
     </defs>
     <use xlink:href="#DejaVuSans-52"/>
     <use xlink:href="#DejaVuSans-31" x="69.482422"/>
     <use xlink:href="#DejaVuSans-2013" x="133.105469"/>
     <use xlink:href="#DejaVuSans-52" x="183.105469"/>
     <use xlink:href="#DejaVuSans-39" x="252.587891"/>
     <use xlink:href="#DejaVuSans-20" x="316.210938"/>
     <use xlink:href="#DejaVuSans-2b" x="347.998047"/>
     <use xlink:href="#DejaVuSans-20" x="431.787109"/>
     <use xlink:href="#DejaVuSans-53" x="463.574219"/>
     <use xlink:href="#DejaVuSans-50" x="527.050781"/>
     <use xlink:href="#DejaVuSans-31" x="587.353516"/>
     <use xlink:href="#DejaVuSans-2013" x="650.976562"/>
     <use xlink:href="#DejaVuSans-53" x="700.976562"/>
     <use xlink:href="#DejaVuSans-50" x="764.453125"/>
     <use xlink:href="#DejaVuSans-33" x="824.755859"/>
     <use xlink:href="#DejaVuSans-2c" x="888.378906"/>
     <use xlink:href="#DejaVuSans-20" x="920.166016"/>
     <use xlink:href="#DejaVuSans-70" x="951.953125"/>
     <use xlink:href="#DejaVuSans-61" x="1015.429688"/>
     <use xlink:href="#DejaVuSans-73" x="1076.708984"/>
     <use xlink:href="#DejaVuSans-74" x="1128.808594"/>
     <use xlink:href="#DejaVuSans-61" x="1168.017578"/>
     <use xlink:href="#DejaVuSans-6a" x="1229.296875"/>
     <use xlink:href="#DejaVuSans-20" x="1257.080078"/>
     <use xlink:href="#DejaVuSans-6b" x="1288.867188"/>
     <use xlink:href="#DejaVuSans-6c" x="1346.777344"/>
     <use xlink:href="#DejaVuSans-61" x="1374.560547"/>
     <use xlink:href="#DejaVuSans-73" x="1435.839844"/>
     <use xlink:href="#DejaVuSans-69" x="1487.939453"/>
     <use xlink:href="#DejaVuSans-66" x="1515.722656"/>
     <use xlink:href="#DejaVuSans-69" x="1550.927734"/>
     <use xlink:href="#DejaVuSans-6b" x="1578.710938"/>
     <use xlink:href="#DejaVuSans-75" x="1633.496094"/>
     <use xlink:href="#DejaVuSans-65" x="1696.875"/>
     <use xlink:href="#DejaVuSans-73" x="1758.398438"/>
     <use xlink:href="#DejaVuSans-69" x="1810.498047"/>
     <use xlink:href="#DejaVuSans-3b" x="1838.28125"/>
     <use xlink:href="#DejaVuSans-20" x="1871.972656"/>
     <use xlink:href="#DejaVuSans-64" x="1903.759766"/>
     <use xlink:href="#DejaVuSans-65" x="1967.236328"/>
     <use xlink:href="#DejaVuSans-72" x="2028.759766"/>
     <use xlink:href="#DejaVuSans-69" x="2069.873047"/>
     <use xlink:href="#DejaVuSans-20" x="2097.65625"/>
     <use xlink:href="#DejaVuSans-6e" x="2129.443359"/>
     <use xlink:href="#DejaVuSans-eb" x="2192.822266"/>
     <use xlink:href="#DejaVuSans-20" x="2254.345703"/>
     <use xlink:href="#DejaVuSans-32" x="2286.132812"/>
     <use xlink:href="#DejaVuSans-20" x="2349.755859"/>
     <use xlink:href="#DejaVuSans-70" x="2381.542969"/>
     <use xlink:href="#DejaVuSans-eb" x="2445.019531"/>
     <use xlink:href="#DejaVuSans-72" x="2506.542969"/>
     <use xlink:href="#DejaVuSans-70" x="2547.65625"/>
     <use xlink:href="#DejaVuSans-6a" x="2611.132812"/>
     <use xlink:href="#DejaVuSans-65" x="2638.916016"/>
     <use xlink:href="#DejaVuSans-6b" x="2700.439453"/>
     <use xlink:href="#DejaVuSans-6a" x="2758.349609"/>
     <use xlink:href="#DejaVuSans-65" x="2786.132812"/>
    </g>
   </g>
   <g id="text_18">
    <!-- REST -->
    <g style="fill: #52514e" transform="translate(211.019 75.477812) scale(0.062 -0.062)">
     <use xlink:href="#DejaVuSans-52"/>
     <use xlink:href="#DejaVuSans-45" x="69.482422"/>
     <use xlink:href="#DejaVuSans-53" x="132.666016"/>
     <use xlink:href="#DejaVuSans-54" x="196.142578"/>
    </g>
   </g>
   <g id="text_19">
    <!-- teksti i verifikuar ose rezervë -->
    <g style="fill: #52514e" transform="translate(349.848838 335.975563) rotate(-90) scale(0.058 -0.058)">
     <use xlink:href="#DejaVuSans-74"/>
     <use xlink:href="#DejaVuSans-65" x="39.208984"/>
     <use xlink:href="#DejaVuSans-6b" x="100.732422"/>
     <use xlink:href="#DejaVuSans-73" x="158.642578"/>
     <use xlink:href="#DejaVuSans-74" x="210.742188"/>
     <use xlink:href="#DejaVuSans-69" x="249.951172"/>
     <use xlink:href="#DejaVuSans-20" x="277.734375"/>
     <use xlink:href="#DejaVuSans-69" x="309.521484"/>
     <use xlink:href="#DejaVuSans-20" x="337.304688"/>
     <use xlink:href="#DejaVuSans-76" x="369.091797"/>
     <use xlink:href="#DejaVuSans-65" x="428.271484"/>
     <use xlink:href="#DejaVuSans-72" x="489.794922"/>
     <use xlink:href="#DejaVuSans-69" x="530.908203"/>
     <use xlink:href="#DejaVuSans-66" x="558.691406"/>
     <use xlink:href="#DejaVuSans-69" x="593.896484"/>
     <use xlink:href="#DejaVuSans-6b" x="621.679688"/>
     <use xlink:href="#DejaVuSans-75" x="676.464844"/>
     <use xlink:href="#DejaVuSans-61" x="739.84375"/>
     <use xlink:href="#DejaVuSans-72" x="801.123047"/>
     <use xlink:href="#DejaVuSans-20" x="842.236328"/>
     <use xlink:href="#DejaVuSans-6f" x="874.023438"/>
     <use xlink:href="#DejaVuSans-73" x="935.205078"/>
     <use xlink:href="#DejaVuSans-65" x="987.304688"/>
     <use xlink:href="#DejaVuSans-20" x="1048.828125"/>
     <use xlink:href="#DejaVuSans-72" x="1080.615234"/>
     <use xlink:href="#DejaVuSans-65" x="1119.478516"/>
     <use xlink:href="#DejaVuSans-7a" x="1181.001953"/>
     <use xlink:href="#DejaVuSans-65" x="1233.492188"/>
     <use xlink:href="#DejaVuSans-72" x="1295.015625"/>
     <use xlink:href="#DejaVuSans-76" x="1336.128906"/>
     <use xlink:href="#DejaVuSans-eb" x="1395.308594"/>
    </g>
   </g>
   <g id="text_20">
    <!-- PostgreSQL -->
    <g style="fill: #0b0b0b" transform="translate(385.265594 216.920125) scale(0.074 -0.074)">
     <defs>
      <path id="DejaVuSans-Bold-51" d="M 2847 -84 
L 2753 -84 
Q 1600 -84 959 553 
Q 319 1191 319 2328 
Q 319 3463 958 4106 
Q 1597 4750 2719 4750 
Q 3853 4750 4486 4112 
Q 5119 3475 5119 2328 
Q 5119 1541 4783 972 
Q 4447 403 3816 116 
L 4756 -934 
L 3609 -934 
L 2847 -84 
z
M 2719 3878 
Q 2169 3878 1866 3472 
Q 1563 3066 1563 2328 
Q 1563 1578 1859 1179 
Q 2156 781 2719 781 
Q 3272 781 3575 1187 
Q 3878 1594 3878 2328 
Q 3878 3066 3575 3472 
Q 3272 3878 2719 3878 
z
" transform="scale(0.015625)"/>
      <path id="DejaVuSans-Bold-4c" d="M 588 4666 
L 1791 4666 
L 1791 909 
L 3903 909 
L 3903 0 
L 588 0 
L 588 4666 
z
" transform="scale(0.015625)"/>
     </defs>
     <use xlink:href="#DejaVuSans-Bold-50"/>
     <use xlink:href="#DejaVuSans-Bold-6f" x="73.291016"/>
     <use xlink:href="#DejaVuSans-Bold-73" x="141.992188"/>
     <use xlink:href="#DejaVuSans-Bold-74" x="201.513672"/>
     <use xlink:href="#DejaVuSans-Bold-67" x="249.316406"/>
     <use xlink:href="#DejaVuSans-Bold-72" x="320.898438"/>
     <use xlink:href="#DejaVuSans-Bold-65" x="370.214844"/>
     <use xlink:href="#DejaVuSans-Bold-53" x="438.037109"/>
     <use xlink:href="#DejaVuSans-Bold-51" x="510.058594"/>
     <use xlink:href="#DejaVuSans-Bold-4c" x="595.068359"/>
    </g>
   </g>
   <g id="text_21">
    <!-- ruan gjendjen, -->
    <g style="fill: #52514e" transform="translate(387.889094 232.395875) scale(0.06 -0.06)">
     <use xlink:href="#DejaVuSans-72"/>
     <use xlink:href="#DejaVuSans-75" x="41.113281"/>
     <use xlink:href="#DejaVuSans-61" x="104.492188"/>
     <use xlink:href="#DejaVuSans-6e" x="165.771484"/>
     <use xlink:href="#DejaVuSans-20" x="229.150391"/>
     <use xlink:href="#DejaVuSans-67" x="260.9375"/>
     <use xlink:href="#DejaVuSans-6a" x="324.414062"/>
     <use xlink:href="#DejaVuSans-65" x="352.197266"/>
     <use xlink:href="#DejaVuSans-6e" x="413.720703"/>
     <use xlink:href="#DejaVuSans-64" x="477.099609"/>
     <use xlink:href="#DejaVuSans-6a" x="540.576172"/>
     <use xlink:href="#DejaVuSans-65" x="568.359375"/>
     <use xlink:href="#DejaVuSans-6e" x="629.882812"/>
     <use xlink:href="#DejaVuSans-2c" x="693.261719"/>
    </g>
    <!-- gjetjet, -->
    <g style="fill: #52514e" transform="translate(399.071594 239.114562) scale(0.06 -0.06)">
     <use xlink:href="#DejaVuSans-67"/>
     <use xlink:href="#DejaVuSans-6a" x="63.476562"/>
     <use xlink:href="#DejaVuSans-65" x="91.259766"/>
     <use xlink:href="#DejaVuSans-74" x="152.783203"/>
     <use xlink:href="#DejaVuSans-6a" x="191.992188"/>
     <use xlink:href="#DejaVuSans-65" x="219.775391"/>
     <use xlink:href="#DejaVuSans-74" x="281.298828"/>
     <use xlink:href="#DejaVuSans-2c" x="320.507812"/>
    </g>
    <!-- shpjegimet dhe -->
    <g style="fill: #52514e" transform="translate(386.305187 245.83325) scale(0.06 -0.06)">
     <use xlink:href="#DejaVuSans-73"/>
     <use xlink:href="#DejaVuSans-68" x="52.099609"/>
     <use xlink:href="#DejaVuSans-70" x="115.478516"/>
     <use xlink:href="#DejaVuSans-6a" x="178.955078"/>
     <use xlink:href="#DejaVuSans-65" x="206.738281"/>
     <use xlink:href="#DejaVuSans-67" x="268.261719"/>
     <use xlink:href="#DejaVuSans-69" x="331.738281"/>
     <use xlink:href="#DejaVuSans-6d" x="359.521484"/>
     <use xlink:href="#DejaVuSans-65" x="456.933594"/>
     <use xlink:href="#DejaVuSans-74" x="518.457031"/>
     <use xlink:href="#DejaVuSans-20" x="557.666016"/>
     <use xlink:href="#DejaVuSans-64" x="589.453125"/>
     <use xlink:href="#DejaVuSans-68" x="652.929688"/>
     <use xlink:href="#DejaVuSans-65" x="716.308594"/>
    </g>
    <!-- gjurmën e -->
    <g style="fill: #52514e" transform="translate(394.35175 252.551937) scale(0.06 -0.06)">
     <use xlink:href="#DejaVuSans-67"/>
     <use xlink:href="#DejaVuSans-6a" x="63.476562"/>
     <use xlink:href="#DejaVuSans-75" x="91.259766"/>
     <use xlink:href="#DejaVuSans-72" x="154.638672"/>
     <use xlink:href="#DejaVuSans-6d" x="194.001953"/>
     <use xlink:href="#DejaVuSans-eb" x="291.414062"/>
     <use xlink:href="#DejaVuSans-6e" x="352.9375"/>
     <use xlink:href="#DejaVuSans-20" x="416.316406"/>
     <use xlink:href="#DejaVuSans-65" x="448.103516"/>
    </g>
    <!-- auditimit për -->
    <g style="fill: #52514e" transform="translate(390.284406 259.270625) scale(0.06 -0.06)">
     <use xlink:href="#DejaVuSans-61"/>
     <use xlink:href="#DejaVuSans-75" x="61.279297"/>
     <use xlink:href="#DejaVuSans-64" x="124.658203"/>
     <use xlink:href="#DejaVuSans-69" x="188.134766"/>
     <use xlink:href="#DejaVuSans-74" x="215.917969"/>
     <use xlink:href="#DejaVuSans-69" x="255.126953"/>
     <use xlink:href="#DejaVuSans-6d" x="282.910156"/>
     <use xlink:href="#DejaVuSans-69" x="380.322266"/>
     <use xlink:href="#DejaVuSans-74" x="408.105469"/>
     <use xlink:href="#DejaVuSans-20" x="447.314453"/>
     <use xlink:href="#DejaVuSans-70" x="479.101562"/>
     <use xlink:href="#DejaVuSans-eb" x="542.578125"/>
     <use xlink:href="#DejaVuSans-72" x="604.101562"/>
    </g>
    <!-- shtresat 2–5; -->
    <g style="fill: #52514e" transform="translate(390.129719 265.989312) scale(0.06 -0.06)">
     <defs>
      <path id="DejaVuSans-35" d="M 691 4666 
L 3169 4666 
L 3169 4134 
L 1269 4134 
L 1269 2991 
Q 1406 3038 1543 3061 
Q 1681 3084 1819 3084 
Q 2600 3084 3056 2656 
Q 3513 2228 3513 1497 
Q 3513 744 3044 326 
Q 2575 -91 1722 -91 
Q 1428 -91 1123 -41 
Q 819 9 494 109 
L 494 744 
Q 775 591 1075 516 
Q 1375 441 1709 441 
Q 2250 441 2565 725 
Q 2881 1009 2881 1497 
Q 2881 1984 2565 2268 
Q 2250 2553 1709 2553 
Q 1456 2553 1204 2497 
Q 953 2441 691 2322 
L 691 4666 
z
" transform="scale(0.015625)"/>
     </defs>
     <use xlink:href="#DejaVuSans-73"/>
     <use xlink:href="#DejaVuSans-68" x="52.099609"/>
     <use xlink:href="#DejaVuSans-74" x="115.478516"/>
     <use xlink:href="#DejaVuSans-72" x="154.6875"/>
     <use xlink:href="#DejaVuSans-65" x="193.550781"/>
     <use xlink:href="#DejaVuSans-73" x="255.074219"/>
     <use xlink:href="#DejaVuSans-61" x="307.173828"/>
     <use xlink:href="#DejaVuSans-74" x="368.453125"/>
     <use xlink:href="#DejaVuSans-20" x="407.662109"/>
     <use xlink:href="#DejaVuSans-32" x="439.449219"/>
     <use xlink:href="#DejaVuSans-2013" x="503.072266"/>
     <use xlink:href="#DejaVuSans-35" x="553.072266"/>
     <use xlink:href="#DejaVuSans-3b" x="616.695312"/>
    </g>
    <!-- skedarët janë -->
    <g style="fill: #52514e" transform="translate(389.300031 272.708) scale(0.06 -0.06)">
     <use xlink:href="#DejaVuSans-73"/>
     <use xlink:href="#DejaVuSans-6b" x="52.099609"/>
     <use xlink:href="#DejaVuSans-65" x="106.384766"/>
     <use xlink:href="#DejaVuSans-64" x="167.908203"/>
     <use xlink:href="#DejaVuSans-61" x="231.384766"/>
     <use xlink:href="#DejaVuSans-72" x="292.664062"/>
     <use xlink:href="#DejaVuSans-eb" x="331.527344"/>
     <use xlink:href="#DejaVuSans-74" x="393.050781"/>
     <use xlink:href="#DejaVuSans-20" x="432.259766"/>
     <use xlink:href="#DejaVuSans-6a" x="464.046875"/>
     <use xlink:href="#DejaVuSans-61" x="491.830078"/>
     <use xlink:href="#DejaVuSans-6e" x="553.109375"/>
     <use xlink:href="#DejaVuSans-eb" x="616.488281"/>
    </g>
    <!-- në ruajtje të -->
    <g style="fill: #52514e" transform="translate(391.302531 279.426687) scale(0.06 -0.06)">
     <use xlink:href="#DejaVuSans-6e"/>
     <use xlink:href="#DejaVuSans-eb" x="63.378906"/>
     <use xlink:href="#DejaVuSans-20" x="124.902344"/>
     <use xlink:href="#DejaVuSans-72" x="156.689453"/>
     <use xlink:href="#DejaVuSans-75" x="197.802734"/>
     <use xlink:href="#DejaVuSans-61" x="261.181641"/>
     <use xlink:href="#DejaVuSans-6a" x="322.460938"/>
     <use xlink:href="#DejaVuSans-74" x="350.244141"/>
     <use xlink:href="#DejaVuSans-6a" x="389.453125"/>
     <use xlink:href="#DejaVuSans-65" x="417.236328"/>
     <use xlink:href="#DejaVuSans-20" x="478.759766"/>
     <use xlink:href="#DejaVuSans-74" x="510.546875"/>
     <use xlink:href="#DejaVuSans-eb" x="549.755859"/>
    </g>
    <!-- enkriptuar -->
    <g style="fill: #52514e" transform="translate(394.035812 286.145375) scale(0.06 -0.06)">
     <use xlink:href="#DejaVuSans-65"/>
     <use xlink:href="#DejaVuSans-6e" x="61.523438"/>
     <use xlink:href="#DejaVuSans-6b" x="124.902344"/>
     <use xlink:href="#DejaVuSans-72" x="182.8125"/>
     <use xlink:href="#DejaVuSans-69" x="223.925781"/>
     <use xlink:href="#DejaVuSans-70" x="251.708984"/>
     <use xlink:href="#DejaVuSans-74" x="315.185547"/>
     <use xlink:href="#DejaVuSans-75" x="354.394531"/>
     <use xlink:href="#DejaVuSans-61" x="417.773438"/>
     <use xlink:href="#DejaVuSans-72" x="479.052734"/>
    </g>
   </g>
   <g id="text_22">
    <!-- hap deterministe -->
    <g style="fill: #52514e" transform="translate(58.3595 464.540906) scale(0.063 -0.063)">
     <use xlink:href="#DejaVuSans-68"/>
     <use xlink:href="#DejaVuSans-61" x="63.378906"/>
     <use xlink:href="#DejaVuSans-70" x="124.658203"/>
     <use xlink:href="#DejaVuSans-20" x="188.134766"/>
     <use xlink:href="#DejaVuSans-64" x="219.921875"/>
     <use xlink:href="#DejaVuSans-65" x="283.398438"/>
     <use xlink:href="#DejaVuSans-74" x="344.921875"/>
     <use xlink:href="#DejaVuSans-65" x="384.130859"/>
     <use xlink:href="#DejaVuSans-72" x="445.654297"/>
     <use xlink:href="#DejaVuSans-6d" x="485.017578"/>
     <use xlink:href="#DejaVuSans-69" x="582.429688"/>
     <use xlink:href="#DejaVuSans-6e" x="610.212891"/>
     <use xlink:href="#DejaVuSans-69" x="673.591797"/>
     <use xlink:href="#DejaVuSans-73" x="701.375"/>
     <use xlink:href="#DejaVuSans-74" x="753.474609"/>
     <use xlink:href="#DejaVuSans-65" x="792.683594"/>
    </g>
   </g>
   <g id="text_23">
    <!-- hap i mësuar -->
    <g style="fill: #52514e" transform="translate(161.774 464.540906) scale(0.063 -0.063)">
     <use xlink:href="#DejaVuSans-68"/>
     <use xlink:href="#DejaVuSans-61" x="63.378906"/>
     <use xlink:href="#DejaVuSans-70" x="124.658203"/>
     <use xlink:href="#DejaVuSans-20" x="188.134766"/>
     <use xlink:href="#DejaVuSans-69" x="219.921875"/>
     <use xlink:href="#DejaVuSans-20" x="247.705078"/>
     <use xlink:href="#DejaVuSans-6d" x="279.492188"/>
     <use xlink:href="#DejaVuSans-eb" x="376.904297"/>
     <use xlink:href="#DejaVuSans-73" x="438.427734"/>
     <use xlink:href="#DejaVuSans-75" x="490.527344"/>
     <use xlink:href="#DejaVuSans-61" x="553.90625"/>
     <use xlink:href="#DejaVuSans-72" x="615.185547"/>
    </g>
   </g>
   <g id="text_24">
    <!-- kontributi qendror -->
    <g style="fill: #52514e" transform="translate(265.1885 464.540906) scale(0.063 -0.063)">
     <use xlink:href="#DejaVuSans-6b"/>
     <use xlink:href="#DejaVuSans-6f" x="54.285156"/>
     <use xlink:href="#DejaVuSans-6e" x="115.466797"/>
     <use xlink:href="#DejaVuSans-74" x="178.845703"/>
     <use xlink:href="#DejaVuSans-72" x="218.054688"/>
     <use xlink:href="#DejaVuSans-69" x="259.167969"/>
     <use xlink:href="#DejaVuSans-62" x="286.951172"/>
     <use xlink:href="#DejaVuSans-75" x="350.427734"/>
     <use xlink:href="#DejaVuSans-74" x="413.806641"/>
     <use xlink:href="#DejaVuSans-69" x="453.015625"/>
     <use xlink:href="#DejaVuSans-20" x="480.798828"/>
     <use xlink:href="#DejaVuSans-71" x="512.585938"/>
     <use xlink:href="#DejaVuSans-65" x="576.0625"/>
     <use xlink:href="#DejaVuSans-6e" x="637.585938"/>
     <use xlink:href="#DejaVuSans-64" x="700.964844"/>
     <use xlink:href="#DejaVuSans-72" x="764.441406"/>
     <use xlink:href="#DejaVuSans-6f" x="803.304688"/>
     <use xlink:href="#DejaVuSans-72" x="864.486328"/>
    </g>
   </g>
   <g id="text_25">
    <!-- hyrje ose dalje -->
    <g style="fill: #52514e" transform="translate(368.603 464.540906) scale(0.063 -0.063)">
     <use xlink:href="#DejaVuSans-68"/>
     <use xlink:href="#DejaVuSans-79" x="63.378906"/>
     <use xlink:href="#DejaVuSans-72" x="122.558594"/>
     <use xlink:href="#DejaVuSans-6a" x="163.671875"/>
     <use xlink:href="#DejaVuSans-65" x="191.455078"/>
     <use xlink:href="#DejaVuSans-20" x="252.978516"/>
     <use xlink:href="#DejaVuSans-6f" x="284.765625"/>
     <use xlink:href="#DejaVuSans-73" x="345.947266"/>
     <use xlink:href="#DejaVuSans-65" x="398.046875"/>
     <use xlink:href="#DejaVuSans-20" x="459.570312"/>
     <use xlink:href="#DejaVuSans-64" x="491.357422"/>
     <use xlink:href="#DejaVuSans-61" x="554.833984"/>
     <use xlink:href="#DejaVuSans-6c" x="616.113281"/>
     <use xlink:href="#DejaVuSans-6a" x="643.896484"/>
     <use xlink:href="#DejaVuSans-65" x="671.679688"/>
    </g>
   </g>
  </g>
 </g>
 <defs>
  <clipPath id="pd8fbb9a721">
   <rect x="20.605" y="4.824" width="426.79" height="472.752"/>
  </clipPath>
 </defs>
</svg>
