<?xml version="1.0" encoding="utf-8" standalone="no"?>
<!DOCTYPE svg PUBLIC "-//W3C//DTD SVG 1.1//EN"
  "http://www.w3.org/Graphics/SVG/1.1/DTD/svg11.dtd">
<svg xmlns:xlink="http://www.w3.org/1999/xlink" width="453.6pt" height="568.8pt" viewBox="0 0 453.6 568.8" xmlns="http://www.w3.org/2000/svg" version="1.1">
 <metadata>
  <rdf:RDF xmlns:dc="http://purl.org/dc/elements/1.1/" xmlns:cc="http://creativecommons.org/ns#" xmlns:rdf="http://www.w3.org/1999/02/22-rdf-syntax-ns#">
   <cc:Work>
    <dc:type rdf:resource="http://purl.org/dc/dcmitype/StillImage"/>
    <dc:date>2026-09-30T18:53:38.284123</dc:date>
    <dc:format>image/svg+xml</dc:format>
    <dc:creator>
     <cc:Agent>
      <dc:title>Matplotlib v3.8.2, https://matplotlib.org/</dc:title>
     </cc:Agent>
    </dc:creator>
   </cc:Work>
  </rdf:RDF>
 </metadata>
 <defs>
  <style type="text/css">*{stroke-linejoin: round; stroke-linecap: butt}</style>
 </defs>
 <g id="figure_1">
  <g id="patch_1">
   <path d="M 0 568.8 
L 453.6 568.8 
L 453.6 0 
L 0 0 
z
" style="fill: #ffffff"/>
  </g>
  <g id="axes_1">
   <g id="patch_2">
    <path d="M 171.374318 52.576061 
Q 153.954818 56.362909 137.912062 59.850465 
" clip-path="url(#p053b5627dd)" style="fill: none; stroke: #0b0b0b; stroke-width: 1.3; stroke-linecap: round"/>
    <path d="M 143.350261 61.328975 
L 137.912062 59.850465 
L 142.245627 56.247658 
z
" clip-path="url(#p053b5627dd)" style="fill: #0b0b0b; stroke: #0b0b0b; stroke-width: 1.3; stroke-linecap: round"/>
   </g>
   <g id="patch_3">
    <path d="M 226.8 56.362909 
Q 226.8 72.198818 226.8 86.625827 
" clip-path="url(#p053b5627dd)" style="fill: none; stroke: #0b0b0b; stroke-width: 1.3; stroke-linecap: round"/>
    <path d="M 229.4 81.625827 
L 226.8 86.625827 
L 224.2 81.625827 
z
" clip-path="url(#p053b5627dd)" style="fill: #0b0b0b; stroke: #0b0b0b; stroke-width: 1.3; stroke-linecap: round"/>
   </g>
   <g id="patch_4">
    <path d="M 282.225682 115.919698 
Q 299.645182 119.706545 315.687938 123.194101 
" clip-path="url(#p053b5627dd)" style="fill: none; stroke: #0b0b0b; stroke-width: 1.3; stroke-linecap: round"/>
    <path d="M 311.354373 119.591294 
L 315.687938 123.194101 
L 310.249739 124.672611 
z
" clip-path="url(#p053b5627dd)" style="fill: #0b0b0b; stroke: #0b0b0b; stroke-width: 1.3; stroke-linecap: round"/>
   </g>
   <g id="patch_5">
    <path d="M 226.8 119.706545 
Q 226.8 135.542455 226.8 149.969463 
" clip-path="url(#p053b5627dd)" style="fill: none; stroke: #0b0b0b; stroke-width: 1.3; stroke-linecap: round"/>
    <path d="M 229.4 144.969463 
L 226.8 149.969463 
L 224.2 144.969463 
z
" clip-path="url(#p053b5627dd)" style="fill: #0b0b0b; stroke: #0b0b0b; stroke-width: 1.3; stroke-linecap: round"/>
   </g>
   <g id="patch_6">
    <path d="M 317.064682 147.591516 
Q 299.645182 151.378364 283.602426 154.865919 
" clip-path="url(#p053b5627dd)" style="fill: none; stroke: #0b0b0b; stroke-width: 1.3; stroke-linecap: round"/>
    <path d="M 289.040625 156.34443 
L 283.602426 154.865919 
L 287.935991 151.263113 
z
" clip-path="url(#p053b5627dd)" style="fill: #0b0b0b; stroke: #0b0b0b; stroke-width: 1.3; stroke-linecap: round"/>
   </g>
   <g id="patch_7">
    <path d="M 372.490364 151.378364 
Q 372.490364 170.381455 372.490364 187.975645 
" clip-path="url(#p053b5627dd)" style="fill: none; stroke: #0b0b0b; stroke-width: 1.3; stroke-linecap: round"/>
    <path d="M 375.090364 182.975645 
L 372.490364 187.975645 
L 369.890364 182.975645 
z
" clip-path="url(#p053b5627dd)" style="fill: #0b0b0b; stroke: #0b0b0b; stroke-width: 1.3; stroke-linecap: round"/>
   </g>
   <g id="patch_8">
    <path d="M 226.8 183.050182 
Q 226.8 198.886091 226.8 213.3131 
" clip-path="url(#p053b5627dd)" style="fill: none; stroke: #0b0b0b; stroke-width: 1.3; stroke-linecap: round"/>
    <path d="M 229.4 208.3131 
L 226.8 213.3131 
L 224.2 208.3131 
z
" clip-path="url(#p053b5627dd)" style="fill: #0b0b0b; stroke: #0b0b0b; stroke-width: 1.3; stroke-linecap: round"/>
   </g>
   <g id="patch_9">
    <path d="M 171.374318 242.60697 
Q 153.954818 246.393818 137.912062 249.881374 
" clip-path="url(#p053b5627dd)" style="fill: none; stroke: #0b0b0b; stroke-width: 1.3; stroke-linecap: round"/>
    <path d="M 143.350261 251.359884 
L 137.912062 249.881374 
L 142.245627 246.278567 
z
" clip-path="url(#p053b5627dd)" style="fill: #0b0b0b; stroke: #0b0b0b; stroke-width: 1.3; stroke-linecap: round"/>
   </g>
   <g id="patch_10">
    <path d="M 226.8 246.393818 
Q 226.8 262.229727 226.8 276.656736 
" clip-path="url(#p053b5627dd)" style="fill: none; stroke: #0b0b0b; stroke-width: 1.3; stroke-linecap: round"/>
    <path d="M 229.4 271.656736 
L 226.8 276.656736 
L 224.2 271.656736 
z
" clip-path="url(#p053b5627dd)" style="fill: #0b0b0b; stroke: #0b0b0b; stroke-width: 1.3; stroke-linecap: round"/>
   </g>
   <g id="patch_11">
    <path d="M 226.8 309.737455 
Q 226.8 325.573364 226.8 340.000372 
" clip-path="url(#p053b5627dd)" style="fill: none; stroke: #0b0b0b; stroke-width: 1.3; stroke-linecap: round"/>
    <path d="M 229.4 335.000372 
L 226.8 340.000372 
L 224.2 335.000372 
z
" clip-path="url(#p053b5627dd)" style="fill: #0b0b0b; stroke: #0b0b0b; stroke-width: 1.3; stroke-linecap: round"/>
   </g>
   <g id="patch_12">
    <path d="M 226.8 373.081091 
Q 226.8 388.917 226.8 403.344009 
" clip-path="url(#p053b5627dd)" style="fill: none; stroke: #0b0b0b; stroke-width: 1.3; stroke-linecap: round"/>
    <path d="M 229.4 398.344009 
L 226.8 403.344009 
L 224.2 398.344009 
z
" clip-path="url(#p053b5627dd)" style="fill: #0b0b0b; stroke: #0b0b0b; stroke-width: 1.3; stroke-linecap: round"/>
   </g>
   <g id="patch_13">
    <path d="M 263.222591 373.081091 
Q 295.844564 397.658422 334.680289 404.508188 
" clip-path="url(#p053b5627dd)" style="fill: none; stroke: #0b0b0b; stroke-width: 1.3; stroke-linecap: round"/>
    <path d="M 330.207905 401.079225 
L 334.680289 404.508188 
L 329.304681 406.200181 
z
" clip-path="url(#p053b5627dd)" style="fill: #0b0b0b; stroke: #0b0b0b; stroke-width: 1.3; stroke-linecap: round"/>
   </g>
   <g id="patch_14">
    <path d="M 282.225682 420.588818 
Q 299.645182 420.588818 315.655782 420.588818 
" clip-path="url(#p053b5627dd)" style="fill: none; stroke: #0b0b0b; stroke-width: 1.3; stroke-linecap: round"/>
    <path d="M 310.655782 417.988818 
L 315.655782 420.588818 
L 310.655782 423.188818 
z
" clip-path="url(#p053b5627dd)" style="fill: #0b0b0b; stroke: #0b0b0b; stroke-width: 1.3; stroke-linecap: round"/>
   </g>
   <g id="patch_15">
    <path d="M 226.8 436.424727 
Q 226.8 452.260636 226.8 466.687645 
" clip-path="url(#p053b5627dd)" style="fill: none; stroke: #0b0b0b; stroke-width: 1.3; stroke-linecap: round"/>
    <path d="M 229.4 461.687645 
L 226.8 466.687645 
L 224.2 461.687645 
z
" clip-path="url(#p053b5627dd)" style="fill: #0b0b0b; stroke: #0b0b0b; stroke-width: 1.3; stroke-linecap: round"/>
   </g>
   <g id="patch_16">
    <path d="M 336.067773 436.424727 
Q 295.844564 443.519215 264.347873 467.24876 
" clip-path="url(#p053b5627dd)" style="fill: none; stroke: #0b0b0b; stroke-width: 1.3; stroke-linecap: round"/>
    <path d="M 269.905862 466.31669 
L 264.347873 467.24876 
L 266.776838 462.163474 
z
" clip-path="url(#p053b5627dd)" style="fill: #0b0b0b; stroke: #0b0b0b; stroke-width: 1.3; stroke-linecap: round"/>
   </g>
   <g id="patch_17">
    <path d="M 282.225682 349.010509 
Q 311.870504 357.245182 283.583182 365.102771 
" clip-path="url(#p053b5627dd)" style="fill: none; stroke: #0b0b0b; stroke-width: 1.3; stroke-linecap: round"/>
    <path d="M 289.096646 366.269698 
L 283.583182 365.102771 
L 287.704898 361.259405 
z
" clip-path="url(#p053b5627dd)" style="fill: #0b0b0b; stroke: #0b0b0b; stroke-width: 1.3; stroke-linecap: round"/>
   </g>
   <g id="patch_18">
    <path d="M 171.374318 417.421636 
Q 120.065973 388.917 170.142718 361.096586 
" clip-path="url(#p053b5627dd)" style="fill: none; stroke: #0b0b0b; stroke-width: 1.3; stroke-linecap: round"/>
    <path d="M 164.50926 361.251992 
L 170.142718 361.096586 
L 167.034603 365.79761 
z
" clip-path="url(#p053b5627dd)" style="fill: #0b0b0b; stroke: #0b0b0b; stroke-width: 1.3; stroke-linecap: round"/>
   </g>
   <g id="patch_19">
    <path d="M 175.808373 56.362909 
L 277.791627 56.362909 
Q 282.225682 56.362909 282.225682 51.928855 
L 282.225682 29.125145 
Q 282.225682 24.691091 277.791627 24.691091 
L 175.808373 24.691091 
Q 171.374318 24.691091 171.374318 29.125145 
L 171.374318 51.928855 
Q 171.374318 56.362909 175.808373 56.362909 
z
" clip-path="url(#p053b5627dd)" style="fill: #ffffff; stroke: #0b0b0b; stroke-width: 1.2; stroke-linejoin: miter"/>
   </g>
   <g id="patch_20">
    <path d="M 175.808373 119.706545 
L 277.791627 119.706545 
Q 282.225682 119.706545 282.225682 115.272491 
L 282.225682 92.468782 
Q 282.225682 88.034727 277.791627 88.034727 
L 175.808373 88.034727 
Q 171.374318 88.034727 171.374318 92.468782 
L 171.374318 115.272491 
Q 171.374318 119.706545 175.808373 119.706545 
z
" clip-path="url(#p053b5627dd)" style="fill: #ffffff; stroke: #0b0b0b; stroke-width: 1.2; stroke-linejoin: miter"/>
   </g>
   <g id="patch_21">
    <path d="M 175.808373 183.050182 
L 277.791627 183.050182 
Q 282.225682 183.050182 282.225682 178.616127 
L 282.225682 155.812418 
Q 282.225682 151.378364 277.791627 151.378364 
L 175.808373 151.378364 
Q 171.374318 151.378364 171.374318 155.812418 
L 171.374318 178.616127 
Q 171.374318 183.050182 175.808373 183.050182 
z
" clip-path="url(#p053b5627dd)" style="fill: #ffffff; stroke: #0b0b0b; stroke-width: 1.2; stroke-linejoin: miter"/>
   </g>
   <g id="patch_22">
    <path d="M 175.808373 246.393818 
L 277.791627 246.393818 
Q 282.225682 246.393818 282.225682 241.959764 
L 282.225682 219.156055 
Q 282.225682 214.722 277.791627 214.722 
L 175.808373 214.722 
Q 171.374318 214.722 171.374318 219.156055 
L 171.374318 241.959764 
Q 171.374318 246.393818 175.808373 246.393818 
z
" clip-path="url(#p053b5627dd)" style="fill: #ffffff; stroke: #0b0b0b; stroke-width: 1.2; stroke-linejoin: miter"/>
   </g>
   <g id="patch_23">
    <path d="M 175.808373 309.737455 
L 277.791627 309.737455 
Q 282.225682 309.737455 282.225682 305.3034 
L 282.225682 282.499691 
Q 282.225682 278.065636 277.791627 278.065636 
L 175.808373 278.065636 
Q 171.374318 278.065636 171.374318 282.499691 
L 171.374318 305.3034 
Q 171.374318 309.737455 175.808373 309.737455 
z
" clip-path="url(#p053b5627dd)" style="fill: #ffffff; stroke: #0b0b0b; stroke-width: 1.2; stroke-linejoin: miter"/>
   </g>
   <g id="patch_24">
    <path d="M 175.808373 373.081091 
L 277.791627 373.081091 
Q 282.225682 373.081091 282.225682 368.647036 
L 282.225682 345.843327 
Q 282.225682 341.409273 277.791627 341.409273 
L 175.808373 341.409273 
Q 171.374318 341.409273 171.374318 345.843327 
L 171.374318 368.647036 
Q 171.374318 373.081091 175.808373 373.081091 
z
" clip-path="url(#p053b5627dd)" style="fill: #ffffff; stroke: #0b0b0b; stroke-width: 1.2; stroke-linejoin: miter"/>
   </g>
   <g id="patch_25">
    <path d="M 175.808373 436.424727 
L 277.791627 436.424727 
Q 282.225682 436.424727 282.225682 431.990673 
L 282.225682 409.186964 
Q 282.225682 404.752909 277.791627 404.752909 
L 175.808373 404.752909 
Q 171.374318 404.752909 171.374318 409.186964 
L 171.374318 431.990673 
Q 171.374318 436.424727 175.808373 436.424727 
z
" clip-path="url(#p053b5627dd)" style="fill: #ffffff; stroke: #0b0b0b; stroke-width: 1.2; stroke-linejoin: miter"/>
   </g>
   <g id="patch_26">
    <path d="M 175.808373 499.768364 
L 277.791627 499.768364 
Q 282.225682 499.768364 282.225682 495.334309 
L 282.225682 472.5306 
Q 282.225682 468.096545 277.791627 468.096545 
L 175.808373 468.096545 
Q 171.374318 468.096545 171.374318 472.5306 
L 171.374318 495.334309 
Q 171.374318 499.768364 175.808373 499.768364 
z
" clip-path="url(#p053b5627dd)" style="fill: #cde2fb; stroke: #0b0b0b; stroke-width: 1.2; stroke-linejoin: miter"/>
   </g>
   <g id="patch_27">
    <path d="M 177.708682 495.967745 
L 275.891318 495.967745 
Q 278.425064 495.967745 278.425064 493.434 
L 278.425064 474.430909 
Q 278.425064 471.897164 275.891318 471.897164 
L 177.708682 471.897164 
Q 175.174936 471.897164 175.174936 474.430909 
L 175.174936 493.434 
Q 175.174936 495.967745 177.708682 495.967745 
L 177.708682 495.967745 
z
" clip-path="url(#p053b5627dd)" style="fill: none; stroke: #0b0b0b; stroke-width: 0.96; stroke-linejoin: miter"/>
   </g>
   <g id="patch_28">
    <path d="M 321.498736 151.378364 
L 423.481991 151.378364 
Q 427.916045 151.378364 427.916045 146.944309 
L 427.916045 124.1406 
Q 427.916045 119.706545 423.481991 119.706545 
L 321.498736 119.706545 
Q 317.064682 119.706545 317.064682 124.1406 
L 317.064682 146.944309 
Q 317.064682 151.378364 321.498736 151.378364 
z
" clip-path="url(#p053b5627dd)" style="fill: #ffffff; stroke: #0b0b0b; stroke-width: 1.2; stroke-linejoin: miter"/>
   </g>
   <g id="patch_29">
    <path d="M 321.498736 221.056364 
L 423.481991 221.056364 
Q 427.916045 221.056364 427.916045 216.622309 
L 427.916045 193.8186 
Q 427.916045 189.384545 423.481991 189.384545 
L 321.498736 189.384545 
Q 317.064682 189.384545 317.064682 193.8186 
L 317.064682 216.622309 
Q 317.064682 221.056364 321.498736 221.056364 
z
" clip-path="url(#p053b5627dd)" style="fill: #f0efec; stroke-dasharray: 4.44,1.92; stroke-dashoffset: 0; stroke: #0b0b0b; stroke-width: 1.2; stroke-linejoin: miter"/>
   </g>
   <g id="patch_30">
    <path d="M 323.399045 217.255745 
L 421.581682 217.255745 
Q 424.115427 217.255745 424.115427 214.722 
L 424.115427 195.718909 
Q 424.115427 193.185164 421.581682 193.185164 
L 323.399045 193.185164 
Q 320.8653 193.185164 320.8653 195.718909 
L 320.8653 214.722 
Q 320.8653 217.255745 323.399045 217.255745 
L 323.399045 217.255745 
z
" clip-path="url(#p053b5627dd)" style="fill: none; stroke: #0b0b0b; stroke-width: 0.96; stroke-linejoin: miter"/>
   </g>
   <g id="patch_31">
    <path d="M 30.118009 88.034727 
L 132.101264 88.034727 
Q 136.535318 88.034727 136.535318 83.600673 
L 136.535318 60.796964 
Q 136.535318 56.362909 132.101264 56.362909 
L 30.118009 56.362909 
Q 25.683955 56.362909 25.683955 60.796964 
L 25.683955 83.600673 
Q 25.683955 88.034727 30.118009 88.034727 
z
" clip-path="url(#p053b5627dd)" style="fill: #f0efec; stroke-dasharray: 4.44,1.92; stroke-dashoffset: 0; stroke: #0b0b0b; stroke-width: 1.2; stroke-linejoin: miter"/>
   </g>
   <g id="patch_32">
    <path d="M 32.018318 84.234109 
L 130.200955 84.234109 
Q 132.7347 84.234109 132.7347 81.700364 
L 132.7347 62.697273 
Q 132.7347 60.163527 130.200955 60.163527 
L 32.018318 60.163527 
Q 29.484573 60.163527 29.484573 62.697273 
L 29.484573 81.700364 
Q 29.484573 84.234109 32.018318 84.234109 
L 32.018318 84.234109 
z
" clip-path="url(#p053b5627dd)" style="fill: none; stroke: #0b0b0b; stroke-width: 0.96; stroke-linejoin: miter"/>
   </g>
   <g id="patch_33">
    <path d="M 30.118009 278.065636 
L 132.101264 278.065636 
Q 136.535318 278.065636 136.535318 273.631582 
L 136.535318 250.827873 
Q 136.535318 246.393818 132.101264 246.393818 
L 30.118009 246.393818 
Q 25.683955 246.393818 25.683955 250.827873 
L 25.683955 273.631582 
Q 25.683955 278.065636 30.118009 278.065636 
z
" clip-path="url(#p053b5627dd)" style="fill: #f0efec; stroke-dasharray: 4.44,1.92; stroke-dashoffset: 0; stroke: #0b0b0b; stroke-width: 1.2; stroke-linejoin: miter"/>
   </g>
   <g id="patch_34">
    <path d="M 32.018318 274.265018 
L 130.200955 274.265018 
Q 132.7347 274.265018 132.7347 271.731273 
L 132.7347 252.728182 
Q 132.7347 250.194436 130.200955 250.194436 
L 32.018318 250.194436 
Q 29.484573 250.194436 29.484573 252.728182 
L 29.484573 271.731273 
Q 29.484573 274.265018 32.018318 274.265018 
L 32.018318 274.265018 
z
" clip-path="url(#p053b5627dd)" style="fill: none; stroke: #0b0b0b; stroke-width: 0.96; stroke-linejoin: miter"/>
   </g>
   <g id="patch_35">
    <path d="M 321.498736 436.424727 
L 423.481991 436.424727 
Q 427.916045 436.424727 427.916045 431.990673 
L 427.916045 409.186964 
Q 427.916045 404.752909 423.481991 404.752909 
L 321.498736 404.752909 
Q 317.064682 404.752909 317.064682 409.186964 
L 317.064682 431.990673 
Q 317.064682 436.424727 321.498736 436.424727 
z
" clip-path="url(#p053b5627dd)" style="fill: #ffffff; stroke: #0b0b0b; stroke-width: 1.2; stroke-linejoin: miter"/>
   </g>
   <g id="patch_36">
    <path d="M 37.402527 546.009218 
L 55.138745 546.009218 
Q 59.5728 546.009218 59.5728 541.575164 
L 59.5728 533.973927 
Q 59.5728 529.539873 55.138745 529.539873 
L 37.402527 529.539873 
Q 32.968473 529.539873 32.968473 533.973927 
L 32.968473 541.575164 
Q 32.968473 546.009218 37.402527 546.009218 
z
" clip-path="url(#p053b5627dd)" style="fill: #ffffff; stroke: #0b0b0b; stroke-width: 1.2; stroke-linejoin: miter"/>
   </g>
   <g id="patch_37">
    <path d="M 183.092891 546.009218 
L 200.829109 546.009218 
Q 205.263164 546.009218 205.263164 541.575164 
L 205.263164 533.973927 
Q 205.263164 529.539873 200.829109 529.539873 
L 183.092891 529.539873 
Q 178.658836 529.539873 178.658836 533.973927 
L 178.658836 541.575164 
Q 178.658836 546.009218 183.092891 546.009218 
z
" clip-path="url(#p053b5627dd)" style="fill: #cde2fb; stroke: #0b0b0b; stroke-width: 1.2; stroke-linejoin: miter"/>
   </g>
   <g id="patch_38">
    <path d="M 184.9932 542.2086 
L 198.9288 542.2086 
Q 201.462545 542.2086 201.462545 539.674855 
L 201.462545 535.874236 
Q 201.462545 533.340491 198.9288 533.340491 
L 184.9932 533.340491 
Q 182.459455 533.340491 182.459455 535.874236 
L 182.459455 539.674855 
Q 182.459455 542.2086 184.9932 542.2086 
L 184.9932 542.2086 
z
" clip-path="url(#p053b5627dd)" style="fill: none; stroke: #0b0b0b; stroke-width: 0.96; stroke-linejoin: miter"/>
   </g>
   <g id="patch_39">
    <path d="M 316.114527 546.009218 
L 333.850745 546.009218 
Q 338.2848 546.009218 338.2848 541.575164 
L 338.2848 533.973927 
Q 338.2848 529.539873 333.850745 529.539873 
L 316.114527 529.539873 
Q 311.680473 529.539873 311.680473 533.973927 
L 311.680473 541.575164 
Q 311.680473 546.009218 316.114527 546.009218 
z
" clip-path="url(#p053b5627dd)" style="fill: #f0efec; stroke-dasharray: 4.44,1.92; stroke-dashoffset: 0; stroke: #0b0b0b; stroke-width: 1.2; stroke-linejoin: miter"/>
   </g>
   <g id="patch_40">
    <path d="M 318.014836 542.2086 
L 331.950436 542.2086 
Q 334.484182 542.2086 334.484182 539.674855 
L 334.484182 535.874236 
Q 334.484182 533.340491 331.950436 533.340491 
L 318.014836 533.340491 
Q 315.481091 533.340491 315.481091 535.874236 
L 315.481091 539.674855 
Q 315.481091 542.2086 318.014836 542.2086 
L 318.014836 542.2086 
z
" clip-path="url(#p053b5627dd)" style="fill: none; stroke: #0b0b0b; stroke-width: 0.96; stroke-linejoin: miter"/>
   </g>
   <g id="text_1">
    <!-- UPLOADED -->
    <g style="fill: #0b0b0b" transform="translate(202.45125 42.7345) scale(0.08 -0.08)">
     <defs>
      <path id="DejaVuSans-Bold-55" d="M 588 4666 
L 1791 4666 
L 1791 1869 
Q 1791 1291 1980 1042 
Q 2169 794 2597 794 
Q 3028 794 3217 1042 
Q 3406 1291 3406 1869 
L 3406 4666 
L 4609 4666 
L 4609 1869 
Q 4609 878 4112 393 
Q 3616 -91 2597 -91 
Q 1581 -91 1084 393 
Q 588 878 588 1869 
L 588 4666 
z
" transform="scale(0.015625)"/>
      <path id="DejaVuSans-Bold-50" d="M 588 4666 
L 2584 4666 
Q 3475 4666 3951 4270 
Q 4428 3875 4428 3144 
Q 4428 2409 3951 2014 
Q 3475 1619 2584 1619 
L 1791 1619 
L 1791 0 
L 588 0 
L 588 4666 
z
M 1791 3794 
L 1791 2491 
L 2456 2491 
Q 2806 2491 2997 2661 
Q 3188 2831 3188 3144 
Q 3188 3456 2997 3625 
Q 2806 3794 2456 3794 
L 1791 3794 
z
" transform="scale(0.015625)"/>
      <path id="DejaVuSans-Bold-4c" d="M 588 4666 
L 1791 4666 
L 1791 909 
L 3903 909 
L 3903 0 
L 588 0 
L 588 4666 
z
" transform="scale(0.015625)"/>
      <path id="DejaVuSans-Bold-4f" d="M 2719 3878 
Q 2169 3878 1866 3472 
Q 1563 3066 1563 2328 
Q 1563 1594 1866 1187 
Q 2169 781 2719 781 
Q 3272 781 3575 1187 
Q 3878 1594 3878 2328 
Q 3878 3066 3575 3472 
Q 3272 3878 2719 3878 
z
M 2719 4750 
Q 3844 4750 4481 4106 
Q 5119 3463 5119 2328 
Q 5119 1197 4481 553 
Q 3844 -91 2719 -91 
Q 1597 -91 958 553 
Q 319 1197 319 2328 
Q 319 3463 958 4106 
Q 1597 4750 2719 4750 
z
" transform="scale(0.015625)"/>
      <path id="DejaVuSans-Bold-41" d="M 3419 850 
L 1538 850 
L 1241 0 
L 31 0 
L 1759 4666 
L 3194 4666 
L 4922 0 
L 3713 0 
L 3419 850 
z
M 1838 1716 
L 3116 1716 
L 2478 3572 
L 1838 1716 
z
" transform="scale(0.015625)"/>
      <path id="DejaVuSans-Bold-44" d="M 1791 3756 
L 1791 909 
L 2222 909 
Q 2959 909 3348 1275 
Q 3738 1641 3738 2338 
Q 3738 3031 3350 3393 
Q 2963 3756 2222 3756 
L 1791 3756 
z
M 588 4666 
L 1856 4666 
Q 2919 4666 3439 4514 
Q 3959 4363 4331 4000 
Q 4659 3684 4818 3271 
Q 4978 2859 4978 2338 
Q 4978 1809 4818 1395 
Q 4659 981 4331 666 
Q 3956 303 3431 151 
Q 2906 0 1856 0 
L 588 0 
L 588 4666 
z
" transform="scale(0.015625)"/>
      <path id="DejaVuSans-Bold-45" d="M 588 4666 
L 3834 4666 
L 3834 3756 
L 1791 3756 
L 1791 2888 
L 3713 2888 
L 3713 1978 
L 1791 1978 
L 1791 909 
L 3903 909 
L 3903 0 
L 588 0 
L 588 4666 
z
" transform="scale(0.015625)"/>
     </defs>
     <use xlink:href="#DejaVuSans-Bold-55"/>
     <use xlink:href="#DejaVuSans-Bold-50" x="81.201172"/>
     <use xlink:href="#DejaVuSans-Bold-4c" x="154.492188"/>
     <use xlink:href="#DejaVuSans-Bold-4f" x="214.587891"/>
     <use xlink:href="#DejaVuSans-Bold-41" x="296.972656"/>
     <use xlink:href="#DejaVuSans-Bold-44" x="374.365234"/>
     <use xlink:href="#DejaVuSans-Bold-45" x="457.373047"/>
     <use xlink:href="#DejaVuSans-Bold-44" x="525.683594"/>
    </g>
   </g>
   <g id="text_2">
    <!-- INGESTING -->
    <g style="fill: #0b0b0b" transform="translate(204.74625 106.078136) scale(0.08 -0.08)">
     <defs>
      <path id="DejaVuSans-49" d="M 628 4666 
L 1259 4666 
L 1259 0 
L 628 0 
L 628 4666 
z
" transform="scale(0.015625)"/>
      <path id="DejaVuSans-4e" d="M 628 4666 
L 1478 4666 
L 3547 763 
L 3547 4666 
L 4159 4666 
L 4159 0 
L 3309 0 
L 1241 3903 
L 1241 0 
L 628 0 
L 628 4666 
z
" transform="scale(0.015625)"/>
      <path id="DejaVuSans-47" d="M 3809 666 
L 3809 1919 
L 2778 1919 
L 2778 2438 
L 4434 2438 
L 4434 434 
Q 4069 175 3628 42 
Q 3188 -91 2688 -91 
Q 1594 -91 976 548 
Q 359 1188 359 2328 
Q 359 3472 976 4111 
Q 1594 4750 2688 4750 
Q 3144 4750 3555 4637 
Q 3966 4525 4313 4306 
L 4313 3634 
Q 3963 3931 3569 4081 
Q 3175 4231 2741 4231 
Q 1884 4231 1454 3753 
Q 1025 3275 1025 2328 
Q 1025 1384 1454 906 
Q 1884 428 2741 428 
Q 3075 428 3337 486 
Q 3600 544 3809 666 
z
" transform="scale(0.015625)"/>
      <path id="DejaVuSans-45" d="M 628 4666 
L 3578 4666 
L 3578 4134 
L 1259 4134 
L 1259 2753 
L 3481 2753 
L 3481 2222 
L 1259 2222 
L 1259 531 
L 3634 531 
L 3634 0 
L 628 0 
L 628 4666 
z
" transform="scale(0.015625)"/>
      <path id="DejaVuSans-53" d="M 3425 4513 
L 3425 3897 
Q 3066 4069 2747 4153 
Q 2428 4238 2131 4238 
Q 1616 4238 1336 4038 
Q 1056 3838 1056 3469 
Q 1056 3159 1242 3001 
Q 1428 2844 1947 2747 
L 2328 2669 
Q 3034 2534 3370 2195 
Q 3706 1856 3706 1288 
Q 3706 609 3251 259 
Q 2797 -91 1919 -91 
Q 1588 -91 1214 -16 
Q 841 59 441 206 
L 441 856 
Q 825 641 1194 531 
Q 1563 422 1919 422 
Q 2459 422 2753 634 
Q 3047 847 3047 1241 
Q 3047 1584 2836 1778 
Q 2625 1972 2144 2069 
L 1759 2144 
Q 1053 2284 737 2584 
Q 422 2884 422 3419 
Q 422 4038 858 4394 
Q 1294 4750 2059 4750 
Q 2388 4750 2728 4690 
Q 3069 4631 3425 4513 
z
" transform="scale(0.015625)"/>
      <path id="DejaVuSans-54" d="M -19 4666 
L 3928 4666 
L 3928 4134 
L 2272 4134 
L 2272 0 
L 1638 0 
L 1638 4134 
L -19 4134 
L -19 4666 
z
" transform="scale(0.015625)"/>
     </defs>
     <use xlink:href="#DejaVuSans-49"/>
     <use xlink:href="#DejaVuSans-4e" x="29.492188"/>
     <use xlink:href="#DejaVuSans-47" x="104.296875"/>
     <use xlink:href="#DejaVuSans-45" x="181.787109"/>
     <use xlink:href="#DejaVuSans-53" x="244.970703"/>
     <use xlink:href="#DejaVuSans-54" x="308.447266"/>
     <use xlink:href="#DejaVuSans-49" x="369.53125"/>
     <use xlink:href="#DejaVuSans-4e" x="399.023438"/>
     <use xlink:href="#DejaVuSans-47" x="473.828125"/>
    </g>
   </g>
   <g id="text_3">
    <!-- TEXT_EXTRACTED -->
    <g style="fill: #0b0b0b" transform="translate(190.94625 169.239898) scale(0.08 -0.08)">
     <defs>
      <path id="DejaVuSans-58" d="M 403 4666 
L 1081 4666 
L 2241 2931 
L 3406 4666 
L 4084 4666 
L 2584 2425 
L 4184 0 
L 3506 0 
L 2194 1984 
L 872 0 
L 191 0 
L 1856 2491 
L 403 4666 
z
" transform="scale(0.015625)"/>
      <path id="DejaVuSans-5f" d="M 3263 -1063 
L 3263 -1509 
L -63 -1509 
L -63 -1063 
L 3263 -1063 
z
" transform="scale(0.015625)"/>
      <path id="DejaVuSans-52" d="M 2841 2188 
Q 3044 2119 3236 1894 
Q 3428 1669 3622 1275 
L 4263 0 
L 3584 0 
L 2988 1197 
Q 2756 1666 2539 1819 
Q 2322 1972 1947 1972 
L 1259 1972 
L 1259 0 
L 628 0 
L 628 4666 
L 2053 4666 
Q 2853 4666 3247 4331 
Q 3641 3997 3641 3322 
Q 3641 2881 3436 2590 
Q 3231 2300 2841 2188 
z
M 1259 4147 
L 1259 2491 
L 2053 2491 
Q 2509 2491 2742 2702 
Q 2975 2913 2975 3322 
Q 2975 3731 2742 3939 
Q 2509 4147 2053 4147 
L 1259 4147 
z
" transform="scale(0.015625)"/>
      <path id="DejaVuSans-41" d="M 2188 4044 
L 1331 1722 
L 3047 1722 
L 2188 4044 
z
M 1831 4666 
L 2547 4666 
L 4325 0 
L 3669 0 
L 3244 1197 
L 1141 1197 
L 716 0 
L 50 0 
L 1831 4666 
z
" transform="scale(0.015625)"/>
      <path id="DejaVuSans-43" d="M 4122 4306 
L 4122 3641 
Q 3803 3938 3442 4084 
Q 3081 4231 2675 4231 
Q 1875 4231 1450 3742 
Q 1025 3253 1025 2328 
Q 1025 1406 1450 917 
Q 1875 428 2675 428 
Q 3081 428 3442 575 
Q 3803 722 4122 1019 
L 4122 359 
Q 3791 134 3420 21 
Q 3050 -91 2638 -91 
Q 1578 -91 968 557 
Q 359 1206 359 2328 
Q 359 3453 968 4101 
Q 1578 4750 2638 4750 
Q 3056 4750 3426 4639 
Q 3797 4528 4122 4306 
z
" transform="scale(0.015625)"/>
      <path id="DejaVuSans-44" d="M 1259 4147 
L 1259 519 
L 2022 519 
Q 2988 519 3436 956 
Q 3884 1394 3884 2338 
Q 3884 3275 3436 3711 
Q 2988 4147 2022 4147 
L 1259 4147 
z
M 628 4666 
L 1925 4666 
Q 3281 4666 3915 4102 
Q 4550 3538 4550 2338 
Q 4550 1131 3912 565 
Q 3275 0 1925 0 
L 628 0 
L 628 4666 
z
" transform="scale(0.015625)"/>
     </defs>
     <use xlink:href="#DejaVuSans-54"/>
     <use xlink:href="#DejaVuSans-45" x="61.083984"/>
     <use xlink:href="#DejaVuSans-58" x="124.267578"/>
     <use xlink:href="#DejaVuSans-54" x="191.023438"/>
     <use xlink:href="#DejaVuSans-5f" x="252.107422"/>
     <use xlink:href="#DejaVuSans-45" x="302.107422"/>
     <use xlink:href="#DejaVuSans-58" x="365.291016"/>
     <use xlink:href="#DejaVuSans-54" x="432.046875"/>
     <use xlink:href="#DejaVuSans-52" x="493.130859"/>
     <use xlink:href="#DejaVuSans-41" x="558.613281"/>
     <use xlink:href="#DejaVuSans-43" x="625.271484"/>
     <use xlink:href="#DejaVuSans-54" x="695.095703"/>
     <use xlink:href="#DejaVuSans-45" x="756.179688"/>
     <use xlink:href="#DejaVuSans-44" x="819.363281"/>
    </g>
   </g>
   <g id="text_4">
    <!-- PARSING -->
    <g style="fill: #0b0b0b" transform="translate(209.31625 232.765409) scale(0.08 -0.08)">
     <defs>
      <path id="DejaVuSans-50" d="M 1259 4147 
L 1259 2394 
L 2053 2394 
Q 2494 2394 2734 2622 
Q 2975 2850 2975 3272 
Q 2975 3691 2734 3919 
Q 2494 4147 2053 4147 
L 1259 4147 
z
M 628 4666 
L 2053 4666 
Q 2838 4666 3239 4311 
Q 3641 3956 3641 3272 
Q 3641 2581 3239 2228 
Q 2838 1875 2053 1875 
L 1259 1875 
L 1259 0 
L 628 0 
L 628 4666 
z
" transform="scale(0.015625)"/>
     </defs>
     <use xlink:href="#DejaVuSans-50"/>
     <use xlink:href="#DejaVuSans-41" x="53.927734"/>
     <use xlink:href="#DejaVuSans-52" x="122.335938"/>
     <use xlink:href="#DejaVuSans-53" x="191.818359"/>
     <use xlink:href="#DejaVuSans-49" x="255.294922"/>
     <use xlink:href="#DejaVuSans-4e" x="284.787109"/>
     <use xlink:href="#DejaVuSans-47" x="359.591797"/>
    </g>
   </g>
   <g id="text_5">
    <!-- GROUNDED -->
    <g style="fill: #0b0b0b" transform="translate(203.165 296.109045) scale(0.08 -0.08)">
     <defs>
      <path id="DejaVuSans-4f" d="M 2522 4238 
Q 1834 4238 1429 3725 
Q 1025 3213 1025 2328 
Q 1025 1447 1429 934 
Q 1834 422 2522 422 
Q 3209 422 3611 934 
Q 4013 1447 4013 2328 
Q 4013 3213 3611 3725 
Q 3209 4238 2522 4238 
z
M 2522 4750 
Q 3503 4750 4090 4092 
Q 4678 3434 4678 2328 
Q 4678 1225 4090 567 
Q 3503 -91 2522 -91 
Q 1538 -91 948 565 
Q 359 1222 359 2328 
Q 359 3434 948 4092 
Q 1538 4750 2522 4750 
z
" transform="scale(0.015625)"/>
      <path id="DejaVuSans-55" d="M 556 4666 
L 1191 4666 
L 1191 1831 
Q 1191 1081 1462 751 
Q 1734 422 2344 422 
Q 2950 422 3222 751 
Q 3494 1081 3494 1831 
L 3494 4666 
L 4128 4666 
L 4128 1753 
Q 4128 841 3676 375 
Q 3225 -91 2344 -91 
Q 1459 -91 1007 375 
Q 556 841 556 1753 
L 556 4666 
z
" transform="scale(0.015625)"/>
     </defs>
     <use xlink:href="#DejaVuSans-47"/>
     <use xlink:href="#DejaVuSans-52" x="77.490234"/>
     <use xlink:href="#DejaVuSans-4f" x="146.972656"/>
     <use xlink:href="#DejaVuSans-55" x="225.683594"/>
     <use xlink:href="#DejaVuSans-4e" x="298.876953"/>
     <use xlink:href="#DejaVuSans-44" x="373.681641"/>
     <use xlink:href="#DejaVuSans-45" x="450.683594"/>
     <use xlink:href="#DejaVuSans-44" x="513.867188"/>
    </g>
   </g>
   <g id="text_6">
    <!-- GENERATING -->
    <g style="fill: #0b0b0b" transform="translate(200.8925 359.452682) scale(0.08 -0.08)">
     <use xlink:href="#DejaVuSans-47"/>
     <use xlink:href="#DejaVuSans-45" x="77.490234"/>
     <use xlink:href="#DejaVuSans-4e" x="140.673828"/>
     <use xlink:href="#DejaVuSans-45" x="215.478516"/>
     <use xlink:href="#DejaVuSans-52" x="278.662109"/>
     <use xlink:href="#DejaVuSans-41" x="344.144531"/>
     <use xlink:href="#DejaVuSans-54" x="404.802734"/>
     <use xlink:href="#DejaVuSans-49" x="465.886719"/>
     <use xlink:href="#DejaVuSans-4e" x="495.378906"/>
     <use xlink:href="#DejaVuSans-47" x="570.183594"/>
    </g>
   </g>
   <g id="text_7">
    <!-- VERIFYING -->
    <g style="fill: #0b0b0b" transform="translate(205.56125 422.796318) scale(0.08 -0.08)">
     <defs>
      <path id="DejaVuSans-56" d="M 1831 0 
L 50 4666 
L 709 4666 
L 2188 738 
L 3669 4666 
L 4325 4666 
L 2547 0 
L 1831 0 
z
" transform="scale(0.015625)"/>
      <path id="DejaVuSans-46" d="M 628 4666 
L 3309 4666 
L 3309 4134 
L 1259 4134 
L 1259 2759 
L 3109 2759 
L 3109 2228 
L 1259 2228 
L 1259 0 
L 628 0 
L 628 4666 
z
" transform="scale(0.015625)"/>
      <path id="DejaVuSans-59" d="M -13 4666 
L 666 4666 
L 1959 2747 
L 3244 4666 
L 3922 4666 
L 2272 2222 
L 2272 0 
L 1638 0 
L 1638 2222 
L -13 4666 
z
" transform="scale(0.015625)"/>
     </defs>
     <use xlink:href="#DejaVuSans-56"/>
     <use xlink:href="#DejaVuSans-45" x="68.408203"/>
     <use xlink:href="#DejaVuSans-52" x="131.591797"/>
     <use xlink:href="#DejaVuSans-49" x="201.074219"/>
     <use xlink:href="#DejaVuSans-46" x="230.566406"/>
     <use xlink:href="#DejaVuSans-59" x="288.085938"/>
     <use xlink:href="#DejaVuSans-49" x="349.169922"/>
     <use xlink:href="#DejaVuSans-4e" x="378.662109"/>
     <use xlink:href="#DejaVuSans-47" x="453.466797"/>
    </g>
   </g>
   <g id="text_8">
    <!-- DELIVERED -->
    <g style="fill: #0b0b0b" transform="translate(201.74875 486.139955) scale(0.08 -0.08)">
     <defs>
      <path id="DejaVuSans-Bold-49" d="M 588 4666 
L 1791 4666 
L 1791 0 
L 588 0 
L 588 4666 
z
" transform="scale(0.015625)"/>
      <path id="DejaVuSans-Bold-56" d="M 31 4666 
L 1241 4666 
L 2478 1222 
L 3713 4666 
L 4922 4666 
L 3194 0 
L 1759 0 
L 31 4666 
z
" transform="scale(0.015625)"/>
      <path id="DejaVuSans-Bold-52" d="M 2297 2597 
Q 2675 2597 2839 2737 
Q 3003 2878 3003 3200 
Q 3003 3519 2839 3656 
Q 2675 3794 2297 3794 
L 1791 3794 
L 1791 2597 
L 2297 2597 
z
M 1791 1766 
L 1791 0 
L 588 0 
L 588 4666 
L 2425 4666 
Q 3347 4666 3776 4356 
Q 4206 4047 4206 3378 
Q 4206 2916 3982 2619 
Q 3759 2322 3309 2181 
Q 3556 2125 3751 1926 
Q 3947 1728 4147 1325 
L 4800 0 
L 3519 0 
L 2950 1159 
Q 2778 1509 2601 1637 
Q 2425 1766 2131 1766 
L 1791 1766 
z
" transform="scale(0.015625)"/>
     </defs>
     <use xlink:href="#DejaVuSans-Bold-44"/>
     <use xlink:href="#DejaVuSans-Bold-45" x="83.007812"/>
     <use xlink:href="#DejaVuSans-Bold-4c" x="151.318359"/>
     <use xlink:href="#DejaVuSans-Bold-49" x="215.039062"/>
     <use xlink:href="#DejaVuSans-Bold-56" x="252.246094"/>
     <use xlink:href="#DejaVuSans-Bold-45" x="329.638672"/>
     <use xlink:href="#DejaVuSans-Bold-52" x="397.949219"/>
     <use xlink:href="#DejaVuSans-Bold-45" x="474.951172"/>
     <use xlink:href="#DejaVuSans-Bold-44" x="543.261719"/>
    </g>
   </g>
   <g id="text_9">
    <!-- OCR_RUNNING -->
    <g style="fill: #0b0b0b" transform="translate(342.805364 137.56808) scale(0.08 -0.08)">
     <use xlink:href="#DejaVuSans-4f"/>
     <use xlink:href="#DejaVuSans-43" x="78.710938"/>
     <use xlink:href="#DejaVuSans-52" x="148.535156"/>
     <use xlink:href="#DejaVuSans-5f" x="218.017578"/>
     <use xlink:href="#DejaVuSans-52" x="268.017578"/>
     <use xlink:href="#DejaVuSans-55" x="337.5"/>
     <use xlink:href="#DejaVuSans-4e" x="410.693359"/>
     <use xlink:href="#DejaVuSans-4e" x="485.498047"/>
     <use xlink:href="#DejaVuSans-49" x="560.302734"/>
     <use xlink:href="#DejaVuSans-4e" x="589.794922"/>
     <use xlink:href="#DejaVuSans-47" x="664.599609"/>
    </g>
   </g>
   <g id="text_10">
    <!-- FAILED_INGESTION -->
    <g style="fill: #0b0b0b" transform="translate(334.699114 207.24608) scale(0.08 -0.08)">
     <defs>
      <path id="DejaVuSans-4c" d="M 628 4666 
L 1259 4666 
L 1259 531 
L 3531 531 
L 3531 0 
L 628 0 
L 628 4666 
z
" transform="scale(0.015625)"/>
     </defs>
     <use xlink:href="#DejaVuSans-46"/>
     <use xlink:href="#DejaVuSans-41" x="48.394531"/>
     <use xlink:href="#DejaVuSans-49" x="116.802734"/>
     <use xlink:href="#DejaVuSans-4c" x="146.294922"/>
     <use xlink:href="#DejaVuSans-45" x="202.007812"/>
     <use xlink:href="#DejaVuSans-44" x="265.191406"/>
     <use xlink:href="#DejaVuSans-5f" x="342.193359"/>
     <use xlink:href="#DejaVuSans-49" x="392.193359"/>
     <use xlink:href="#DejaVuSans-4e" x="421.685547"/>
     <use xlink:href="#DejaVuSans-47" x="496.490234"/>
     <use xlink:href="#DejaVuSans-45" x="573.980469"/>
     <use xlink:href="#DejaVuSans-53" x="637.164062"/>
     <use xlink:href="#DejaVuSans-54" x="700.640625"/>
     <use xlink:href="#DejaVuSans-49" x="761.724609"/>
     <use xlink:href="#DejaVuSans-4f" x="791.216797"/>
     <use xlink:href="#DejaVuSans-4e" x="869.927734"/>
    </g>
   </g>
   <g id="text_11">
    <!-- REJECTED -->
    <g style="fill: #0b0b0b" transform="translate(61.251511 74.406318) scale(0.08 -0.08)">
     <defs>
      <path id="DejaVuSans-4a" d="M 628 4666 
L 1259 4666 
L 1259 325 
Q 1259 -519 939 -900 
Q 619 -1281 -91 -1281 
L -331 -1281 
L -331 -750 
L -134 -750 
Q 284 -750 456 -515 
Q 628 -281 628 325 
L 628 4666 
z
" transform="scale(0.015625)"/>
     </defs>
     <use xlink:href="#DejaVuSans-52"/>
     <use xlink:href="#DejaVuSans-45" x="69.482422"/>
     <use xlink:href="#DejaVuSans-4a" x="132.666016"/>
     <use xlink:href="#DejaVuSans-45" x="162.158203"/>
     <use xlink:href="#DejaVuSans-43" x="225.341797"/>
     <use xlink:href="#DejaVuSans-54" x="295.166016"/>
     <use xlink:href="#DejaVuSans-45" x="356.25"/>
     <use xlink:href="#DejaVuSans-44" x="419.433594"/>
    </g>
   </g>
   <g id="text_12">
    <!-- NO_FINDINGS -->
    <g style="fill: #0b0b0b" transform="translate(53.604011 264.255352) scale(0.08 -0.08)">
     <use xlink:href="#DejaVuSans-4e"/>
     <use xlink:href="#DejaVuSans-4f" x="74.804688"/>
     <use xlink:href="#DejaVuSans-5f" x="153.515625"/>
     <use xlink:href="#DejaVuSans-46" x="203.515625"/>
     <use xlink:href="#DejaVuSans-49" x="261.035156"/>
     <use xlink:href="#DejaVuSans-4e" x="290.527344"/>
     <use xlink:href="#DejaVuSans-44" x="365.332031"/>
     <use xlink:href="#DejaVuSans-49" x="442.333984"/>
     <use xlink:href="#DejaVuSans-4e" x="471.826172"/>
     <use xlink:href="#DejaVuSans-47" x="546.630859"/>
     <use xlink:href="#DejaVuSans-53" x="624.121094"/>
    </g>
   </g>
   <g id="text_13">
    <!-- TEMPLATE_FALLBACK -->
    <g style="fill: #0b0b0b" transform="translate(329.984739 422.614443) scale(0.08 -0.08)">
     <defs>
      <path id="DejaVuSans-4d" d="M 628 4666 
L 1569 4666 
L 2759 1491 
L 3956 4666 
L 4897 4666 
L 4897 0 
L 4281 0 
L 4281 4097 
L 3078 897 
L 2444 897 
L 1241 4097 
L 1241 0 
L 628 0 
L 628 4666 
z
" transform="scale(0.015625)"/>
      <path id="DejaVuSans-42" d="M 1259 2228 
L 1259 519 
L 2272 519 
Q 2781 519 3026 730 
Q 3272 941 3272 1375 
Q 3272 1813 3026 2020 
Q 2781 2228 2272 2228 
L 1259 2228 
z
M 1259 4147 
L 1259 2741 
L 2194 2741 
Q 2656 2741 2882 2914 
Q 3109 3088 3109 3444 
Q 3109 3797 2882 3972 
Q 2656 4147 2194 4147 
L 1259 4147 
z
M 628 4666 
L 2241 4666 
Q 2963 4666 3353 4366 
Q 3744 4066 3744 3513 
Q 3744 3084 3544 2831 
Q 3344 2578 2956 2516 
Q 3422 2416 3680 2098 
Q 3938 1781 3938 1306 
Q 3938 681 3513 340 
Q 3088 0 2303 0 
L 628 0 
L 628 4666 
z
" transform="scale(0.015625)"/>
      <path id="DejaVuSans-4b" d="M 628 4666 
L 1259 4666 
L 1259 2694 
L 3353 4666 
L 4166 4666 
L 1850 2491 
L 4331 0 
L 3500 0 
L 1259 2247 
L 1259 0 
L 628 0 
L 628 4666 
z
" transform="scale(0.015625)"/>
     </defs>
     <use xlink:href="#DejaVuSans-54"/>
     <use xlink:href="#DejaVuSans-45" x="61.083984"/>
     <use xlink:href="#DejaVuSans-4d" x="124.267578"/>
     <use xlink:href="#DejaVuSans-50" x="210.546875"/>
     <use xlink:href="#DejaVuSans-4c" x="270.849609"/>
     <use xlink:href="#DejaVuSans-41" x="328.8125"/>
     <use xlink:href="#DejaVuSans-54" x="389.470703"/>
     <use xlink:href="#DejaVuSans-45" x="450.554688"/>
     <use xlink:href="#DejaVuSans-5f" x="513.738281"/>
     <use xlink:href="#DejaVuSans-46" x="563.738281"/>
     <use xlink:href="#DejaVuSans-41" x="612.132812"/>
     <use xlink:href="#DejaVuSans-4c" x="680.541016"/>
     <use xlink:href="#DejaVuSans-4c" x="736.253906"/>
     <use xlink:href="#DejaVuSans-42" x="791.966797"/>
     <use xlink:href="#DejaVuSans-41" x="860.570312"/>
     <use xlink:href="#DejaVuSans-43" x="927.228516"/>
     <use xlink:href="#DejaVuSans-4b" x="997.052734"/>
    </g>
   </g>
   <g id="text_14">
    <!-- përjashtim: -->
    <g style="fill: #52514e" transform="translate(308.830009 355.25751) scale(0.07 -0.07)">
     <defs>
      <path id="DejaVuSans-70" d="M 1159 525 
L 1159 -1331 
L 581 -1331 
L 581 3500 
L 1159 3500 
L 1159 2969 
Q 1341 3281 1617 3432 
Q 1894 3584 2278 3584 
Q 2916 3584 3314 3078 
Q 3713 2572 3713 1747 
Q 3713 922 3314 415 
Q 2916 -91 2278 -91 
Q 1894 -91 1617 61 
Q 1341 213 1159 525 
z
M 3116 1747 
Q 3116 2381 2855 2742 
Q 2594 3103 2138 3103 
Q 1681 3103 1420 2742 
Q 1159 2381 1159 1747 
Q 1159 1113 1420 752 
Q 1681 391 2138 391 
Q 2594 391 2855 752 
Q 3116 1113 3116 1747 
z
" transform="scale(0.015625)"/>
      <path id="DejaVuSans-eb" d="M 3597 1894 
L 3597 1613 
L 953 1613 
Q 991 1019 1311 708 
Q 1631 397 2203 397 
Q 2534 397 2845 478 
Q 3156 559 3463 722 
L 3463 178 
Q 3153 47 2828 -22 
Q 2503 -91 2169 -91 
Q 1331 -91 842 396 
Q 353 884 353 1716 
Q 353 2575 817 3079 
Q 1281 3584 2069 3584 
Q 2775 3584 3186 3129 
Q 3597 2675 3597 1894 
z
M 3022 2063 
Q 3016 2534 2758 2815 
Q 2500 3097 2075 3097 
Q 1594 3097 1305 2825 
Q 1016 2553 972 2059 
L 3022 2063 
z
M 2326 4850 
L 2960 4850 
L 2960 4219 
L 2326 4219 
L 2326 4850 
z
M 1104 4850 
L 1738 4850 
L 1738 4219 
L 1104 4219 
L 1104 4850 
z
" transform="scale(0.015625)"/>
      <path id="DejaVuSans-72" d="M 2631 2963 
Q 2534 3019 2420 3045 
Q 2306 3072 2169 3072 
Q 1681 3072 1420 2755 
Q 1159 2438 1159 1844 
L 1159 0 
L 581 0 
L 581 3500 
L 1159 3500 
L 1159 2956 
Q 1341 3275 1631 3429 
Q 1922 3584 2338 3584 
Q 2397 3584 2469 3576 
Q 2541 3569 2628 3553 
L 2631 2963 
z
" transform="scale(0.015625)"/>
      <path id="DejaVuSans-6a" d="M 603 3500 
L 1178 3500 
L 1178 -63 
Q 1178 -731 923 -1031 
Q 669 -1331 103 -1331 
L -116 -1331 
L -116 -844 
L 38 -844 
Q 366 -844 484 -692 
Q 603 -541 603 -63 
L 603 3500 
z
M 603 4863 
L 1178 4863 
L 1178 4134 
L 603 4134 
L 603 4863 
z
" transform="scale(0.015625)"/>
      <path id="DejaVuSans-61" d="M 2194 1759 
Q 1497 1759 1228 1600 
Q 959 1441 959 1056 
Q 959 750 1161 570 
Q 1363 391 1709 391 
Q 2188 391 2477 730 
Q 2766 1069 2766 1631 
L 2766 1759 
L 2194 1759 
z
M 3341 1997 
L 3341 0 
L 2766 0 
L 2766 531 
Q 2569 213 2275 61 
Q 1981 -91 1556 -91 
Q 1019 -91 701 211 
Q 384 513 384 1019 
Q 384 1609 779 1909 
Q 1175 2209 1959 2209 
L 2766 2209 
L 2766 2266 
Q 2766 2663 2505 2880 
Q 2244 3097 1772 3097 
Q 1472 3097 1187 3025 
Q 903 2953 641 2809 
L 641 3341 
Q 956 3463 1253 3523 
Q 1550 3584 1831 3584 
Q 2591 3584 2966 3190 
Q 3341 2797 3341 1997 
z
" transform="scale(0.015625)"/>
      <path id="DejaVuSans-73" d="M 2834 3397 
L 2834 2853 
Q 2591 2978 2328 3040 
Q 2066 3103 1784 3103 
Q 1356 3103 1142 2972 
Q 928 2841 928 2578 
Q 928 2378 1081 2264 
Q 1234 2150 1697 2047 
L 1894 2003 
Q 2506 1872 2764 1633 
Q 3022 1394 3022 966 
Q 3022 478 2636 193 
Q 2250 -91 1575 -91 
Q 1294 -91 989 -36 
Q 684 19 347 128 
L 347 722 
Q 666 556 975 473 
Q 1284 391 1588 391 
Q 1994 391 2212 530 
Q 2431 669 2431 922 
Q 2431 1156 2273 1281 
Q 2116 1406 1581 1522 
L 1381 1569 
Q 847 1681 609 1914 
Q 372 2147 372 2553 
Q 372 3047 722 3315 
Q 1072 3584 1716 3584 
Q 2034 3584 2315 3537 
Q 2597 3491 2834 3397 
z
" transform="scale(0.015625)"/>
      <path id="DejaVuSans-68" d="M 3513 2113 
L 3513 0 
L 2938 0 
L 2938 2094 
Q 2938 2591 2744 2837 
Q 2550 3084 2163 3084 
Q 1697 3084 1428 2787 
Q 1159 2491 1159 1978 
L 1159 0 
L 581 0 
L 581 4863 
L 1159 4863 
L 1159 2956 
Q 1366 3272 1645 3428 
Q 1925 3584 2291 3584 
Q 2894 3584 3203 3211 
Q 3513 2838 3513 2113 
z
" transform="scale(0.015625)"/>
      <path id="DejaVuSans-74" d="M 1172 4494 
L 1172 3500 
L 2356 3500 
L 2356 3053 
L 1172 3053 
L 1172 1153 
Q 1172 725 1289 603 
Q 1406 481 1766 481 
L 2356 481 
L 2356 0 
L 1766 0 
Q 1100 0 847 248 
Q 594 497 594 1153 
L 594 3053 
L 172 3053 
L 172 3500 
L 594 3500 
L 594 4494 
L 1172 4494 
z
" transform="scale(0.015625)"/>
      <path id="DejaVuSans-69" d="M 603 3500 
L 1178 3500 
L 1178 0 
L 603 0 
L 603 3500 
z
M 603 4863 
L 1178 4863 
L 1178 4134 
L 603 4134 
L 603 4863 
z
" transform="scale(0.015625)"/>
      <path id="DejaVuSans-6d" d="M 3328 2828 
Q 3544 3216 3844 3400 
Q 4144 3584 4550 3584 
Q 5097 3584 5394 3201 
Q 5691 2819 5691 2113 
L 5691 0 
L 5113 0 
L 5113 2094 
Q 5113 2597 4934 2840 
Q 4756 3084 4391 3084 
Q 3944 3084 3684 2787 
Q 3425 2491 3425 1978 
L 3425 0 
L 2847 0 
L 2847 2094 
Q 2847 2600 2669 2842 
Q 2491 3084 2119 3084 
Q 1678 3084 1418 2786 
Q 1159 2488 1159 1978 
L 1159 0 
L 581 0 
L 581 3500 
L 1159 3500 
L 1159 2956 
Q 1356 3278 1631 3431 
Q 1906 3584 2284 3584 
Q 2666 3584 2933 3390 
Q 3200 3197 3328 2828 
z
" transform="scale(0.015625)"/>
      <path id="DejaVuSans-3a" d="M 750 794 
L 1409 794 
L 1409 0 
L 750 0 
L 750 794 
z
M 750 3309 
L 1409 3309 
L 1409 2516 
L 750 2516 
L 750 3309 
z
" transform="scale(0.015625)"/>
     </defs>
     <use xlink:href="#DejaVuSans-70"/>
     <use xlink:href="#DejaVuSans-eb" x="63.476562"/>
     <use xlink:href="#DejaVuSans-72" x="125"/>
     <use xlink:href="#DejaVuSans-6a" x="166.113281"/>
     <use xlink:href="#DejaVuSans-61" x="193.896484"/>
     <use xlink:href="#DejaVuSans-73" x="255.175781"/>
     <use xlink:href="#DejaVuSans-68" x="307.275391"/>
     <use xlink:href="#DejaVuSans-74" x="370.654297"/>
     <use xlink:href="#DejaVuSans-69" x="409.863281"/>
     <use xlink:href="#DejaVuSans-6d" x="437.646484"/>
     <use xlink:href="#DejaVuSans-3a" x="535.058594"/>
    </g>
    <!-- riprovim -->
    <g style="fill: #52514e" transform="translate(308.830009 363.095979) scale(0.07 -0.07)">
     <defs>
      <path id="DejaVuSans-6f" d="M 1959 3097 
Q 1497 3097 1228 2736 
Q 959 2375 959 1747 
Q 959 1119 1226 758 
Q 1494 397 1959 397 
Q 2419 397 2687 759 
Q 2956 1122 2956 1747 
Q 2956 2369 2687 2733 
Q 2419 3097 1959 3097 
z
M 1959 3584 
Q 2709 3584 3137 3096 
Q 3566 2609 3566 1747 
Q 3566 888 3137 398 
Q 2709 -91 1959 -91 
Q 1206 -91 779 398 
Q 353 888 353 1747 
Q 353 2609 779 3096 
Q 1206 3584 1959 3584 
z
" transform="scale(0.015625)"/>
      <path id="DejaVuSans-76" d="M 191 3500 
L 800 3500 
L 1894 563 
L 2988 3500 
L 3597 3500 
L 2284 0 
L 1503 0 
L 191 3500 
z
" transform="scale(0.015625)"/>
     </defs>
     <use xlink:href="#DejaVuSans-72"/>
     <use xlink:href="#DejaVuSans-69" x="41.113281"/>
     <use xlink:href="#DejaVuSans-70" x="68.896484"/>
     <use xlink:href="#DejaVuSans-72" x="132.373047"/>
     <use xlink:href="#DejaVuSans-6f" x="171.236328"/>
     <use xlink:href="#DejaVuSans-76" x="232.417969"/>
     <use xlink:href="#DejaVuSans-69" x="291.597656"/>
     <use xlink:href="#DejaVuSans-6d" x="319.380859"/>
    </g>
   </g>
   <g id="text_15">
    <!-- shkelje: -->
    <g style="fill: #52514e" transform="translate(109.790943 386.929328) scale(0.07 -0.07)">
     <defs>
      <path id="DejaVuSans-6b" d="M 581 4863 
L 1159 4863 
L 1159 1991 
L 2875 3500 
L 3609 3500 
L 1753 1863 
L 3688 0 
L 2938 0 
L 1159 1709 
L 1159 0 
L 581 0 
L 581 4863 
z
" transform="scale(0.015625)"/>
      <path id="DejaVuSans-65" d="M 3597 1894 
L 3597 1613 
L 953 1613 
Q 991 1019 1311 708 
Q 1631 397 2203 397 
Q 2534 397 2845 478 
Q 3156 559 3463 722 
L 3463 178 
Q 3153 47 2828 -22 
Q 2503 -91 2169 -91 
Q 1331 -91 842 396 
Q 353 884 353 1716 
Q 353 2575 817 3079 
Q 1281 3584 2069 3584 
Q 2775 3584 3186 3129 
Q 3597 2675 3597 1894 
z
M 3022 2063 
Q 3016 2534 2758 2815 
Q 2500 3097 2075 3097 
Q 1594 3097 1305 2825 
Q 1016 2553 972 2059 
L 3022 2063 
z
" transform="scale(0.015625)"/>
      <path id="DejaVuSans-6c" d="M 603 4863 
L 1178 4863 
L 1178 0 
L 603 0 
L 603 4863 
z
" transform="scale(0.015625)"/>
     </defs>
     <use xlink:href="#DejaVuSans-73"/>
     <use xlink:href="#DejaVuSans-68" x="52.099609"/>
     <use xlink:href="#DejaVuSans-6b" x="115.478516"/>
     <use xlink:href="#DejaVuSans-65" x="169.763672"/>
     <use xlink:href="#DejaVuSans-6c" x="231.287109"/>
     <use xlink:href="#DejaVuSans-6a" x="259.070312"/>
     <use xlink:href="#DejaVuSans-65" x="286.853516"/>
     <use xlink:href="#DejaVuSans-3a" x="348.376953"/>
    </g>
    <!-- rigjenerim -->
    <g style="fill: #52514e" transform="translate(100.632974 394.767797) scale(0.07 -0.07)">
     <defs>
      <path id="DejaVuSans-67" d="M 2906 1791 
Q 2906 2416 2648 2759 
Q 2391 3103 1925 3103 
Q 1463 3103 1205 2759 
Q 947 2416 947 1791 
Q 947 1169 1205 825 
Q 1463 481 1925 481 
Q 2391 481 2648 825 
Q 2906 1169 2906 1791 
z
M 3481 434 
Q 3481 -459 3084 -895 
Q 2688 -1331 1869 -1331 
Q 1566 -1331 1297 -1286 
Q 1028 -1241 775 -1147 
L 775 -588 
Q 1028 -725 1275 -790 
Q 1522 -856 1778 -856 
Q 2344 -856 2625 -561 
Q 2906 -266 2906 331 
L 2906 616 
Q 2728 306 2450 153 
Q 2172 0 1784 0 
Q 1141 0 747 490 
Q 353 981 353 1791 
Q 353 2603 747 3093 
Q 1141 3584 1784 3584 
Q 2172 3584 2450 3431 
Q 2728 3278 2906 2969 
L 2906 3500 
L 3481 3500 
L 3481 434 
z
" transform="scale(0.015625)"/>
      <path id="DejaVuSans-6e" d="M 3513 2113 
L 3513 0 
L 2938 0 
L 2938 2094 
Q 2938 2591 2744 2837 
Q 2550 3084 2163 3084 
Q 1697 3084 1428 2787 
Q 1159 2491 1159 1978 
L 1159 0 
L 581 0 
L 581 3500 
L 1159 3500 
L 1159 2956 
Q 1366 3272 1645 3428 
Q 1925 3584 2291 3584 
Q 2894 3584 3203 3211 
Q 3513 2838 3513 2113 
z
" transform="scale(0.015625)"/>
     </defs>
     <use xlink:href="#DejaVuSans-72"/>
     <use xlink:href="#DejaVuSans-69" x="41.113281"/>
     <use xlink:href="#DejaVuSans-67" x="68.896484"/>
     <use xlink:href="#DejaVuSans-6a" x="132.373047"/>
     <use xlink:href="#DejaVuSans-65" x="160.15625"/>
     <use xlink:href="#DejaVuSans-6e" x="221.679688"/>
     <use xlink:href="#DejaVuSans-65" x="285.058594"/>
     <use xlink:href="#DejaVuSans-72" x="346.582031"/>
     <use xlink:href="#DejaVuSans-69" x="387.695312"/>
     <use xlink:href="#DejaVuSans-6d" x="415.478516"/>
    </g>
   </g>
   <g id="text_16">
    <!-- gjendje e ndërmjetme -->
    <g style="fill: #52514e" transform="translate(65.273727 539.844077) scale(0.075 -0.075)">
     <defs>
      <path id="DejaVuSans-64" d="M 2906 2969 
L 2906 4863 
L 3481 4863 
L 3481 0 
L 2906 0 
L 2906 525 
Q 2725 213 2448 61 
Q 2172 -91 1784 -91 
Q 1150 -91 751 415 
Q 353 922 353 1747 
Q 353 2572 751 3078 
Q 1150 3584 1784 3584 
Q 2172 3584 2448 3432 
Q 2725 3281 2906 2969 
z
M 947 1747 
Q 947 1113 1208 752 
Q 1469 391 1925 391 
Q 2381 391 2643 752 
Q 2906 1113 2906 1747 
Q 2906 2381 2643 2742 
Q 2381 3103 1925 3103 
Q 1469 3103 1208 2742 
Q 947 2381 947 1747 
z
" transform="scale(0.015625)"/>
      <path id="DejaVuSans-20" transform="scale(0.015625)"/>
     </defs>
     <use xlink:href="#DejaVuSans-67"/>
     <use xlink:href="#DejaVuSans-6a" x="63.476562"/>
     <use xlink:href="#DejaVuSans-65" x="91.259766"/>
     <use xlink:href="#DejaVuSans-6e" x="152.783203"/>
     <use xlink:href="#DejaVuSans-64" x="216.162109"/>
     <use xlink:href="#DejaVuSans-6a" x="279.638672"/>
     <use xlink:href="#DejaVuSans-65" x="307.421875"/>
     <use xlink:href="#DejaVuSans-20" x="368.945312"/>
     <use xlink:href="#DejaVuSans-65" x="400.732422"/>
     <use xlink:href="#DejaVuSans-20" x="462.255859"/>
     <use xlink:href="#DejaVuSans-6e" x="494.042969"/>
     <use xlink:href="#DejaVuSans-64" x="557.421875"/>
     <use xlink:href="#DejaVuSans-eb" x="620.898438"/>
     <use xlink:href="#DejaVuSans-72" x="682.421875"/>
     <use xlink:href="#DejaVuSans-6d" x="721.785156"/>
     <use xlink:href="#DejaVuSans-6a" x="819.197266"/>
     <use xlink:href="#DejaVuSans-65" x="846.980469"/>
     <use xlink:href="#DejaVuSans-74" x="908.503906"/>
     <use xlink:href="#DejaVuSans-6d" x="947.712891"/>
     <use xlink:href="#DejaVuSans-65" x="1045.125"/>
    </g>
   </g>
   <g id="text_17">
    <!-- përfundimtare -->
    <g style="fill: #52514e" transform="translate(210.964091 539.844077) scale(0.075 -0.075)">
     <defs>
      <path id="DejaVuSans-66" d="M 2375 4863 
L 2375 4384 
L 1825 4384 
Q 1516 4384 1395 4259 
Q 1275 4134 1275 3809 
L 1275 3500 
L 2222 3500 
L 2222 3053 
L 1275 3053 
L 1275 0 
L 697 0 
L 697 3053 
L 147 3053 
L 147 3500 
L 697 3500 
L 697 3744 
Q 697 4328 969 4595 
Q 1241 4863 1831 4863 
L 2375 4863 
z
" transform="scale(0.015625)"/>
      <path id="DejaVuSans-75" d="M 544 1381 
L 544 3500 
L 1119 3500 
L 1119 1403 
Q 1119 906 1312 657 
Q 1506 409 1894 409 
Q 2359 409 2629 706 
Q 2900 1003 2900 1516 
L 2900 3500 
L 3475 3500 
L 3475 0 
L 2900 0 
L 2900 538 
Q 2691 219 2414 64 
Q 2138 -91 1772 -91 
Q 1169 -91 856 284 
Q 544 659 544 1381 
z
M 1991 3584 
L 1991 3584 
z
" transform="scale(0.015625)"/>
     </defs>
     <use xlink:href="#DejaVuSans-70"/>
     <use xlink:href="#DejaVuSans-eb" x="63.476562"/>
     <use xlink:href="#DejaVuSans-72" x="125"/>
     <use xlink:href="#DejaVuSans-66" x="166.113281"/>
     <use xlink:href="#DejaVuSans-75" x="201.318359"/>
     <use xlink:href="#DejaVuSans-6e" x="264.697266"/>
     <use xlink:href="#DejaVuSans-64" x="328.076172"/>
     <use xlink:href="#DejaVuSans-69" x="391.552734"/>
     <use xlink:href="#DejaVuSans-6d" x="419.335938"/>
     <use xlink:href="#DejaVuSans-74" x="516.748047"/>
     <use xlink:href="#DejaVuSans-61" x="555.957031"/>
     <use xlink:href="#DejaVuSans-72" x="617.236328"/>
     <use xlink:href="#DejaVuSans-65" x="656.099609"/>
    </g>
   </g>
   <g id="text_18">
    <!-- pa shpjegim -->
    <g style="fill: #52514e" transform="translate(343.985727 539.844077) scale(0.075 -0.075)">
     <use xlink:href="#DejaVuSans-70"/>
     <use xlink:href="#DejaVuSans-61" x="63.476562"/>
     <use xlink:href="#DejaVuSans-20" x="124.755859"/>
     <use xlink:href="#DejaVuSans-73" x="156.542969"/>
     <use xlink:href="#DejaVuSans-68" x="208.642578"/>
     <use xlink:href="#DejaVuSans-70" x="272.021484"/>
     <use xlink:href="#DejaVuSans-6a" x="335.498047"/>
     <use xlink:href="#DejaVuSans-65" x="363.28125"/>
     <use xlink:href="#DejaVuSans-67" x="424.804688"/>
     <use xlink:href="#DejaVuSans-69" x="488.28125"/>
     <use xlink:href="#DejaVuSans-6d" x="516.064453"/>
    </g>
   </g>
  </g>
 </g>
 <defs>
  <clipPath id="p053b5627dd">
   <rect x="11.431636" y="5.688" width="430.736727" height="557.424"/>
  </clipPath>
 </defs>
</svg>
